<?xml version="1.0" encoding="UTF-8" standalone="no"?>
<!-- Created with Inkscape (http://www.inkscape.org/) -->

<svg
   xmlns:dc="http://purl.org/dc/elements/1.1/"
   xmlns:cc="http://creativecommons.org/ns#"
   xmlns:rdf="http://www.w3.org/1999/02/22-rdf-syntax-ns#"
   xmlns:svg="http://www.w3.org/2000/svg"
   xmlns="http://www.w3.org/2000/svg"
   xmlns:sodipodi="http://sodipodi.sourceforge.net/DTD/sodipodi-0.dtd"
   xmlns:inkscape="http://www.inkscape.org/namespaces/inkscape"
   width="3202.4719"
   height="512"
   viewBox="0 0 847.32067 135.46667"
   version="1.1"
   id="svg23489"
   inkscape:version="0.48.5 r10040"
   sodipodi:docname="electric_slash_2.svg">
  <defs
     id="defs23483">
    <filter
       inkscape:collect="always"
       id="filter4059"
       color-interpolation-filters="sRGB">
      <feGaussianBlur
         inkscape:collect="always"
         stdDeviation="6.1381388"
         id="feGaussianBlur4061" />
    </filter>
    <filter
       inkscape:collect="always"
       id="filter4063"
       color-interpolation-filters="sRGB">
      <feGaussianBlur
         inkscape:collect="always"
         stdDeviation="11.138233"
         id="feGaussianBlur4065" />
    </filter>
    <filter
       inkscape:collect="always"
       id="filter4067"
       color-interpolation-filters="sRGB">
      <feGaussianBlur
         inkscape:collect="always"
         stdDeviation="16.45351"
         id="feGaussianBlur4069" />
    </filter>
    <filter
       inkscape:collect="always"
       id="filter4071"
       color-interpolation-filters="sRGB">
      <feGaussianBlur
         inkscape:collect="always"
         stdDeviation="17.354184"
         id="feGaussianBlur4073" />
    </filter>
    <filter
       inkscape:collect="always"
       id="filter4077"
       color-interpolation-filters="sRGB">
      <feGaussianBlur
         inkscape:collect="always"
         stdDeviation="11.976953"
         id="feGaussianBlur4079" />
    </filter>
    <filter
       inkscape:collect="always"
       id="filter4159"
       color-interpolation-filters="sRGB">
      <feGaussianBlur
         inkscape:collect="always"
         stdDeviation="5.8678351"
         id="feGaussianBlur4161" />
    </filter>
  </defs>
  <sodipodi:namedview
     id="base"
     pagecolor="#525252"
     bordercolor="#666666"
     borderopacity="1.0"
     inkscape:pageopacity="0"
     inkscape:pageshadow="2"
     inkscape:zoom="0.27512501"
     inkscape:cx="850.64594"
     inkscape:cy="-161.77516"
     inkscape:document-units="px"
     inkscape:current-layer="layer1"
     showgrid="false"
     inkscape:pagecheckerboard="false"
     showborder="true"
     units="px"
     inkscape:window-width="1920"
     inkscape:window-height="1017"
     inkscape:window-x="-8"
     inkscape:window-y="-8"
     inkscape:window-maximized="1"
     fit-margin-top="0"
     fit-margin-left="0"
     fit-margin-right="0"
     fit-margin-bottom="0"
     showguides="true"
     inkscape:guide-bbox="true"
     inkscape:snap-global="true"
     inkscape:snap-bbox="false">
    <inkscape:grid
       type="xygrid"
       id="grid24034"
       spacingx="2.6458333"
       spacingy="2.6458333"
       empspacing="10"
       visible="true"
       enabled="true"
       snapvisiblegridlinesonly="true"
       originx="11187.772px"
       originy="-7132.5622px" />
  </sodipodi:namedview>
  <metadata
     id="metadata23486">
    <rdf:RDF>
      <cc:Work
         rdf:about="">
        <dc:format>image/svg+xml</dc:format>
        <dc:type
           rdf:resource="http://purl.org/dc/dcmitype/StillImage" />
        <dc:title></dc:title>
        <cc:license
           rdf:resource="" />
        <dc:creator>
          <cc:Agent>
            <dc:title>Robert Brooks</dc:title>
          </cc:Agent>
        </dc:creator>
      </cc:Work>
    </rdf:RDF>
  </metadata>
  <g
     inkscape:label="Layer 1"
     inkscape:groupmode="layer"
     id="layer1"
     transform="translate(2960.0982,1725.6237)">
    <g
       id="g4561"
       transform="translate(-213.57983,0)" />
    <g
       transform="matrix(1.1981111,0,0,1.1981111,325.14806,40.050402)"
       id="g4207" />
    <g
       transform="translate(-727.47507,0)"
       id="g3988" />
    <g
       id="g4203"
       transform="matrix(0.47504062,0,0,0.47504062,-1259.784,-926.48875)"
       inkscape:export-filename="C:\Users\rober\Desktop\assets\ASSETS_2019\electrical_effects\electric_slash_2\animations\electric_slash_two_06.png"
       inkscape:export-xdpi="90"
       inkscape:export-ydpi="90">
      <g
         id="g4024">
        <g
           transform="translate(-364.67036,0)"
           id="g4001">
          <path
             inkscape:export-ydpi="90"
             inkscape:export-xdpi="90"
             inkscape:export-filename="C:\Users\rober\Desktop\assets\ASSETS_2019\electrical_effects\6.png"
             id="rect4003"
             d="m -1728.2321,-1682.2456 297.2801,0 0,285.1686 -297.2801,0 z"
             style="opacity:0;color:#000000;fill:#374548;fill-opacity:1;fill-rule:nonzero;stroke:none;stroke-width:10;marker:none;visibility:visible;display:inline;overflow:visible;enable-background:accumulate"
             inkscape:connector-curvature="0" />
        </g>
        <path
           style="color:#000000;fill:#00ffff;fill-opacity:1;fill-rule:nonzero;stroke:none;stroke-width:10;marker:none;visibility:visible;display:inline;overflow:visible;enable-background:accumulate"
           d="m -2186.6562,-3807.0625 c -3.4255,0.2314 -6.4063,20.9687 -6.4063,20.9687 0,16.6457 4.1511,31.1979 8.3125,22.875 4.1614,-8.3228 4.1614,-31.2214 0,-41.625 -0.6502,-1.6255 -1.2719,-2.2616 -1.9062,-2.2187 z m 239.125,72.9687 -14.5626,12.5 c -10.4035,18.7264 -10.4035,29.1354 0,20.8126 10.4036,-8.3229 14.5626,-33.3126 14.5626,-33.3126 z m -381.25,7.3438 c -0.5784,0.014 -1.1061,0.3498 -1.5938,1 -6.2421,8.3228 -2.0938,20.7812 -2.0938,20.7812 8.3229,14.565 22.9063,18.75 22.9063,18.75 0,0 -12.3943,-40.697 -19.2187,-40.5312 z m -157.6563,82.8438 c -0.8963,0.1152 -0.9753,1.1617 0,3.4374 6.2421,14.565 14.5625,18.75 14.5625,18.75 16.6456,27.0492 41.6092,27.0468 29.125,14.5626 -10.5335,-10.5336 -38.8476,-37.3724 -43.6875,-36.75 z m 632.5313,70.0312 c -10.4036,0 -20.8126,12.5 -20.8126,12.5 -10.4035,6.2421 0,14.5625 0,14.5625 0,0 31.2161,-27.0625 20.8126,-27.0625 z m 33.2812,135.25 -16.625,2.0625 c -8.3228,2.0807 -8.3228,16.6745 0,14.5937 8.3228,-2.0807 16.625,-16.6562 16.625,-16.6562 z m -644.5312,47.2812 c -8.1557,-0.086 -15.0313,2.6563 -15.0313,2.6563 -31.2105,8.3228 -31.2212,14.5625 -16.6563,14.5625 14.565,0 47.8723,-14.5755 37.4688,-16.6562 -1.9507,-0.3902 -3.8992,-0.5427 -5.7812,-0.5626 z"
           transform="matrix(0.26458334,0,0,0.26458334,-1316.4441,-532.96619)"
           id="path4009"
           inkscape:connector-curvature="0" />
      </g>
    </g>
    <g
       id="g4247"
       transform="matrix(0.47504062,0,0,0.47504062,-1154.4999,-926.48875)"
       inkscape:export-filename="C:\Users\rober\Desktop\assets\ASSETS_2019\electrical_effects\electric_slash_2\animations\electric_slash_two_01.png"
       inkscape:export-xdpi="90"
       inkscape:export-ydpi="90">
      <g
         transform="translate(-2072.7026,0)"
         id="g3966">
        <path
           inkscape:export-ydpi="90"
           inkscape:export-xdpi="90"
           inkscape:export-filename="C:\Users\rober\Desktop\assets\ASSETS_2019\electrical_effects\1.png"
           id="rect3184"
           d="m -1728.2321,-1682.2456 297.2801,0 0,285.1686 -297.2801,0 z"
           style="opacity:0;color:#000000;fill:#374548;fill-opacity:1;fill-rule:nonzero;stroke:none;stroke-width:10;marker:none;visibility:visible;display:inline;overflow:visible;enable-background:accumulate"
           inkscape:connector-curvature="0" />
        <path
           inkscape:connector-curvature="0"
           style="color:#000000;fill:#00ffff;fill-opacity:1;fill-rule:nonzero;stroke:none;stroke-width:10;marker:none;visibility:visible;display:inline;overflow:visible;enable-background:accumulate"
           d="m -1414.0312,-4250.0938 c -8.3664,-0.1063 -21.8604,2.8615 -20.4688,10.3438 2.6067,14.0158 38.1704,16.5008 42.6562,2.9688 2.5685,-7.7479 -12.4499,-12.7006 -20.5937,-13.25 -0.5062,-0.034 -1.036,-0.055 -1.5937,-0.063 z m 48.5,7.0938 c -15.6599,0.4829 -20.6642,11.7562 -5.6876,22.5 -35.4286,-7.1142 -72.9025,-10.8475 -100.0624,-4.5312 0,0 -11.7737,5.8935 -16.1876,13.25 -4.4138,7.3564 58.85,7.3598 128,16.1874 38.7157,4.9425 62.1971,16.807 77.1876,26.0313 -4.702,-0.1308 -8.341,1.6095 -10.1876,6.6875 -7.6959,21.1637 36.5493,26.9072 34.625,40.375 -1.924,13.4678 -44.25,26.9375 -44.25,26.9375 69.2635,21.1637 123.1473,-1.9183 117.375,-48.0937 -4.87,-38.9608 -24.7948,-54.6441 -30.9062,-53.9688 -1.1317,0.1251 -1.8125,0.8288 -1.8125,2.0312 0,7.6962 9.6462,28.8489 -9.5937,38.4688 -7.3186,3.6593 -17.4255,0.6374 -27.5626,-3.3438 4.1021,-6.4465 0.042,-21.0832 -15.125,-29.25 -3.8661,-2.0817 -11.8714,-5.3625 -22.625,-9.1562 2.1664,-0.4931 3.869,-1.3368 4.9688,-2.5938 10.299,-11.7702 -48.5529,-38.2762 -72.0938,-41.2187 -1.4712,-0.1839 -2.8789,-0.2834 -4.2187,-0.3125 -0.628,-0.014 -1.2462,-0.018 -1.8437,0 z m -5.1563,62.5625 c -12.8245,0.01 -19.3879,2.9547 -15.25,5.4375 7.3564,4.4139 27.9375,7.3438 27.9375,7.3438 30.8968,2.9426 67.6901,35.3277 66.2188,26.5 -1.4717,-8.8281 -4.4081,-20.6048 -39.7188,-32.375 -15.4484,-5.1498 -29.2129,-6.9138 -39.1875,-6.9063 z m -68.2187,6.9063 c -66.2079,0 -83.869,26.4713 -69.1563,25 14.7128,-1.4717 89.7404,-4.3877 113.2813,2.9687 23.5404,7.3564 38.2756,1.4526 23.5624,-7.375 -14.7128,-8.8277 -67.6874,-20.5937 -67.6874,-20.5937 z"
           transform="matrix(0.26458334,0,0,0.26458334,-1316.4441,-532.96619)"
           id="path3115" />
        <path
           id="path4053"
           transform="matrix(0.26458334,0,0,0.26458334,-1316.4441,-532.96619)"
           d="m -1414.0312,-4250.0938 c -8.3664,-0.1063 -21.8604,2.8615 -20.4688,10.3438 2.6067,14.0158 38.1704,16.5008 42.6562,2.9688 2.5685,-7.7479 -12.4499,-12.7006 -20.5937,-13.25 -0.5062,-0.034 -1.036,-0.055 -1.5937,-0.063 z m 48.5,7.0938 c -15.6599,0.4829 -20.6642,11.7562 -5.6876,22.5 -35.4286,-7.1142 -72.9025,-10.8475 -100.0624,-4.5312 0,0 -11.7737,5.8935 -16.1876,13.25 -4.4138,7.3564 58.85,7.3598 128,16.1874 38.7157,4.9425 62.1971,16.807 77.1876,26.0313 -4.702,-0.1308 -8.341,1.6095 -10.1876,6.6875 -7.6959,21.1637 36.5493,26.9072 34.625,40.375 -1.924,13.4678 -44.25,26.9375 -44.25,26.9375 69.2635,21.1637 123.1473,-1.9183 117.375,-48.0937 -4.87,-38.9608 -24.7948,-54.6441 -30.9062,-53.9688 -1.1317,0.1251 -1.8125,0.8288 -1.8125,2.0312 0,7.6962 9.6462,28.8489 -9.5937,38.4688 -7.3186,3.6593 -17.4255,0.6374 -27.5626,-3.3438 4.1021,-6.4465 0.042,-21.0832 -15.125,-29.25 -3.8661,-2.0817 -11.8714,-5.3625 -22.625,-9.1562 2.1664,-0.4931 3.869,-1.3368 4.9688,-2.5938 10.299,-11.7702 -48.5529,-38.2762 -72.0938,-41.2187 -1.4712,-0.1839 -2.8789,-0.2834 -4.2187,-0.3125 -0.628,-0.014 -1.2462,-0.018 -1.8437,0 z m -5.1563,62.5625 c -12.8245,0.01 -19.3879,2.9547 -15.25,5.4375 7.3564,4.4139 27.9375,7.3438 27.9375,7.3438 30.8968,2.9426 67.6901,35.3277 66.2188,26.5 -1.4717,-8.8281 -4.4081,-20.6048 -39.7188,-32.375 -15.4484,-5.1498 -29.2129,-6.9138 -39.1875,-6.9063 z m -68.2187,6.9063 c -66.2079,0 -83.869,26.4713 -69.1563,25 14.7128,-1.4717 89.7404,-4.3877 113.2813,2.9687 23.5404,7.3564 38.2756,1.4526 23.5624,-7.375 -14.7128,-8.8277 -67.6874,-20.5937 -67.6874,-20.5937 z"
           style="color:#000000;fill:#00ffff;fill-opacity:1;fill-rule:nonzero;stroke:none;stroke-width:10;marker:none;visibility:visible;display:inline;overflow:visible;filter:url(#filter4059);enable-background:accumulate"
           inkscape:connector-curvature="0" />
      </g>
      <path
         transform="matrix(0.26458334,0,0,0.26458334,-1316.4441,-532.96619)"
         inkscape:connector-curvature="0"
         id="path4107"
         d="m -9327.7791,-4157.5101 c 21.3272,-7.8027 52.5377,-8.843 60.8605,-7.8027 8.3228,1.0404 60.8605,17.686 56.6991,18.2062 -4.1614,0.5201 -36.4123,-10.4035 -48.3763,-9.8834 -11.964,0.5202 -32.2509,-2.0807 -55.6587,2.0807 -23.4079,4.1614 -13.5246,-2.6008 -13.5246,-2.6008 z"
         style="color:#000000;fill:#ffffff;fill-opacity:1;fill-rule:nonzero;stroke:none;stroke-width:10;marker:none;visibility:visible;display:inline;overflow:visible;enable-background:accumulate" />
      <path
         transform="matrix(0.26458334,0,0,0.26458334,-1316.4441,-532.96619)"
         inkscape:connector-curvature="0"
         id="path4109"
         d="m -9243.5107,-4243.339 c -13.5246,-2.0807 -22.8877,4.6815 -14.0448,6.7622 8.843,2.0807 18.7263,3.6413 22.8877,-1.0403 4.1614,-4.6816 -8.8429,-5.7219 -8.8429,-5.7219 z"
         style="color:#000000;fill:#ffffff;fill-opacity:1;fill-rule:nonzero;stroke:none;stroke-width:10;marker:none;visibility:visible;display:inline;overflow:visible;enable-background:accumulate" />
      <path
         transform="matrix(0.26458334,0,0,0.26458334,-1316.4441,-532.96619)"
         inkscape:connector-curvature="0"
         id="path4111"
         d="m -9295.0081,-4217.8505 c -3.6412,2.6009 -2.0807,4.6816 1.5606,5.2018 3.6412,0.5202 101.9543,4.6816 144.0885,16.6456 42.1341,11.964 49.9368,28.6096 45.7754,30.1702 -4.1614,1.5605 -17.686,5.7219 -13.5246,9.3631 4.1614,3.6412 28.6096,13.5246 36.9324,26.5289 8.3228,13.0044 -29.1298,31.2105 -22.8877,31.7307 6.2421,0.5202 39.0132,10.4035 61.3807,-15.0851 22.3675,-25.4885 9.8833,-52.5376 5.2017,-60.3403 -4.6815,-7.8026 -3.6412,-5.7219 -3.121,0.5202 0.5202,6.2421 -2.0807,17.1658 -13.0044,26.0088 -10.9237,8.8429 -45.7754,-10.9237 -49.4166,-11.9641 -3.6412,-1.0403 0.5202,0 6.2421,-6.2421 5.7219,-6.2421 -14.5649,-21.3272 -24.4482,-28.0894 -9.8834,-6.7623 -93.1114,-20.807 -120.1605,-22.8877 -27.0491,-2.0807 -54.6184,-1.5606 -54.6184,-1.5606 z"
         style="color:#000000;fill:#ffffff;fill-opacity:1;fill-rule:nonzero;stroke:none;stroke-width:10;marker:none;visibility:visible;display:inline;overflow:visible;enable-background:accumulate" />
      <path
         transform="matrix(0.26458334,0,0,0.26458334,-1316.4441,-532.96619)"
         inkscape:connector-curvature="0"
         id="path4113"
         d="m -9168.0853,-4204.3259 c -28.0895,-5.2018 -39.5333,-5.7219 -33.2912,-5.7219 6.2421,0 21.8473,-1.5606 25.4885,-2.6009 3.6413,-1.0404 -14.5649,-8.843 -19.7666,-15.0851 -5.2018,-6.2421 31.2105,0.5202 48.3763,8.3228 17.1657,7.8026 18.7263,15.6053 12.4842,13.0044 -6.2421,-2.6009 -21.8474,-1.5605 -19.2465,0 2.6009,1.5605 20.807,6.7623 21.8473,9.8833 1.0404,3.1211 -22.8877,-1.5605 -28.0894,-4.1614 -5.2018,-2.6009 -7.8026,-3.6412 -7.8026,-3.6412 z"
         style="color:#000000;fill:#ffffff;fill-opacity:1;fill-rule:nonzero;stroke:none;stroke-width:10;marker:none;visibility:visible;display:inline;overflow:visible;enable-background:accumulate" />
      <path
         transform="matrix(0.26458334,0,0,0.26458334,-1316.4441,-532.96619)"
         inkscape:connector-curvature="0"
         id="path4115"
         d="m -9201.8967,-4175.1961 c 27.5693,-1.5605 65.0219,24.4482 65.0219,24.4482 0,0 -6.7623,-9.8833 -15.0851,-13.0043 -8.3228,-3.1211 -36.4123,-13.5246 -43.1745,-13.5246 -6.7623,0 -6.7623,2.0807 -6.7623,2.0807 z"
         style="color:#000000;fill:#ffffff;fill-opacity:1;fill-rule:nonzero;stroke:none;stroke-width:10;marker:none;visibility:visible;display:inline;overflow:visible;enable-background:accumulate" />
    </g>
    <g
       id="g4235"
       transform="matrix(0.47504062,0,0,0.47504062,-1173.0392,-926.48875)"
       inkscape:export-filename="C:\Users\rober\Desktop\assets\ASSETS_2019\electrical_effects\electric_slash_2\animations\electric_slash_two_02.png"
       inkscape:export-xdpi="90"
       inkscape:export-ydpi="90">
      <g
         transform="translate(-1736.3957,0)"
         id="g3970">
        <path
           inkscape:export-ydpi="90"
           inkscape:export-xdpi="90"
           inkscape:export-filename="C:\Users\rober\Desktop\assets\ASSETS_2019\electrical_effects\2.png"
           id="rect3954"
           d="m -1728.2321,-1682.2456 297.2801,0 0,285.1686 -297.2801,0 z"
           style="opacity:0;color:#000000;fill:#374548;fill-opacity:1;fill-rule:nonzero;stroke:none;stroke-width:10;marker:none;visibility:visible;display:inline;overflow:visible;enable-background:accumulate"
           inkscape:connector-curvature="0" />
        <path
           inkscape:connector-curvature="0"
           style="color:#000000;fill:#00ffff;stroke:none;stroke-width:10;marker:none;visibility:visible;display:inline;overflow:visible;enable-background:accumulate"
           d="m -1306.5,-4214.7188 c -11.613,0 -25.0355,9.1526 -11.375,20.25 -6.3724,-1.4652 -13.021,-2.7146 -20,-3.625 -47.8561,-6.2421 -70.7524,-6.2421 -56.1875,0 14.5649,6.2422 75.6048,24.3346 87.375,47.875 0,0 -56.1566,-4.1744 -81.125,-2.0937 -24.9684,2.0807 -30.57,3.8431 -56.8125,6.5 -28.6583,2.9015 -19.5931,12.3307 30.3438,10.25 170.6174,0 286.5442,147.6353 288.625,139.3125 2.0807,-8.3228 -6.248,-60.3492 -45.7813,-81.1562 -39.5333,-20.8071 -54.0883,-45.7865 -33.2813,-41.625 20.8071,4.1614 64.4973,35.3722 54.0938,24.9687 -10.4035,-10.4035 -60.331,-47.8413 -83.2188,-62.4063 -13.3195,-8.476 -30.1886,-19.053 -51.375,-27.6562 7.2141,0.3078 14.9565,0.2049 18.4376,-1.1875 7.3564,-2.9426 -25.006,-29.4063 -39.7188,-29.4063 z m 103.0312,48.4376 c -25.571,-0.204 -35.0811,4.9001 -26.5,5.25 9.8071,0.3997 18.4063,4.1874 18.4063,4.1874 60.444,15.2079 92.2915,48.6423 103.5,60.25 11.2086,11.6078 16.5885,2.7877 7.7813,-15.625 -8.8073,-18.4128 -56.8253,-51.4251 -91.25,-53.625 -4.3031,-0.2749 -8.2845,-0.4083 -11.9376,-0.4374 z m 151.6563,41.5312 c -2.6727,-0.068 -5.2011,0.3305 -7.5,1.25 -14.7128,5.8851 5.875,19.125 5.875,19.125 13.2415,13.2415 36.7837,20.5878 35.3125,5.875 -1.2414,-12.4138 -19.2551,-25.8814 -33.6875,-26.25 z m 64.3125,57.875 c -1.97954,0.044 -3.87786,0.2902 -5.625,0.75 -27.9543,7.3564 -5.88166,32.3819 16.1875,64.75 0.10044,0.1473 0.18264,0.2905 0.28125,0.4375 -10.57597,-1.0724 -21.61325,1.2566 -28.21875,9.8437 -9.7366,12.6577 0.4578,27.8964 -0.031,39.3126 -26.304,-7.3205 -60.4096,-17.0732 -66.1876,-8.4063 -5.8851,8.8277 -2.9374,16.1875 -2.9374,16.1875 69.15,102.9895 186.85887,41.1999 178.0312,-20.5938 -8.27593,-57.9315 -61.80686,-102.9439 -91.5,-102.2812 z m -126.4375,4.25 c -3.2663,0.053 -3.9134,2.1299 -1.3125,6.0312 8.3228,12.4843 22.875,22.875 22.875,22.875 45.7754,31.2106 66.5938,52.0313 66.5938,52.0313 0,0 2.0776,-18.727 -35.375,-49.9375 -25.7487,-21.4572 -45.5954,-31.1173 -52.7813,-31 z"
           transform="matrix(0.26458334,0,0,0.26458334,-1316.4441,-532.96619)"
           id="path3100" />
        <path
           id="path4051"
           transform="matrix(0.26458334,0,0,0.26458334,-1316.4441,-532.96619)"
           d="m -1306.5,-4214.7188 c -11.613,0 -25.0355,9.1526 -11.375,20.25 -6.3724,-1.4652 -13.021,-2.7146 -20,-3.625 -47.8561,-6.2421 -70.7524,-6.2421 -56.1875,0 14.5649,6.2422 75.6048,24.3346 87.375,47.875 0,0 -56.1566,-4.1744 -81.125,-2.0937 -24.9684,2.0807 -30.57,3.8431 -56.8125,6.5 -28.6583,2.9015 -19.5931,12.3307 30.3438,10.25 170.6174,0 286.5442,147.6353 288.625,139.3125 2.0807,-8.3228 -6.248,-60.3492 -45.7813,-81.1562 -39.5333,-20.8071 -54.0883,-45.7865 -33.2813,-41.625 20.8071,4.1614 64.4973,35.3722 54.0938,24.9687 -10.4035,-10.4035 -60.331,-47.8413 -83.2188,-62.4063 -13.3195,-8.476 -30.1886,-19.053 -51.375,-27.6562 7.2141,0.3078 14.9565,0.2049 18.4376,-1.1875 7.3564,-2.9426 -25.006,-29.4063 -39.7188,-29.4063 z m 103.0312,48.4376 c -25.571,-0.204 -35.0811,4.9001 -26.5,5.25 9.8071,0.3997 18.4063,4.1874 18.4063,4.1874 60.444,15.2079 92.2915,48.6423 103.5,60.25 11.2086,11.6078 16.5885,2.7877 7.7813,-15.625 -8.8073,-18.4128 -56.8253,-51.4251 -91.25,-53.625 -4.3031,-0.2749 -8.2845,-0.4083 -11.9376,-0.4374 z m 151.6563,41.5312 c -2.6727,-0.068 -5.2011,0.3305 -7.5,1.25 -14.7128,5.8851 5.875,19.125 5.875,19.125 13.2415,13.2415 36.7837,20.5878 35.3125,5.875 -1.2414,-12.4138 -19.2551,-25.8814 -33.6875,-26.25 z m 64.3125,57.875 c -1.97954,0.044 -3.87786,0.2902 -5.625,0.75 -27.9543,7.3564 -5.88166,32.3819 16.1875,64.75 0.10044,0.1473 0.18264,0.2905 0.28125,0.4375 -10.57597,-1.0724 -21.61325,1.2566 -28.21875,9.8437 -9.7366,12.6577 0.4578,27.8964 -0.031,39.3126 -26.304,-7.3205 -60.4096,-17.0732 -66.1876,-8.4063 -5.8851,8.8277 -2.9374,16.1875 -2.9374,16.1875 69.15,102.9895 186.85887,41.1999 178.0312,-20.5938 -8.27593,-57.9315 -61.80686,-102.9439 -91.5,-102.2812 z m -126.4375,4.25 c -3.2663,0.053 -3.9134,2.1299 -1.3125,6.0312 8.3228,12.4843 22.875,22.875 22.875,22.875 45.7754,31.2106 66.5938,52.0313 66.5938,52.0313 0,0 2.0776,-18.727 -35.375,-49.9375 -25.7487,-21.4572 -45.5954,-31.1173 -52.7813,-31 z"
           style="color:#000000;fill:#00ffff;stroke:none;stroke-width:10;marker:none;visibility:visible;display:inline;overflow:visible;filter:url(#filter4063);enable-background:accumulate"
           inkscape:connector-curvature="0" />
      </g>
      <path
         transform="matrix(0.26458334,0,0,0.26458334,-1316.4441,-532.96619)"
         inkscape:connector-curvature="0"
         id="path4119"
         d="m -7894.6968,-4188.2005 c 59.8201,18.2062 68.1429,53.0579 63.4613,50.457 -4.6815,-2.6009 -66.5824,-5.2017 -88.9499,-5.2017 -22.3675,0 -27.5693,1.5605 -24.9684,1.5605 2.6009,0 91.5508,7.2824 137.3262,31.2105 45.7754,23.928 107.6763,96.7525 105.5956,91.5508 -2.0807,-5.2018 -24.9684,-41.614 -33.2912,-48.8965 -8.3228,-7.2824 -48.3763,-36.4122 -68.143,-56.699 -19.7666,-20.2869 34.3316,-3.6413 32.2509,-5.722 -2.0807,-2.0807 -39.5333,-32.2508 -73.8649,-45.7754 -34.3315,-13.5245 -49.4166,-12.4842 -49.4166,-12.4842 z"
         style="color:#000000;fill:#ffffff;fill-opacity:1;fill-rule:nonzero;stroke:none;stroke-width:10;marker:none;visibility:visible;display:inline;overflow:visible;enable-background:accumulate" />
      <path
         transform="matrix(0.26458334,0,0,0.26458334,-1316.4441,-532.96619)"
         inkscape:connector-curvature="0"
         id="path4121"
         d="m -7859.3249,-4184.5593 c -16.6456,-15.085 -13.0044,-22.8877 -4.1614,-19.7666 8.843,3.121 19.7666,13.0044 14.5649,15.0851 -5.2018,2.0807 -10.4035,4.6815 -10.4035,4.6815 z"
         style="color:#000000;fill:#ffffff;fill-opacity:1;fill-rule:nonzero;stroke:none;stroke-width:10;marker:none;visibility:visible;display:inline;overflow:visible;enable-background:accumulate" />
      <path
         transform="matrix(0.26458334,0,0,0.26458334,-1316.4441,-532.96619)"
         inkscape:connector-curvature="0"
         id="path4123"
         d="m -7751.6487,-4158.5505 c 39.0132,11.964 71.264,47.8561 80.107,53.0579 8.843,5.2017 -3.1211,-11.9641 -18.7263,-23.4079 -15.6053,-11.4439 -48.3763,-27.5693 -55.6587,-29.1298 -7.2825,-1.5605 -5.722,-0.5202 -5.722,-0.5202 z"
         style="color:#000000;fill:#ffffff;fill-opacity:1;fill-rule:nonzero;stroke:none;stroke-width:10;marker:none;visibility:visible;display:inline;overflow:visible;enable-background:accumulate" />
      <path
         transform="matrix(0.26458334,0,0,0.26458334,-1316.4441,-532.96619)"
         inkscape:connector-curvature="0"
         id="path4125"
         d="m -7609.6409,-4116.9365 c -10.4035,0.5202 -5.7219,7.8026 2.0807,12.4842 7.8026,4.6816 19.7667,8.843 18.7263,5.2018 -1.0403,-3.6413 -10.9237,-13.0044 -15.6052,-16.6456 -4.6816,-3.6413 -5.2018,-1.0404 -5.2018,-1.0404 z"
         style="color:#000000;fill:#ffffff;fill-opacity:1;fill-rule:nonzero;stroke:none;stroke-width:10;marker:none;visibility:visible;display:inline;overflow:visible;enable-background:accumulate" />
      <path
         transform="matrix(0.26458334,0,0,0.26458334,-1316.4441,-532.96619)"
         inkscape:connector-curvature="0"
         id="path4127"
         d="m -7661.6584,-4046.1927 c 21.3272,6.7623 56.6991,46.8158 59.3,46.8158 2.6008,0 -33.8114,-36.9325 -45.2553,-43.6947 -11.4438,-6.7623 -16.6456,-9.8834 -16.6456,-7.8027 0,2.0807 2.6009,4.6816 2.6009,4.6816 z"
         style="color:#000000;fill:#ffffff;fill-opacity:1;fill-rule:nonzero;stroke:none;stroke-width:10;marker:none;visibility:visible;display:inline;overflow:visible;enable-background:accumulate" />
      <path
         transform="matrix(0.26458334,0,0,0.26458334,-1316.4441,-532.96619)"
         inkscape:connector-curvature="0"
         id="path4129"
         d="m -7611.2014,-3933.8349 c 35.8921,39.5333 99.8736,39.5333 124.842,2.6009 24.9684,-36.9324 0,-73.3447 -17.6859,-96.7526 -17.686,-23.4078 -41.614,-27.5692 -46.8158,-22.3675 -5.2017,5.2018 13.5246,38.493 21.8474,46.2956 8.3228,7.8026 28.6096,28.0894 25.4885,26.5289 -3.121,-1.5605 -15.6052,-22.3675 -42.6543,-4.6816 -27.0491,17.686 0.5202,44.7351 -1.5605,44.2149 -2.0807,-0.5202 -61.9009,-17.6859 -71.264,-13.5245 -9.3632,4.1614 7.8026,17.6859 7.8026,17.6859 z"
         style="color:#000000;fill:#ffffff;fill-opacity:1;fill-rule:nonzero;stroke:none;stroke-width:10;marker:none;visibility:visible;display:inline;overflow:visible;enable-background:accumulate" />
    </g>
    <g
       id="g4220"
       transform="matrix(0.47504062,0,0,0.47504062,-1191.5785,-926.48875)"
       inkscape:export-filename="C:\Users\rober\Desktop\assets\ASSETS_2019\electrical_effects\electric_slash_2\animations\electric_slash_two_03.png"
       inkscape:export-xdpi="90"
       inkscape:export-ydpi="90">
      <g
         id="g4034">
        <g
           id="g3974"
           transform="translate(-1400.0888,0)">
          <path
             inkscape:export-ydpi="90"
             inkscape:export-xdpi="90"
             inkscape:export-filename="C:\Users\rober\Desktop\assets\ASSETS_2019\electrical_effects\3.png"
             id="rect3956"
             d="m -1728.2321,-1682.2456 297.2801,0 0,285.1686 -297.2801,0 z"
             style="opacity:0;color:#000000;fill:#374548;fill-opacity:1;fill-rule:nonzero;stroke:none;stroke-width:10;marker:none;visibility:visible;display:inline;overflow:visible;enable-background:accumulate"
             inkscape:connector-curvature="0" />
          <path
             id="path3131"
             transform="matrix(0.26458334,0,0,0.26458334,-1316.4441,-532.96619)"
             d="m -1161.9688,-4141.7188 c -7.5901,-0.1503 23.0096,17.1002 37.9063,27.0313 17.6553,11.7702 17.6705,25.0228 -8.8125,11.7813 -26.483,-13.2416 -114.7753,-50.0254 -100.0625,-35.3126 14.7128,14.7128 86.8051,51.4902 145.6563,111.8126 58.8511,60.3224 79.4551,101.5227 69.1562,88.2812 -10.299,-13.2415 -148.6084,-144.1918 -231,-178.0312 -82.3915,-33.8395 -91.2053,-25.0127 -80.9062,-17.6563 10.2989,7.3564 29.4374,22.0937 29.4374,22.0937 108.475,57.9524 192.7311,128.7357 257.8438,199.3438 -7.0173,-2.8793 -13.9827,-5.7004 -19.5,-9.5625 -14.7127,-10.2989 -64.7391,-42.679 -52.9688,-29.4375 11.7703,13.2415 30.875,32.375 30.875,32.375 52.9661,32.3681 111.82771,117.6916 103.00005,97.0938 -4.66419,-10.8832 -10.97358,-25.4061 -17.1875,-39.125 96.83188,120.4503 140.10282,230.8894 155.5,264.25 18.68727,40.489 23.41619,35.5285 20.46875,7.4062 9.13062,23.1936 -8.15854,28.2091 -16.0625,30.8438 -8.82767,2.9426 -32.36237,8.8115 -39.71875,-8.8438 -7.35639,-17.6553 -14.71875,-8.8125 -14.71875,-8.8125 7.35638,100.0468 97.11513,125.0531 157.4375,94.1563 60.32237,-30.8969 47.07513,-129.4545 39.71875,-155.9376 -7.35639,-26.483 -33.16866,-32.3313 -30.90625,2.9376 1.39941,21.8154 -14.72474,32.3648 -29.4375,38.25 -21.89939,8.7598 -38.23071,-72.1098 -67.65625,-80.9376 -6.43684,-1.931 -11.0411,-0.6849 -14.125,2.75 -11.81414,-51.315 -31.23692,-108.4133 -80.03125,-179.2812 -61.79365,-89.748 -83.8817,-102.9914 -61.8125,-89.75 22.06916,13.2415 82.40878,101.5228 80.9375,88.2812 -1.47128,-13.2415 -44.16155,-111.8363 -95.65625,-170.6874 -51.49465,-58.8512 -130.92065,-104.4537 -158.87505,-113.2813 -4.3678,-1.3793 -7.0944,-2.0034 -8.5,-2.0313 z m 217.2813,163.9688 c -1.40051,-0.04 -1.48421,0.9127 0.125,2.8438 7.35638,8.8277 26.5,26.4687 26.5,26.4687 14.14889,18.6169 20.33333,37.967 24.375,52.75 -20.3451,-23.3618 -36.68237,-36.5031 -30.28125,-29.1875 10.29894,11.7702 25.03125,48.5312 25.03125,48.5312 51.4947,73.564 73.55492,183.9291 77.96875,170.6876 4.41384,-13.2416 -5.88696,-86.8178 -35.3125,-138.3126 -4.78846,-8.3798 -10.09707,-16.4745 -15.5625,-24.125 9.57401,2.3153 19.53906,4.75 18.5,0.5938 -1.47127,-5.8851 -14.70198,-39.7256 -42.65625,-72.0938 -21.83927,-25.2875 -43.68566,-38.0125 -48.6875,-38.1562 z m 89.53125,120.9688 c -8.16674,0.1609 3.11343,17.2323 12.125,27.5312 10.29895,11.7702 11.75,20.5938 11.75,20.5938 17.65533,25.0117 36.79894,35.3141 26.5,16.1874 -10.29894,-19.1266 -29.44095,-57.3648 -45.625,-63.25 -2.02301,-0.7356 -3.58332,-1.0854 -4.75,-1.0624 z m 64.21875,86.3437 c -17.53116,-0.2451 5.28125,36.8125 5.28125,36.8125 17.65532,55.9085 63.25,67.6916 63.25,47.0938 0,-20.598 -48.52965,-82.4038 -67.65625,-83.875 -0.29885,-0.023 -0.59673,-0.027 -0.875,-0.031 z m -122.28125,69.0937 c -6.31403,0.1965 -6.34375,11.875 -6.34375,11.875 5.88511,45.6097 26.48989,66.2103 32.375,52.9688 5.88511,-13.2415 -5.8835,-51.5135 -19.125,-61.8125 -2.89658,-2.2529 -5.13832,-3.0863 -6.90625,-3.0313 z"
             style="color:#000000;fill:#00ffff;fill-opacity:1;fill-rule:nonzero;stroke:none;stroke-width:10;marker:none;visibility:visible;display:inline;overflow:visible;enable-background:accumulate"
             inkscape:connector-curvature="0" />
          <path
             inkscape:connector-curvature="0"
             style="color:#000000;fill:#00ffff;fill-opacity:1;fill-rule:nonzero;stroke:none;stroke-width:10;marker:none;visibility:visible;display:inline;overflow:visible;filter:url(#filter4067);enable-background:accumulate"
             d="m -1161.9688,-4141.7188 c -7.5901,-0.1503 23.0096,17.1002 37.9063,27.0313 17.6553,11.7702 17.6705,25.0228 -8.8125,11.7813 -26.483,-13.2416 -114.7753,-50.0254 -100.0625,-35.3126 14.7128,14.7128 86.8051,51.4902 145.6563,111.8126 58.8511,60.3224 79.4551,101.5227 69.1562,88.2812 -10.299,-13.2415 -148.6084,-144.1918 -231,-178.0312 -82.3915,-33.8395 -91.2053,-25.0127 -80.9062,-17.6563 10.2989,7.3564 29.4374,22.0937 29.4374,22.0937 108.475,57.9524 192.7311,128.7357 257.8438,199.3438 -7.0173,-2.8793 -13.9827,-5.7004 -19.5,-9.5625 -14.7127,-10.2989 -64.7391,-42.679 -52.9688,-29.4375 11.7703,13.2415 30.875,32.375 30.875,32.375 52.9661,32.3681 111.82771,117.6916 103.00005,97.0938 -4.66419,-10.8832 -10.97358,-25.4061 -17.1875,-39.125 96.83188,120.4503 140.10282,230.8894 155.5,264.25 18.68727,40.489 23.41619,35.5285 20.46875,7.4062 9.13062,23.1936 -8.15854,28.2091 -16.0625,30.8438 -8.82767,2.9426 -32.36237,8.8115 -39.71875,-8.8438 -7.35639,-17.6553 -14.71875,-8.8125 -14.71875,-8.8125 7.35638,100.0468 97.11513,125.0531 157.4375,94.1563 60.32237,-30.8969 47.07513,-129.4545 39.71875,-155.9376 -7.35639,-26.483 -33.16866,-32.3313 -30.90625,2.9376 1.39941,21.8154 -14.72474,32.3648 -29.4375,38.25 -21.89939,8.7598 -38.23071,-72.1098 -67.65625,-80.9376 -6.43684,-1.931 -11.0411,-0.6849 -14.125,2.75 -11.81414,-51.315 -31.23692,-108.4133 -80.03125,-179.2812 -61.79365,-89.748 -83.8817,-102.9914 -61.8125,-89.75 22.06916,13.2415 82.40878,101.5228 80.9375,88.2812 -1.47128,-13.2415 -44.16155,-111.8363 -95.65625,-170.6874 -51.49465,-58.8512 -130.92065,-104.4537 -158.87505,-113.2813 -4.3678,-1.3793 -7.0944,-2.0034 -8.5,-2.0313 z m 217.2813,163.9688 c -1.40051,-0.04 -1.48421,0.9127 0.125,2.8438 7.35638,8.8277 26.5,26.4687 26.5,26.4687 14.14889,18.6169 20.33333,37.967 24.375,52.75 -20.3451,-23.3618 -36.68237,-36.5031 -30.28125,-29.1875 10.29894,11.7702 25.03125,48.5312 25.03125,48.5312 51.4947,73.564 73.55492,183.9291 77.96875,170.6876 4.41384,-13.2416 -5.88696,-86.8178 -35.3125,-138.3126 -4.78846,-8.3798 -10.09707,-16.4745 -15.5625,-24.125 9.57401,2.3153 19.53906,4.75 18.5,0.5938 -1.47127,-5.8851 -14.70198,-39.7256 -42.65625,-72.0938 -21.83927,-25.2875 -43.68566,-38.0125 -48.6875,-38.1562 z m 89.53125,120.9688 c -8.16674,0.1609 3.11343,17.2323 12.125,27.5312 10.29895,11.7702 11.75,20.5938 11.75,20.5938 17.65533,25.0117 36.79894,35.3141 26.5,16.1874 -10.29894,-19.1266 -29.44095,-57.3648 -45.625,-63.25 -2.02301,-0.7356 -3.58332,-1.0854 -4.75,-1.0624 z m 64.21875,86.3437 c -17.53116,-0.2451 5.28125,36.8125 5.28125,36.8125 17.65532,55.9085 63.25,67.6916 63.25,47.0938 0,-20.598 -48.52965,-82.4038 -67.65625,-83.875 -0.29885,-0.023 -0.59673,-0.027 -0.875,-0.031 z m -122.28125,69.0937 c -6.31403,0.1965 -6.34375,11.875 -6.34375,11.875 5.88511,45.6097 26.48989,66.2103 32.375,52.9688 5.88511,-13.2415 -5.8835,-51.5135 -19.125,-61.8125 -2.89658,-2.2529 -5.13832,-3.0863 -6.90625,-3.0313 z"
             transform="matrix(0.26458334,0,0,0.26458334,-1316.4441,-532.96619)"
             id="path4055" />
        </g>
      </g>
      <path
         transform="matrix(0.26458334,0,0,0.26458334,-1316.4441,-532.96619)"
         inkscape:connector-curvature="0"
         id="path4131"
         d="m -6567.7302,-4116.9365 c 237.1998,114.4385 374.526,356.8401 396.3734,405.7366 21.8473,48.8964 65.542,127.963 55.1385,107.156 -10.4035,-20.807 -30.1701,-115.4788 -89.4701,-207.0297 -59.3,-91.5508 -148.7701,-160.2139 -162.2946,-170.6174 -13.5246,-10.4035 -199.7472,-135.2455 -199.7472,-135.2455 z"
         style="color:#000000;fill:#ffffff;fill-opacity:1;fill-rule:nonzero;stroke:none;stroke-width:10;marker:none;visibility:visible;display:inline;overflow:visible;enable-background:accumulate" />
      <path
         transform="matrix(0.26458334,0,0,0.26458334,-1316.4441,-532.96619)"
         inkscape:connector-curvature="0"
         id="path4133"
         d="m -6473.0584,-4112.7751 c 150.8508,74.9052 185.1823,185.1823 203.9086,216.3928 18.7263,31.2105 43.6947,78.0263 20.807,30.1702 -22.8877,-47.8561 -59.2999,-133.1648 -99.8736,-174.7788 -40.5736,-41.614 -124.842,-71.7842 -124.842,-71.7842 z"
         style="color:#000000;fill:#ffffff;fill-opacity:1;fill-rule:nonzero;stroke:none;stroke-width:10;marker:none;visibility:visible;display:inline;overflow:visible;enable-background:accumulate" />
      <path
         transform="matrix(0.26458334,0,0,0.26458334,-1316.4441,-532.96619)"
         inkscape:connector-curvature="0"
         id="path4135"
         d="m -6391.9111,-4096.1295 c 56.1789,45.7754 52.0175,69.7035 58.2596,75.9456 6.2421,6.2421 52.0175,44.735 80.107,73.8648 28.0894,29.1298 41.614,57.2193 34.3315,42.6544 -7.2824,-14.5649 -58.2596,-109.2368 -104.035,-145.649 -45.7754,-36.4123 -68.6631,-46.8158 -68.6631,-46.8158 z"
         style="color:#000000;fill:#ffffff;fill-opacity:1;fill-rule:nonzero;stroke:none;stroke-width:10;marker:none;visibility:visible;display:inline;overflow:visible;enable-background:accumulate" />
      <path
         transform="matrix(0.26458334,0,0,0.26458334,-1316.4441,-532.96619)"
         inkscape:connector-curvature="0"
         id="path4137"
         d="m -6355.4988,-3911.9875 c 52.0175,29.1298 60.3403,56.1789 58.2596,49.9368 -2.0807,-6.2421 -9.3632,-29.1298 -12.4842,-37.4526 -3.1211,-8.3228 -45.7754,-12.4842 -45.7754,-12.4842 z"
         style="color:#000000;fill:#ffffff;fill-opacity:1;fill-rule:nonzero;stroke:none;stroke-width:10;marker:none;visibility:visible;display:inline;overflow:visible;enable-background:accumulate" />
      <path
         transform="matrix(0.26458334,0,0,0.26458334,-1316.4441,-532.96619)"
         inkscape:connector-curvature="0"
         id="path4139"
         d="m -6185.9218,-3893.2612 c 26.0088,48.8964 48.8965,109.2367 59.3,132.1244 10.4035,22.8877 -14.5649,-35.3719 -22.8877,-59.2999 -8.3228,-23.9281 -32.2508,-72.8245 -26.0087,-67.6228 6.2421,5.2018 15.6052,16.6456 13.5245,8.3228 -2.0807,-8.3228 -18.7263,-35.3719 -29.1298,-54.0982 -10.4035,-18.7263 -2.0807,-5.2017 6.2421,16.6456 8.3228,21.8474 6.2421,20.807 6.2421,20.807 z"
         style="color:#000000;fill:#ffffff;fill-opacity:1;fill-rule:nonzero;stroke:none;stroke-width:10;marker:none;visibility:visible;display:inline;overflow:visible;enable-background:accumulate" />
      <path
         transform="matrix(0.26458334,0,0,0.26458334,-1316.4441,-532.96619)"
         inkscape:connector-curvature="0"
         id="path4141"
         d="m -6065.2411,-3737.2087 c 18.7263,32.2509 23.928,44.7351 34.3315,46.8158 10.4035,2.0807 -12.4842,-32.2509 -21.8473,-42.6544 -9.3632,-10.4035 -12.4842,-4.1614 -12.4842,-4.1614 z"
         style="color:#000000;fill:#ffffff;fill-opacity:1;fill-rule:nonzero;stroke:none;stroke-width:10;marker:none;visibility:visible;display:inline;overflow:visible;enable-background:accumulate" />
      <path
         transform="matrix(0.26458334,0,0,0.26458334,-1316.4441,-532.96619)"
         inkscape:connector-curvature="0"
         id="path4143"
         d="m -6133.9042,-3841.2437 c 13.5245,15.6052 11.4438,32.2508 19.7666,36.4122 8.3228,4.1614 3.1211,-2.0807 -3.121,-13.5245 -6.2421,-11.4439 -16.6456,-22.8877 -16.6456,-22.8877 z"
         style="color:#000000;fill:#ffffff;fill-opacity:1;fill-rule:nonzero;stroke:none;stroke-width:10;marker:none;visibility:visible;display:inline;overflow:visible;enable-background:accumulate" />
      <path
         transform="matrix(0.26458334,0,0,0.26458334,-1316.4441,-532.96619)"
         inkscape:connector-curvature="0"
         id="path4145"
         d="m -6150.5498,-3534.3404 c 70.7438,66.5824 116.5192,46.8157 139.4069,-1.0404 22.8877,-47.8561 6.2421,-106.1157 7.2824,-96.7525 1.0404,9.3631 7.2825,23.928 -22.8877,43.6947 -30.1701,19.7666 -49.9368,8.3228 -67.6227,-27.0491 -17.686,-35.3719 -32.2509,-31.2105 -21.8474,-14.5649 10.4035,16.6456 31.2105,42.6543 21.8474,76.9859 -9.3632,34.3315 -56.1789,18.7263 -56.1789,18.7263 z"
         style="color:#000000;fill:#ffffff;fill-opacity:1;fill-rule:nonzero;stroke:none;stroke-width:10;marker:none;visibility:visible;display:inline;overflow:visible;enable-background:accumulate" />
    </g>
    <g
       id="g4209"
       transform="matrix(0.47504062,0,0,0.47504062,-1210.1178,-926.48875)"
       inkscape:export-filename="C:\Users\rober\Desktop\assets\ASSETS_2019\electrical_effects\electric_slash_2\animations\electric_slash_two_04.png"
       inkscape:export-xdpi="90"
       inkscape:export-ydpi="90">
      <g
         id="g4029">
        <g
           id="g3979"
           transform="translate(-1063.7819,0)">
          <path
             inkscape:export-ydpi="90"
             inkscape:export-xdpi="90"
             inkscape:export-filename="C:\Users\rober\Desktop\assets\ASSETS_2019\electrical_effects\4.png"
             id="rect3958"
             d="m -1728.2321,-1682.2456 297.2801,0 0,285.1686 -297.2801,0 z"
             style="opacity:0;color:#000000;fill:#374548;fill-opacity:1;fill-rule:nonzero;stroke:none;stroke-width:10;marker:none;visibility:visible;display:inline;overflow:visible;enable-background:accumulate"
             inkscape:connector-curvature="0" />
          <path
             id="path3148"
             transform="matrix(0.26458334,0,0,0.26458334,-1316.4441,-532.96619)"
             d="m -1107.2188,-4104.125 c -2.1649,-0.096 -3.5498,0.4496 -3.875,1.75 -2.0807,8.3228 10.4063,22.9062 10.4063,22.9062 33.2912,29.1299 62.4217,33.2758 49.9375,12.4688 -10.5335,-17.5559 -44.778,-36.6038 -56.4688,-37.125 z m -105.4687,22.4375 c -10.2409,0 -14.9375,10.5313 -14.9375,10.5313 54.0982,37.4526 45.7888,6.2342 27.0625,-6.25 -4.6816,-3.1211 -8.7114,-4.2813 -12.125,-4.2813 z m 198.625,17.3437 c -0.2786,0.085 -0.047,0.5898 0.75,1.5 49.87555,63.7269 128.853,177.1185 158.1875,226.6563 56.47303,95.3672 80.16089,197.2504 62.75,164.75 -31.21051,-58.2596 -58.81935,-176.1113 -207.75,-309.4063 -74.4359,-66.6211 -97.614,-49.3982 -56,-18.1874 41.614,31.2105 86.51615,77.6806 123.96875,146.3437 37.45261,68.6631 94.46906,170.3154 105.125,236.375 2.52348,15.6439 -103.02715,-213.4777 -182.09375,-294.625 -79.0666,-81.1473 -133.1875,-99.875 -133.1875,-99.875 240.76179,155.2739 315.48539,430.1924 333.34375,543.4063 -7.34487,-13.5029 -33.7153,-30.4998 -46.25,-48.5 -21.27008,-30.5446 -18.59804,-12.28 -2.28125,24.0624 14.51287,32.3247 55.1456,95.3775 38.5,80.8126 -16.6456,-14.565 -102.75035,-83.7789 -127.71875,-98.3438 -24.9684,-14.5649 70.75035,128.9976 95.71875,143.5625 20.84152,19.7861 163.37126,33.4392 198.5,-13.0937 16.64561,-24.9685 65.5285,-79.3675 55.125,-98.0938 -10.40351,-18.7265 -52.61834,84.3066 -74.6875,69.5938 0,0 23.75889,-87.4783 32.125,-131.4688 3.03792,-15.9739 -30.78523,40.2042 -65.6875,94.7188 -8.69518,-91.831 -32.77482,-241.8778 -80.875,-348.2813 -64.37167,-142.3979 -220.1827,-271.3497 -227.4062,-271.9063 -0.06,0 -0.1165,-0.012 -0.1563,0 z"
             style="color:#000000;fill:#00ffff;fill-opacity:1;fill-rule:nonzero;stroke:none;stroke-width:10;marker:none;visibility:visible;display:inline;overflow:visible;enable-background:accumulate"
             inkscape:connector-curvature="0" />
          <path
             inkscape:connector-curvature="0"
             style="color:#000000;fill:#00ffff;fill-opacity:1;fill-rule:nonzero;stroke:none;stroke-width:10;marker:none;visibility:visible;display:inline;overflow:visible;filter:url(#filter4071);enable-background:accumulate"
             d="m -1107.2188,-4104.125 c -2.1649,-0.096 -3.5498,0.4496 -3.875,1.75 -2.0807,8.3228 10.4063,22.9062 10.4063,22.9062 33.2912,29.1299 62.4217,33.2758 49.9375,12.4688 -10.5335,-17.5559 -44.778,-36.6038 -56.4688,-37.125 z m -105.4687,22.4375 c -10.2409,0 -14.9375,10.5313 -14.9375,10.5313 54.0982,37.4526 45.7888,6.2342 27.0625,-6.25 -4.6816,-3.1211 -8.7114,-4.2813 -12.125,-4.2813 z m 198.625,17.3437 c -0.2786,0.085 -0.047,0.5898 0.75,1.5 49.87555,63.7269 128.853,177.1185 158.1875,226.6563 56.47303,95.3672 80.16089,197.2504 62.75,164.75 -31.21051,-58.2596 -58.81935,-176.1113 -207.75,-309.4063 -74.4359,-66.6211 -97.614,-49.3982 -56,-18.1874 41.614,31.2105 86.51615,77.6806 123.96875,146.3437 37.45261,68.6631 94.46906,170.3154 105.125,236.375 2.52348,15.6439 -103.02715,-213.4777 -182.09375,-294.625 -79.0666,-81.1473 -133.1875,-99.875 -133.1875,-99.875 240.76179,155.2739 315.48539,430.1924 333.34375,543.4063 -7.34487,-13.5029 -33.7153,-30.4998 -46.25,-48.5 -21.27008,-30.5446 -18.59804,-12.28 -2.28125,24.0624 14.51287,32.3247 55.1456,95.3775 38.5,80.8126 -16.6456,-14.565 -102.75035,-83.7789 -127.71875,-98.3438 -24.9684,-14.5649 70.75035,128.9976 95.71875,143.5625 20.84152,19.7861 163.37126,33.4392 198.5,-13.0937 16.64561,-24.9685 65.5285,-79.3675 55.125,-98.0938 -10.40351,-18.7265 -52.61834,84.3066 -74.6875,69.5938 0,0 23.75889,-87.4783 32.125,-131.4688 3.03792,-15.9739 -30.78523,40.2042 -65.6875,94.7188 -8.69518,-91.831 -32.77482,-241.8778 -80.875,-348.2813 -64.37167,-142.3979 -220.1827,-271.3497 -227.4062,-271.9063 -0.06,0 -0.1165,-0.012 -0.1563,0 z"
             transform="matrix(0.26458334,0,0,0.26458334,-1316.4441,-532.96619)"
             id="path4057" />
        </g>
      </g>
      <path
         transform="matrix(0.26458334,0,0,0.26458334,-1316.4441,-532.96619)"
         inkscape:connector-curvature="0"
         id="path4147"
         d="m -5000.8713,-3946.951 c 153.0128,219.2203 170.6681,322.2097 197.1511,394.3023 26.483,72.0926 38.2532,176.5533 45.6096,158.8979 7.3564,-17.6553 -38.2532,-188.3235 -54.4372,-239.8182 -16.1841,-51.4947 -110.3458,-216.2777 -145.6565,-263.3586 -35.3106,-47.0809 -42.667,-50.0234 -42.667,-50.0234 z"
         style="color:#000000;fill:#ffffff;fill-opacity:1;fill-rule:nonzero;stroke:none;stroke-width:10;marker:none;visibility:visible;display:inline;overflow:visible;enable-background:accumulate" />
      <path
         transform="matrix(0.26458334,0,0,0.26458334,-1316.4441,-532.96619)"
         inkscape:connector-curvature="0"
         id="path4149"
         d="m -4974.3883,-4001.3883 c 201.565,260.4161 179.4958,335.4512 207.4501,454.6247 27.9542,119.1735 10.2989,169.1969 16.184,157.4267 5.8851,-11.7703 -4.4138,-205.9788 -50.0234,-354.5778 -45.6096,-148.599 -173.6107,-257.4736 -173.6107,-257.4736 z"
         style="color:#000000;fill:#ffffff;fill-opacity:1;fill-rule:nonzero;stroke:none;stroke-width:10;marker:none;visibility:visible;display:inline;overflow:visible;enable-background:accumulate" />
      <path
         transform="matrix(0.26458334,0,0,0.26458334,-1316.4441,-532.96619)"
         inkscape:connector-curvature="0"
         id="path4151"
         d="m -4853.7436,-3608.5572 c 50.0234,116.2309 55.9085,256.0022 61.7936,233.933 5.8852,-22.0691 -5.8851,-102.9894 -14.7127,-151.5415 -8.8277,-48.5522 -20.5979,-76.5064 -17.6553,-57.3798 2.9425,19.1266 10.2989,86.8053 4.4138,61.7936 -5.8851,-25.0117 -30.8968,-77.9777 -33.8394,-86.8053 z"
         style="color:#000000;fill:#ffffff;fill-opacity:1;fill-rule:nonzero;stroke:none;stroke-width:10;marker:none;visibility:visible;display:inline;overflow:visible;enable-background:accumulate" />
      <path
         transform="matrix(0.26458334,0,0,0.26458334,-1316.4441,-532.96619)"
         inkscape:connector-curvature="0"
         id="path4153"
         d="m -4931.7213,-3467.3146 c 45.6096,58.8511 61.7937,80.9202 72.0926,86.8053 10.2989,5.8851 58.8511,27.9543 120.6447,14.7128 61.7937,-13.2415 69.1501,-26.483 76.5064,-38.2532 7.3564,-11.7702 10.299,-5.8851 -10.2989,5.8851 -20.5979,11.7702 -45.6096,20.5979 -45.6096,7.3564 0,-13.2415 32.3681,-82.3915 22.0692,-66.2075 -10.299,16.1841 -30.8969,32.3681 -44.1383,36.7819 -13.2415,4.4139 -20.5979,2.9426 -39.7245,-42.667 -19.1266,-45.6096 -5.8851,7.3564 -7.3564,44.1383 -1.4713,36.782 -72.0926,-76.5064 -70.6213,-66.2075 1.4713,10.299 19.1266,50.0235 33.8394,67.6788 14.7127,17.6553 33.8393,38.2532 26.4829,36.7819 -7.3563,-1.4712 -36.7819,-7.3564 -70.6213,-35.3106 -33.8393,-27.9543 -63.2649,-51.4947 -63.2649,-51.4947 z"
         style="color:#000000;fill:#ffffff;fill-opacity:1;fill-rule:nonzero;stroke:none;stroke-width:10;marker:none;visibility:visible;display:inline;overflow:visible;enable-background:accumulate" />
    </g>
    <g
       id="g4183"
       transform="matrix(0.47504062,0,0,0.47504062,-1228.6571,-926.48875)"
       inkscape:export-filename="C:\Users\rober\Desktop\assets\ASSETS_2019\electrical_effects\electric_slash_2\animations\electric_slash_two_05.png"
       inkscape:export-xdpi="90"
       inkscape:export-ydpi="90">
      <g
         id="g4039">
        <g
           id="g3984"
           transform="translate(-727.47507,0)">
          <path
             inkscape:export-ydpi="90"
             inkscape:export-xdpi="90"
             inkscape:export-filename="C:\Users\rober\Desktop\assets\ASSETS_2019\electrical_effects\5.png"
             id="rect3960"
             d="m -1728.2321,-1682.2456 297.2801,0 0,285.1686 -297.2801,0 z"
             style="opacity:0;color:#000000;fill:#374548;fill-opacity:1;fill-rule:nonzero;stroke:none;stroke-width:10;marker:none;visibility:visible;display:inline;overflow:visible;enable-background:accumulate"
             inkscape:connector-curvature="0" />
          <path
             id="path3159"
             transform="matrix(0.26458334,0,0,0.26458334,-1316.4441,-532.96619)"
             d="m -791.6875,-3694.9375 c -8.48042,0.2081 -10.20154,21.2127 -7.46875,27.625 2.33371,58.25 12.5451,69.7034 17.34375,45.1563 2.54437,-13.0156 11.511,-55.2781 -2.90625,-69.1563 -2.70323,-2.6022 -5.01173,-3.673 -6.96875,-3.625 z m -113.53125,63.75 c -2.12099,0.053 -4.25653,4.0719 -2.375,10.3437 6.33781,26.4076 32.39422,69.2646 33.6875,55.5938 1.1204,-11.8434 -28.05278,-53.8567 -28.28125,-59.9375 -0.15869,-4.2234 -1.58005,-6.0365 -3.03125,-6 z m 273.09375,10.6563 c -2.81221,-0.2381 -8.5625,7.125 -8.5625,7.125 -16.18405,30.8969 -28.2415,65.1764 -15,53.4062 13.24149,-11.7702 22.62408,-41.107 24.75,-54.0938 0.76178,-4.6535 0.0908,-6.3293 -1.1875,-6.4374 z m -155.75,40.4687 c -3.07236,1.5942 -0.56519,83.4111 6.5625,145.9063 -34.88834,-17.2667 -100.46565,-44.0979 -117.625,-53.75 -21.3557,-12.0127 54.04982,37.6799 104.5,72.2812 -5.08214,7.6029 -7.40625,14.5312 -7.40625,14.5312 -83.8628,33.8395 -185.37913,92.6664 -164.78125,86.7813 20.59788,-5.8851 173.59375,-66.1875 173.59375,-66.1875 -3.39942,18.6968 43.55106,26.1398 60.34375,7.3438 0.24069,-0.1205 0.40141,-0.1991 0.625,-0.3126 10.84462,3.5079 200.51811,64.7985 186.21875,56.2188 -14.71278,-8.8276 -177.30871,-65.6382 -178.03125,-75.0312 -0.5726,-7.444 -1.57808,-13.7131 -3.03125,-18.9688 8.55441,-1.9311 41.38795,-9.3432 53.0625,-11.9375 12.24163,-2.7204 -27.0611,-5.4235 -60.96875,-4.6563 6.20054,-12.4196 42.32231,-84.8213 47.71875,-98.3124 5.59379,-13.9847 -41.94526,42.4593 -71.9375,87.25 -7.9671,-42.6513 -24.74718,-131.2946 -28.09375,-140.2188 -0.27586,-0.7356 -0.53125,-1.051 -0.75,-0.9375 z m -234.2812,17.0313 c -0.6496,0.024 -1.263,0.1739 -1.8438,0.4062 -9.2923,3.7169 0.6195,16.6875 31.59375,37.75 11.77022,4.9559 8.8511,3.7813 2.65625,-6.75 -5.80768,-9.873 -22.6634,-31.7735 -32.4062,-31.4062 z m 462.12495,52.1562 c -4.68913,0.2009 -17.53125,8.5312 -17.53125,8.5312 -25.62022,17.518 -35.28012,39.1406 -20.8125,28.5 15.372,-11.3057 37.48519,-30.1567 38.84375,-32.5624 1.91959,-3.3992 1.33488,-4.5474 -0.5,-4.4688 z m 81.59375,80.5312 c -7.6407,0.097 -19.4375,3.75 -19.4375,3.75 -43.65583,7.1427 -64.55471,15.6426 -45.375,15.2813 19.17969,-0.3614 65.78118,-2.9988 70.65625,-13.8125 1.82815,-4.0551 -1.25933,-5.2766 -5.84375,-5.2188 z m -532.8437,31.4688 c -0.628,0.012 -0.9688,0.031 -0.9688,0.031 -47.0809,1.4714 -44.5455,15.4013 -18.0625,18.3438 26.4829,2.9426 62.50312,-7.9032 54.84375,-11.7812 -13.01981,-6.592 -31.41685,-6.6756 -35.81245,-6.5938 z"
             style="color:#000000;fill:#00ffff;fill-opacity:1;fill-rule:nonzero;stroke:none;stroke-width:10;marker:none;visibility:visible;display:inline;overflow:visible;enable-background:accumulate"
             inkscape:connector-curvature="0" />
          <path
             inkscape:connector-curvature="0"
             style="color:#000000;fill:#00ffff;fill-opacity:1;fill-rule:nonzero;stroke:none;stroke-width:10;marker:none;visibility:visible;display:inline;overflow:visible;filter:url(#filter4077);enable-background:accumulate"
             d="m -791.6875,-3694.9375 c -8.48042,0.2081 -10.20154,21.2127 -7.46875,27.625 2.33371,58.25 12.5451,69.7034 17.34375,45.1563 2.54437,-13.0156 11.511,-55.2781 -2.90625,-69.1563 -2.70323,-2.6022 -5.01173,-3.673 -6.96875,-3.625 z m -113.53125,63.75 c -2.12099,0.053 -4.25653,4.0719 -2.375,10.3437 6.33781,26.4076 32.39422,69.2646 33.6875,55.5938 1.1204,-11.8434 -28.05278,-53.8567 -28.28125,-59.9375 -0.15869,-4.2234 -1.58005,-6.0365 -3.03125,-6 z m 273.09375,10.6563 c -2.81221,-0.2381 -8.5625,7.125 -8.5625,7.125 -16.18405,30.8969 -28.2415,65.1764 -15,53.4062 13.24149,-11.7702 22.62408,-41.107 24.75,-54.0938 0.76178,-4.6535 0.0908,-6.3293 -1.1875,-6.4374 z m -155.75,40.4687 c -3.07236,1.5942 -0.56519,83.4111 6.5625,145.9063 -34.88834,-17.2667 -100.46565,-44.0979 -117.625,-53.75 -21.3557,-12.0127 54.04982,37.6799 104.5,72.2812 -5.08214,7.6029 -7.40625,14.5312 -7.40625,14.5312 -83.8628,33.8395 -185.37913,92.6664 -164.78125,86.7813 20.59788,-5.8851 173.59375,-66.1875 173.59375,-66.1875 -3.39942,18.6968 43.55106,26.1398 60.34375,7.3438 0.24069,-0.1205 0.40141,-0.1991 0.625,-0.3126 10.84462,3.5079 200.51811,64.7985 186.21875,56.2188 -14.71278,-8.8276 -177.30871,-65.6382 -178.03125,-75.0312 -0.5726,-7.444 -1.57808,-13.7131 -3.03125,-18.9688 8.55441,-1.9311 41.38795,-9.3432 53.0625,-11.9375 12.24163,-2.7204 -27.0611,-5.4235 -60.96875,-4.6563 6.20054,-12.4196 42.32231,-84.8213 47.71875,-98.3124 5.59379,-13.9847 -41.94526,42.4593 -71.9375,87.25 -7.9671,-42.6513 -24.74718,-131.2946 -28.09375,-140.2188 -0.27586,-0.7356 -0.53125,-1.051 -0.75,-0.9375 z m -234.2812,17.0313 c -0.6496,0.024 -1.263,0.1739 -1.8438,0.4062 -9.2923,3.7169 0.6195,16.6875 31.59375,37.75 11.77022,4.9559 8.8511,3.7813 2.65625,-6.75 -5.80768,-9.873 -22.6634,-31.7735 -32.4062,-31.4062 z m 462.12495,52.1562 c -4.68913,0.2009 -17.53125,8.5312 -17.53125,8.5312 -25.62022,17.518 -35.28012,39.1406 -20.8125,28.5 15.372,-11.3057 37.48519,-30.1567 38.84375,-32.5624 1.91959,-3.3992 1.33488,-4.5474 -0.5,-4.4688 z m 81.59375,80.5312 c -7.6407,0.097 -19.4375,3.75 -19.4375,3.75 -43.65583,7.1427 -64.55471,15.6426 -45.375,15.2813 19.17969,-0.3614 65.78118,-2.9988 70.65625,-13.8125 1.82815,-4.0551 -1.25933,-5.2766 -5.84375,-5.2188 z m -532.8437,31.4688 c -0.628,0.012 -0.9688,0.031 -0.9688,0.031 -47.0809,1.4714 -44.5455,15.4013 -18.0625,18.3438 26.4829,2.9426 62.50312,-7.9032 54.84375,-11.7812 -13.01981,-6.592 -31.41685,-6.6756 -35.81245,-6.5938 z"
             transform="matrix(0.26458334,0,0,0.26458334,-1316.4441,-532.96619)"
             id="path4075" />
        </g>
        <path
           style="color:#000000;fill:#00ffff;fill-opacity:1;fill-rule:nonzero;stroke:none;stroke-width:10;marker:none;visibility:visible;display:inline;overflow:visible;enable-background:accumulate"
           d="m -3635.1875,-3806.6875 c -5.2744,0.6815 22.1888,52.463 53.5937,157.4375 -17.8215,-37.8162 -35.975,-58.1336 -58.3437,-78.4688 -32.3681,-29.4255 61.7932,102.9913 91.2187,235.4063 0,0 17.6392,-11.796 -8.8437,-94.1875 -0.5305,-1.6504 -1.0655,-3.2355 -1.5937,-4.8438 3.8071,-8.3432 8.2605,-22.6399 4.5624,-39.2812 -5.8851,-26.483 -47.0794,-144.1732 -73.5624,-170.6562 -3.7242,-3.7242 -6.0039,-5.5391 -7.0313,-5.4063 z m 86.5,42.3125 c -0.7927,0.016 -0.8588,1.3847 -0.031,4.2812 5.8852,20.598 20.5938,64.7188 20.5938,64.7188 17.6553,82.3915 32.375,176.5657 32.375,138.3125 0,-38.2532 11.1195,-46.9963 -2.9375,-103 -13.669,-54.4583 -45.1558,-104.4118 -50,-104.3125 z"
           transform="matrix(0.26458334,0,0,0.26458334,-1316.4441,-532.96619)"
           id="path3994"
           inkscape:connector-curvature="0" />
        <path
           id="path4157"
           transform="matrix(0.26458334,0,0,0.26458334,-1316.4441,-532.96619)"
           d="m -3635.1875,-3806.6875 c -5.2744,0.6815 22.1888,52.463 53.5937,157.4375 -17.8215,-37.8162 -35.975,-58.1336 -58.3437,-78.4688 -32.3681,-29.4255 61.7932,102.9913 91.2187,235.4063 0,0 17.6392,-11.796 -8.8437,-94.1875 -0.5305,-1.6504 -1.0655,-3.2355 -1.5937,-4.8438 3.8071,-8.3432 8.2605,-22.6399 4.5624,-39.2812 -5.8851,-26.483 -47.0794,-144.1732 -73.5624,-170.6562 -3.7242,-3.7242 -6.0039,-5.5391 -7.0313,-5.4063 z m 86.5,42.3125 c -0.7927,0.016 -0.8588,1.3847 -0.031,4.2812 5.8852,20.598 20.5938,64.7188 20.5938,64.7188 17.6553,82.3915 32.375,176.5657 32.375,138.3125 0,-38.2532 11.1195,-46.9963 -2.9375,-103 -13.669,-54.4583 -45.1558,-104.4118 -50,-104.3125 z"
           style="color:#000000;fill:#00ffff;fill-opacity:1;fill-rule:nonzero;stroke:none;stroke-width:10;marker:none;visibility:visible;display:inline;overflow:visible;filter:url(#filter4159);enable-background:accumulate"
           inkscape:connector-curvature="0" />
      </g>
      <path
         transform="matrix(0.26458334,0,0,0.26458334,-1316.4441,-532.96619)"
         inkscape:connector-curvature="0"
         id="path4155"
         d="m -3760.8656,-3391.8125 c -21.8474,4.1614 -20.807,4.1614 -11.4439,5.2018 9.3632,1.0403 31.2105,0 24.9684,-4.1614 -6.2421,-4.1614 -13.5245,-1.0404 -13.5245,-1.0404 z"
         style="color:#000000;fill:#ffffff;fill-opacity:1;fill-rule:nonzero;stroke:none;stroke-width:10;marker:none;visibility:visible;display:inline;overflow:visible;enable-background:accumulate" />
      <path
         transform="matrix(0.26458334,0,0,0.26458334,-1316.4441,-532.96619)"
         inkscape:connector-curvature="0"
         id="path4163"
         d="m -3615.2166,-3691.4333 c 28.0894,49.9368 52.0175,123.8017 58.2596,140.4473 6.2421,16.6456 -10.4035,-42.6544 -14.5649,-58.2596 -4.1614,-15.6053 -6.2421,-23.9281 -4.1614,-17.686 2.0807,6.2421 5.2017,18.7263 7.2824,11.4439 2.0807,-7.2825 2.0807,-9.3632 -3.121,-32.2509 -5.2018,-22.8877 -28.0895,-97.7929 -24.9684,-84.2684 3.121,13.5246 14.5649,70.7439 18.7263,86.3491 4.1614,15.6053 -2.0807,15.6053 -8.3228,0 -6.2421,-15.6052 -29.1298,-45.7754 -29.1298,-45.7754 z"
         style="color:#000000;fill:#ffffff;fill-opacity:1;fill-rule:nonzero;stroke:none;stroke-width:10;marker:none;visibility:visible;display:inline;overflow:visible;enable-background:accumulate" />
      <path
         transform="matrix(0.26458334,0,0,0.26458334,-1316.4441,-532.96619)"
         inkscape:connector-curvature="0"
         id="path4165"
         d="m -3525.7465,-3694.5543 c 18.7263,50.9771 21.8473,86.349 24.9684,106.1157 3.121,19.7666 6.2421,9.3631 3.121,-27.0491 -3.121,-36.4123 -10.4035,-69.7035 -24.9684,-91.5508 -14.5649,-21.8474 -3.121,12.4842 -3.121,12.4842 z"
         style="color:#000000;fill:#ffffff;fill-opacity:1;fill-rule:nonzero;stroke:none;stroke-width:10;marker:none;visibility:visible;display:inline;overflow:visible;enable-background:accumulate" />
      <path
         transform="matrix(0.26458334,0,0,0.26458334,-1316.4441,-532.96619)"
         inkscape:connector-curvature="0"
         id="path4167"
         d="m -3542.3921,-3670.6263 c 0,32.2509 7.2824,37.4526 8.3228,27.0491 1.0403,-10.4035 4.1614,-35.3719 -2.0807,-34.3315 -6.2421,1.0403 -6.2421,7.2824 -6.2421,7.2824 z"
         style="color:#000000;fill:#ffffff;fill-opacity:1;fill-rule:nonzero;stroke:none;stroke-width:10;marker:none;visibility:visible;display:inline;overflow:visible;enable-background:accumulate" />
      <path
         transform="matrix(0.26458334,0,0,0.26458334,-1316.4441,-532.96619)"
         inkscape:connector-curvature="0"
         id="path4169"
         d="m -3533.029,-3522.8966 c 0,49.9368 15.6053,139.4069 20.807,135.2455 5.2018,-4.1614 -5.2017,-40.5736 -7.2824,-53.0578 -2.0807,-12.4842 -13.5246,-82.1877 -13.5246,-82.1877 z"
         style="color:#000000;fill:#ffffff;fill-opacity:1;fill-rule:nonzero;stroke:none;stroke-width:10;marker:none;visibility:visible;display:inline;overflow:visible;enable-background:accumulate" />
      <path
         transform="matrix(0.26458334,0,0,0.26458334,-1316.4441,-532.96619)"
         inkscape:connector-curvature="0"
         id="path4171"
         d="m -3469.5676,-3486.4843 c -19.7667,39.5333 -48.8965,85.3087 -44.7351,91.5508 4.1614,6.2421 40.5737,-87.3894 44.7351,-91.5508 z"
         style="color:#000000;fill:#ffffff;fill-opacity:1;fill-rule:nonzero;stroke:none;stroke-width:10;marker:none;visibility:visible;display:inline;overflow:visible;enable-background:accumulate" />
      <path
         transform="matrix(0.26458334,0,0,0.26458334,-1316.4441,-532.96619)"
         inkscape:connector-curvature="0"
         id="path4173"
         d="m -3512.222,-3397.0142 c -27.0491,-22.8877 -31.2105,-35.3719 -52.0175,-43.6947 -20.807,-8.3228 -24.9684,-12.4842 -14.5649,-8.3228 10.4035,4.1614 58.2596,21.8473 62.421,32.2508 4.1614,10.4035 4.1614,19.7667 4.1614,19.7667 z"
         style="color:#000000;fill:#ffffff;fill-opacity:1;fill-rule:nonzero;stroke:none;stroke-width:10;marker:none;visibility:visible;display:inline;overflow:visible;enable-background:accumulate" />
      <path
         transform="matrix(0.26458334,0,0,0.26458334,-1316.4441,-532.96619)"
         inkscape:connector-curvature="0"
         id="path4175"
         d="m -3523.6658,-3414.7002 c -31.2105,27.0491 -134.2052,71.7842 -122.7613,66.5824 11.4438,-5.2017 113.3981,-46.8157 125.8823,-52.0175 12.4842,-5.2017 -3.121,-14.5649 -3.121,-14.5649 z"
         style="color:#000000;fill:#ffffff;fill-opacity:1;fill-rule:nonzero;stroke:none;stroke-width:10;marker:none;visibility:visible;display:inline;overflow:visible;enable-background:accumulate" />
      <path
         transform="matrix(0.26458334,0,0,0.26458334,-1316.4441,-532.96619)"
         inkscape:connector-curvature="0"
         id="path4177"
         d="m -3510.1413,-3420.9423 c -37.4526,12.4842 -27.0491,44.7351 -6.2421,47.8561 20.807,3.1211 31.2105,-32.2508 28.0895,-41.614 -3.1211,-9.3631 -21.8474,-6.2421 -21.8474,-6.2421 z"
         style="color:#000000;fill:#ffffff;fill-opacity:1;fill-rule:nonzero;stroke:none;stroke-width:10;marker:none;visibility:visible;display:inline;overflow:visible;enable-background:accumulate" />
      <path
         sodipodi:nodetypes="cssc"
         transform="matrix(0.26458334,0,0,0.26458334,-1316.4441,-532.96619)"
         inkscape:connector-curvature="0"
         id="path4179"
         d="m -3510.1413,-3413.6598 c 27.0491,-6.2421 53.0579,-12.4842 46.8158,-8.3228 -6.2421,4.1614 -33.2912,16.6456 -37.4526,16.6456 -4.1614,0 -9.3632,-8.3228 -9.3632,-8.3228 z"
         style="color:#000000;fill:#ffffff;fill-opacity:1;fill-rule:nonzero;stroke:none;stroke-width:10;marker:none;visibility:visible;display:inline;overflow:visible;enable-background:accumulate" />
      <path
         transform="matrix(0.26458334,0,0,0.26458334,-1316.4441,-532.96619)"
         inkscape:connector-curvature="0"
         id="path4181"
         d="m -3508.0606,-3387.6511 c 23.9281,7.2825 67.6228,17.686 67.6228,17.686 0,0 -56.1789,-29.1298 -60.3403,-30.1702 -4.1614,-1.0403 -7.2825,12.4842 -7.2825,12.4842 z"
         style="color:#000000;fill:#ffffff;fill-opacity:1;fill-rule:nonzero;stroke:none;stroke-width:10;marker:none;visibility:visible;display:inline;overflow:visible;enable-background:accumulate" />
    </g>
  </g>
</svg>
