<?xml version="1.0" encoding="UTF-8" standalone="no"?>
<!-- Created with Inkscape (http://www.inkscape.org/) -->

<svg
   xmlns:dc="http://purl.org/dc/elements/1.1/"
   xmlns:cc="http://creativecommons.org/ns#"
   xmlns:rdf="http://www.w3.org/1999/02/22-rdf-syntax-ns#"
   xmlns:svg="http://www.w3.org/2000/svg"
   xmlns="http://www.w3.org/2000/svg"
   xmlns:sodipodi="http://sodipodi.sourceforge.net/DTD/sodipodi-0.dtd"
   xmlns:inkscape="http://www.inkscape.org/namespaces/inkscape"
   width="4110.6309"
   height="1436.4524"
   viewBox="0 0 1087.6044 380.06137"
   version="1.1"
   id="svg23489"
   inkscape:version="0.48.5 r10040"
   sodipodi:docname="electric_effects.svg">
  <defs
     id="defs23483">
    <filter
       inkscape:collect="always"
       id="filter4386"
       x="-0.085177235"
       width="1.1703545"
       y="-0.20298629"
       height="1.4059726"
       color-interpolation-filters="sRGB">
      <feGaussianBlur
         inkscape:collect="always"
         stdDeviation="2.5765473"
         id="feGaussianBlur4388" />
    </filter>
    <filter
       inkscape:collect="always"
       id="filter4396"
       x="-0.085177235"
       width="1.1703545"
       y="-0.20298629"
       height="1.4059726"
       color-interpolation-filters="sRGB">
      <feGaussianBlur
         inkscape:collect="always"
         stdDeviation="2.5765473"
         id="feGaussianBlur4398" />
    </filter>
    <filter
       inkscape:collect="always"
       id="filter4410"
       x="-0.085177235"
       width="1.1703545"
       y="-0.20298629"
       height="1.4059726"
       color-interpolation-filters="sRGB">
      <feGaussianBlur
         inkscape:collect="always"
         stdDeviation="2.5765473"
         id="feGaussianBlur4412" />
    </filter>
    <filter
       inkscape:collect="always"
       id="filter4420"
       x="-0.085177235"
       width="1.1703545"
       y="-0.20298629"
       height="1.4059726"
       color-interpolation-filters="sRGB">
      <feGaussianBlur
         inkscape:collect="always"
         stdDeviation="2.5765473"
         id="feGaussianBlur4422" />
    </filter>
    <filter
       inkscape:collect="always"
       id="filter4277"
       x="-0.36059844"
       width="1.7211969"
       y="-0.07197611"
       height="1.1439523"
       color-interpolation-filters="sRGB">
      <feGaussianBlur
         inkscape:collect="always"
         stdDeviation="3.7303434"
         id="feGaussianBlur4279" />
    </filter>
    <filter
       inkscape:collect="always"
       id="filter4287"
       x="-0.39430541"
       width="1.7886108"
       y="-0.070768595"
       height="1.1415372"
       color-interpolation-filters="sRGB">
      <feGaussianBlur
         inkscape:collect="always"
         stdDeviation="9.1058537"
         id="feGaussianBlur4289" />
    </filter>
    <filter
       inkscape:collect="always"
       id="filter4294"
       x="-0.19541635"
       width="1.3908327"
       y="-0.08658468"
       height="1.1731694"
       color-interpolation-filters="sRGB">
      <feGaussianBlur
         inkscape:collect="always"
         stdDeviation="12.191673"
         id="feGaussianBlur4296" />
    </filter>
    <filter
       inkscape:collect="always"
       id="filter4342"
       x="-0.083692148"
       width="1.1673843"
       y="-0.21194905"
       height="1.4238981"
       color-interpolation-filters="sRGB">
      <feGaussianBlur
         inkscape:collect="always"
         stdDeviation="8.6588103"
         id="feGaussianBlur4344" />
    </filter>
    <filter
       inkscape:collect="always"
       id="filter4364"
       x="-0.084044605"
       width="1.1680892"
       y="-0.20972173"
       height="1.4194435"
       color-interpolation-filters="sRGB">
      <feGaussianBlur
         inkscape:collect="always"
         stdDeviation="45.605073"
         id="feGaussianBlur4366" />
    </filter>
    <filter
       inkscape:collect="always"
       id="filter4374"
       x="-0.081122249"
       width="1.1622446"
       y="-0.23043635"
       height="1.4608727"
       color-interpolation-filters="sRGB">
      <feGaussianBlur
         inkscape:collect="always"
         stdDeviation="63.616597"
         id="feGaussianBlur4376" />
    </filter>
    <filter
       inkscape:collect="always"
       id="filter4395"
       x="-0.040329892"
       width="1.0806597"
       y="-0.11712579"
       height="1.2342516"
       color-interpolation-filters="sRGB">
      <feGaussianBlur
         inkscape:collect="always"
         stdDeviation="9.1967363"
         id="feGaussianBlur4397" />
    </filter>
    <filter
       inkscape:collect="always"
       id="filter4402"
       color-interpolation-filters="sRGB">
      <feGaussianBlur
         inkscape:collect="always"
         stdDeviation="9.0418418"
         id="feGaussianBlur4404" />
    </filter>
    <filter
       inkscape:collect="always"
       id="filter4413"
       color-interpolation-filters="sRGB">
      <feGaussianBlur
         inkscape:collect="always"
         stdDeviation="8.8956945"
         id="feGaussianBlur4415" />
    </filter>
    <filter
       inkscape:collect="always"
       id="filter4343"
       x="-0.19494314"
       width="1.3898863"
       y="-0.035456426"
       height="1.070913"
       color-interpolation-filters="sRGB">
      <feGaussianBlur
         inkscape:collect="always"
         stdDeviation="29.949669"
         id="feGaussianBlur4345" />
    </filter>
    <filter
       inkscape:collect="always"
       id="filter4347"
       x="-0.20153145"
       width="1.4030629"
       y="-0.035246853"
       height="1.0704937"
       color-interpolation-filters="sRGB">
      <feGaussianBlur
         inkscape:collect="always"
         stdDeviation="34.505393"
         id="feGaussianBlur4349" />
    </filter>
    <filter
       inkscape:collect="always"
       id="filter4351"
       x="-0.24321742"
       width="1.4864349"
       y="-0.034221042"
       height="1.0684421"
       color-interpolation-filters="sRGB">
      <feGaussianBlur
         inkscape:collect="always"
         stdDeviation="36.403047"
         id="feGaussianBlur4353" />
    </filter>
    <filter
       inkscape:collect="always"
       id="filter4355"
       x="-0.21782546"
       width="1.4356509"
       y="-0.034791682"
       height="1.0695834"
       color-interpolation-filters="sRGB">
      <feGaussianBlur
         inkscape:collect="always"
         stdDeviation="10.711422"
         id="feGaussianBlur4357" />
    </filter>
    <filter
       inkscape:collect="always"
       id="filter4359"
       x="-0.37572625"
       width="1.7514524"
       y="-0.032603215"
       height="1.0652064"
       color-interpolation-filters="sRGB">
      <feGaussianBlur
         inkscape:collect="always"
         stdDeviation="38.047291"
         id="feGaussianBlur4361" />
    </filter>
    <filter
       inkscape:collect="always"
       id="filter4363"
       x="-0.24867699"
       width="1.497354"
       y="-0.034115657"
       height="1.0682313"
       color-interpolation-filters="sRGB">
      <feGaussianBlur
         inkscape:collect="always"
         stdDeviation="39.697656"
         id="feGaussianBlur4365" />
    </filter>
    <filter
       inkscape:collect="always"
       id="filter4367"
       x="-0.24867699"
       width="1.497354"
       y="-0.034115657"
       height="1.0682313"
       color-interpolation-filters="sRGB">
      <feGaussianBlur
         inkscape:collect="always"
         stdDeviation="39.697656"
         id="feGaussianBlur4369" />
    </filter>
    <filter
       inkscape:collect="always"
       id="filter4371"
       x="-0.15445109"
       width="1.3089021"
       y="-0.037231755"
       height="1.0744635"
       color-interpolation-filters="sRGB">
      <feGaussianBlur
         inkscape:collect="always"
         stdDeviation="5.6615283"
         id="feGaussianBlur4373" />
    </filter>
    <filter
       inkscape:collect="always"
       id="filter4375"
       x="-0.19895466"
       width="1.3979093"
       y="-0.035326872"
       height="1.0706537"
       color-interpolation-filters="sRGB">
      <feGaussianBlur
         inkscape:collect="always"
         stdDeviation="3.8824305"
         id="feGaussianBlur4377" />
    </filter>
    <filter
       inkscape:collect="always"
       id="filter4379"
       x="-0.24867699"
       width="1.497354"
       y="-0.034115657"
       height="1.0682313"
       color-interpolation-filters="sRGB">
      <feGaussianBlur
         inkscape:collect="always"
         stdDeviation="39.697656"
         id="feGaussianBlur4381" />
    </filter>
    <filter
       inkscape:collect="always"
       id="filter4414"
       x="-0.094152808"
       width="1.1883056"
       y="-0.1654086"
       height="1.3308172"
       color-interpolation-filters="sRGB">
      <feGaussianBlur
         inkscape:collect="always"
         stdDeviation="0.342046"
         id="feGaussianBlur4416" />
    </filter>
    <filter
       inkscape:collect="always"
       id="filter4424"
       x="-0.09453389"
       width="1.1890678"
       y="-0.16424541"
       height="1.3284909"
       color-interpolation-filters="sRGB">
      <feGaussianBlur
         inkscape:collect="always"
         stdDeviation="3.0738531"
         id="feGaussianBlur4426" />
    </filter>
    <filter
       inkscape:collect="always"
       id="filter4434"
       x="-0.09712898"
       width="1.194258"
       y="-0.15695931"
       height="1.3139186"
       color-interpolation-filters="sRGB">
      <feGaussianBlur
         inkscape:collect="always"
         stdDeviation="4.7177083"
         id="feGaussianBlur4436" />
    </filter>
    <filter
       inkscape:collect="always"
       id="filter4440"
       x="-0.091316618"
       width="1.1826332"
       y="-0.17495495"
       height="1.3499099"
       color-interpolation-filters="sRGB">
      <feGaussianBlur
         inkscape:collect="always"
         stdDeviation="1.3057002"
         id="feGaussianBlur4442" />
    </filter>
  </defs>
  <sodipodi:namedview
     id="base"
     pagecolor="#525252"
     bordercolor="#666666"
     borderopacity="1.0"
     inkscape:pageopacity="0"
     inkscape:pageshadow="2"
     inkscape:zoom="0.2098896"
     inkscape:cx="2358.1992"
     inkscape:cy="572.30215"
     inkscape:document-units="px"
     inkscape:current-layer="layer1"
     showgrid="false"
     inkscape:pagecheckerboard="false"
     showborder="true"
     units="px"
     inkscape:window-width="1920"
     inkscape:window-height="1017"
     inkscape:window-x="-8"
     inkscape:window-y="-8"
     inkscape:window-maximized="1"
     fit-margin-top="0"
     fit-margin-left="0"
     fit-margin-right="0"
     fit-margin-bottom="0"
     showguides="true"
     inkscape:guide-bbox="true"
     inkscape:snap-global="true"
     inkscape:snap-bbox="false">
    <inkscape:grid
       type="xygrid"
       id="grid24034"
       spacingx="2.6458333"
       spacingy="2.6458333"
       empspacing="10"
       visible="true"
       enabled="true"
       snapvisiblegridlinesonly="true"
       originx="4975.5366px"
       originy="-1700.4276px" />
  </sodipodi:namedview>
  <metadata
     id="metadata23486">
    <rdf:RDF>
      <cc:Work
         rdf:about="">
        <dc:format>image/svg+xml</dc:format>
        <dc:type
           rdf:resource="http://purl.org/dc/dcmitype/StillImage" />
        <dc:title></dc:title>
        <cc:license
           rdf:resource="" />
        <dc:creator>
          <cc:Agent>
            <dc:title>Robert Brooks</dc:title>
          </cc:Agent>
        </dc:creator>
      </cc:Work>
    </rdf:RDF>
  </metadata>
  <g
     inkscape:label="Layer 1"
     inkscape:groupmode="layer"
     id="layer1"
     transform="translate(1316.4441,532.96619)">
    <g
       id="g4561"
       transform="translate(-213.57983,0)" />
    <g
       id="g4093"
       transform="matrix(0.48054322,0,0,0.48054322,-1811.2256,-488.79139)"
       inkscape:export-filename="C:\Users\rober\Desktop\assets\ASSETS_2019\electrical_effects\1.png"
       inkscape:export-xdpi="90"
       inkscape:export-ydpi="90">
      <path
         style="opacity:0.69911504999999996;color:#000000;fill:none;fill-opacity:1;fill-rule:nonzero;stroke:none;stroke-width:10;marker:none;visibility:visible;display:inline;overflow:visible;enable-background:accumulate"
         d="m 1029.6295,-66.219376 208.323,0 0,750.313296 -208.323,0 z"
         id="rect4064"
         inkscape:connector-curvature="0"
         sodipodi:nodetypes="ccccc"
         inkscape:export-filename="C:\Users\rober\Desktop\assets\ASSETS_2019\electrical_effects\bolt_strike\animation\bolt_stike_01.png"
         inkscape:export-xdpi="90"
         inkscape:export-ydpi="90" />
      <path
         style="color:#000000;fill:#00ffff;fill-opacity:1;fill-rule:nonzero;stroke:none;stroke-width:10;marker:none;visibility:visible;display:inline;overflow:visible;enable-background:accumulate"
         d="m -4890.9688,-584.96875 c -0.1589,45.92116 -1.0423,138.68075 -1.9374,158.375 -0.9872,21.7169 -2.9872,57.25185 -2,62.1875 0.9871,4.93567 4.9448,10.86396 7.9062,14.8125 2.2115,2.94861 26.9468,20.16332 35.6562,26.25 -10.2521,-8.05056 -33.7308,-33.61569 -34.6562,-40.09375 -0.9099,-6.36912 1.5344,-173.68773 3.4688,-221.53125 l -8.4376,0 z m 40,261.90625 c 0.5248,0.4017 1.0267,0.79902 1.4688,1.09375 2.1323,1.42154 1.1436,0.73275 -1.4688,-1.09375 z"
         transform="matrix(1.037583,0,0,1.037583,6177.8006,540.72609)"
         id="path3264"
         inkscape:connector-curvature="0" />
      <path
         inkscape:connector-curvature="0"
         id="path4266"
         transform="matrix(1.037583,0,0,1.037583,6177.8006,540.72609)"
         d="m -4890.9688,-584.96875 c -0.1589,45.92116 -1.0423,138.68075 -1.9374,158.375 -0.9872,21.7169 -2.9872,57.25185 -2,62.1875 0.9871,4.93567 4.9448,10.86396 7.9062,14.8125 2.2115,2.94861 26.9468,20.16332 35.6562,26.25 -10.2521,-8.05056 -33.7308,-33.61569 -34.6562,-40.09375 -0.9099,-6.36912 1.5344,-173.68773 3.4688,-221.53125 l -8.4376,0 z m 40,261.90625 c 0.5248,0.4017 1.0267,0.79902 1.4688,1.09375 2.1323,1.42154 1.1436,0.73275 -1.4688,-1.09375 z"
         style="color:#000000;fill:#00ffff;fill-opacity:1;fill-rule:nonzero;stroke:none;stroke-width:10;marker:none;visibility:visible;display:inline;overflow:visible;filter:url(#filter4375);enable-background:accumulate" />
    </g>
    <g
       id="g4089"
       transform="matrix(0.48054322,0,0,0.48054322,-1701.5038,-488.79139)"
       inkscape:export-filename="C:\Users\rober\Desktop\assets\ASSETS_2019\electrical_effects\2.png"
       inkscape:export-xdpi="90"
       inkscape:export-ydpi="90">
      <path
         style="opacity:0.69911504999999996;color:#000000;fill:none;fill-opacity:1;fill-rule:nonzero;stroke:none;stroke-width:10;marker:none;visibility:visible;display:inline;overflow:visible;enable-background:accumulate"
         d="m 1029.6295,-66.219376 208.323,0 0,750.313296 -208.323,0 z"
         id="rect4062"
         inkscape:connector-curvature="0"
         sodipodi:nodetypes="ccccc"
         inkscape:export-filename="C:\Users\rober\Desktop\assets\ASSETS_2019\electrical_effects\bolt_strike\animation\bolt_stike_02.png"
         inkscape:export-xdpi="90"
         inkscape:export-ydpi="90" />
      <path
         style="color:#000000;fill:#00ffff;fill-opacity:1;fill-rule:nonzero;stroke:none;stroke-width:10;marker:none;visibility:visible;display:inline;overflow:visible;enable-background:accumulate"
         d="m -4673.9062,-584.96875 c -2.9664,35.14451 -7.8151,230.4662 -2.9063,235.375 4.9357,4.93565 74.0515,56.27023 78,60.21875 3.9485,3.94852 -18.7813,61.1875 -18.7813,61.1875 0,0 -20.7168,9.88051 -15.7812,7.90625 4.9357,-1.97426 23.6875,-4.93933 23.6875,-9.875 0,-4.93565 18.75,-67.125 18.75,-67.125 0,0 -68.0882,-59.22794 -70.0625,-67.125 -1.9219,-7.68778 1.7093,-209.69572 1.9062,-220.5625 l -14.8124,0 z"
         transform="matrix(1.037583,0,0,1.037583,5949.472,540.72609)"
         id="path4034"
         inkscape:connector-curvature="0" />
      <path
         inkscape:connector-curvature="0"
         id="path4272"
         transform="matrix(1.037583,0,0,1.037583,5949.472,540.72609)"
         d="m -4673.9062,-584.96875 c -2.9664,35.14451 -7.8151,230.4662 -2.9063,235.375 4.9357,4.93565 74.0515,56.27023 78,60.21875 3.9485,3.94852 -18.7813,61.1875 -18.7813,61.1875 0,0 -20.7168,9.88051 -15.7812,7.90625 4.9357,-1.97426 23.6875,-4.93933 23.6875,-9.875 0,-4.93565 18.75,-67.125 18.75,-67.125 0,0 -68.0882,-59.22794 -70.0625,-67.125 -1.9219,-7.68778 1.7093,-209.69572 1.9062,-220.5625 l -14.8124,0 z"
         style="color:#000000;fill:#00ffff;fill-opacity:1;fill-rule:nonzero;stroke:none;stroke-width:10;marker:none;visibility:visible;display:inline;overflow:visible;filter:url(#filter4371);enable-background:accumulate" />
    </g>
    <g
       id="g4084"
       transform="matrix(0.48054322,0,0,0.48054322,-1591.7821,-488.79058)"
       inkscape:export-filename="C:\Users\rober\Desktop\assets\ASSETS_2019\electrical_effects\3.png"
       inkscape:export-xdpi="90"
       inkscape:export-ydpi="90">
      <path
         id="path4444"
         transform="matrix(0.26458334,0,0,0.26458334,-113.74661,-236.29243)"
         d="m 4553.5312,642.78125 62.3205,920.68755 c 0,0 258.127,218.0161 246.9608,253.5 l -63.7813,202.6874 -187.7812,63.5938 97.75,323.7188 c 56.5439,126.5483 75.6875,180.7812 75.6875,180.7812 0,0 -77.422,92.8946 -61.9375,81.2812 15.4844,-11.6132 81.2852,-54.207 85.1562,-73.5624 2.0088,-10.0439 -22.0095,-118.0015 -46.1562,-221.7813 l -78.7188,-274 152.2188,-39.9375 87,-276.625 -212.8045,-260.75 -37.4143,-879.59375 z"
         style="color:#000000;fill:#00ffff;fill-opacity:1;fill-rule:nonzero;stroke:none;stroke-width:2;marker:none;visibility:visible;display:inline;overflow:visible;filter:url(#filter4343);enable-background:accumulate"
         inkscape:connector-curvature="0"
         sodipodi:nodetypes="ccsccccssccccccc" />
      <path
         style="opacity:0.69911504999999996;color:#000000;fill:none;fill-opacity:1;fill-rule:nonzero;stroke:none;stroke-width:10;marker:none;visibility:visible;display:inline;overflow:visible;enable-background:accumulate"
         d="m 1029.6295,-66.219376 208.323,0 0,750.313296 -208.323,0 z"
         id="rect4060"
         inkscape:connector-curvature="0"
         sodipodi:nodetypes="ccccc"
         inkscape:export-filename="C:\Users\rober\Desktop\assets\ASSETS_2019\electrical_effects\bolt_strike\animation\bolt_stike_03.png"
         inkscape:export-xdpi="90"
         inkscape:export-ydpi="90" />
      <path
         id="path4036"
         transform="matrix(0.26458334,0,0,0.26458334,-113.74661,-236.29243)"
         d="m 4553.5312,642.78125 62.3205,920.68755 c 0,0 258.127,218.0161 246.9608,253.5 l -63.7813,202.6874 -187.7812,63.5938 97.75,323.7188 c 56.5439,126.5483 75.6875,180.7812 75.6875,180.7812 0,0 -77.422,92.8946 -61.9375,81.2812 15.4844,-11.6132 81.2852,-54.207 85.1562,-73.5624 2.0088,-10.0439 -22.0095,-118.0015 -46.1562,-221.7813 l -78.7188,-274 152.2188,-39.9375 87,-276.625 -212.8045,-260.75 -37.4143,-879.59375 z"
         style="color:#000000;fill:#00ffff;fill-opacity:1;fill-rule:nonzero;stroke:none;stroke-width:2;marker:none;visibility:visible;display:inline;overflow:visible;enable-background:accumulate"
         inkscape:connector-curvature="0"
         sodipodi:nodetypes="ccsccccssccccccc" />
      <path
         sodipodi:nodetypes="ccsccccssccccccc"
         inkscape:connector-curvature="0"
         style="color:#000000;fill:#00ffff;fill-opacity:1;fill-rule:nonzero;stroke:none;stroke-width:2;marker:none;visibility:visible;display:inline;overflow:visible;filter:url(#filter4343);enable-background:accumulate"
         d="m 4553.5312,642.78125 62.3205,920.68755 c 0,0 258.127,218.0161 246.9608,253.5 l -63.7813,202.6874 -187.7812,63.5938 97.75,323.7188 c 56.5439,126.5483 75.6875,180.7812 75.6875,180.7812 0,0 -77.422,92.8946 -61.9375,81.2812 15.4844,-11.6132 81.2852,-54.207 85.1562,-73.5624 2.0088,-10.0439 -22.0095,-118.0015 -46.1562,-221.7813 l -78.7188,-274 152.2188,-39.9375 87,-276.625 -212.8045,-260.75 -37.4143,-879.59375 z"
         transform="matrix(0.26458334,0,0,0.26458334,-113.74661,-236.29243)"
         id="path4282" />
      <path
         id="path4447"
         transform="matrix(0.26458334,0,0,0.26458334,-113.74661,-236.29243)"
         d="m 4553.5312,642.78125 62.3205,920.68755 c 0,0 258.127,218.0161 246.9608,253.5 l -63.7813,202.6874 -187.7812,63.5938 97.75,323.7188 c 56.5439,126.5483 75.6875,180.7812 75.6875,180.7812 0,0 -77.422,92.8946 -61.9375,81.2812 15.4844,-11.6132 81.2852,-54.207 85.1562,-73.5624 2.0088,-10.0439 -22.0095,-118.0015 -46.1562,-221.7813 l -78.7188,-274 152.2188,-39.9375 87,-276.625 -212.8045,-260.75 -37.4143,-879.59375 z"
         style="color:#000000;fill:#00ffff;fill-opacity:1;fill-rule:nonzero;stroke:none;stroke-width:2;marker:none;visibility:visible;display:inline;overflow:visible;filter:url(#filter4343);enable-background:accumulate"
         inkscape:connector-curvature="0"
         sodipodi:nodetypes="ccsccccssccccccc" />
    </g>
    <g
       id="g4080"
       transform="matrix(0.48054322,0,0,0.48054322,-1482.0605,-488.79058)"
       inkscape:export-filename="C:\Users\rober\Desktop\assets\ASSETS_2019\electrical_effects\4.png"
       inkscape:export-xdpi="90"
       inkscape:export-ydpi="90">
      <path
         style="opacity:0.69911504999999996;color:#000000;fill:none;fill-opacity:1;fill-rule:nonzero;stroke:none;stroke-width:10;marker:none;visibility:visible;display:inline;overflow:visible;enable-background:accumulate"
         d="m 1029.6295,-66.219376 208.323,0 0,750.313296 -208.323,0 z"
         id="rect4058"
         inkscape:connector-curvature="0"
         sodipodi:nodetypes="ccccc"
         inkscape:export-filename="C:\Users\rober\Desktop\assets\ASSETS_2019\electrical_effects\bolt_strike\animation\bolt_stike_04.png"
         inkscape:export-xdpi="90"
         inkscape:export-ydpi="90" />
      <path
         id="path4041"
         transform="matrix(0.26458334,0,0,0.26458334,-113.74661,-236.29243)"
         d="m 4553.5312,642.78125 -42.1994,920.68755 c 0,0 362.6469,218.0161 351.4807,253.5 l -63.7813,202.6874 -187.7812,63.5938 155.125,513.8125 -111.125,89.8125 61.4375,192.4688 c 41.526,7.43 56.375,17.3124 56.375,29.6874 0,15.4844 -46.4531,96.7969 -30.9687,81.3126 4.5501,-4.5502 15.1923,-14.8207 27.375,-26.5313 l 58.3124,-92.0625 -90.375,-32.875 -28.75,-123.25 82.1563,-61.625 42.25,-32 -150.0313,-522.3125 152.2188,-39.9375 87,-276.625 -317.3244,-260.75 67.1056,-879.59375 z"
         style="color:#000000;fill:#00ffff;fill-opacity:1;fill-rule:nonzero;stroke:none;stroke-width:2;marker:none;visibility:visible;display:inline;overflow:visible;enable-background:accumulate"
         inkscape:connector-curvature="0"
         sodipodi:nodetypes="ccscccccsccccccccccccc" />
      <path
         sodipodi:nodetypes="ccscccccsccccccccccccc"
         inkscape:connector-curvature="0"
         style="color:#000000;fill:#00ffff;fill-opacity:1;fill-rule:nonzero;stroke:none;stroke-width:2;marker:none;visibility:visible;display:inline;overflow:visible;filter:url(#filter4347);enable-background:accumulate"
         d="m 4553.5312,642.78125 -42.1994,920.68755 c 0,0 362.6469,218.0161 351.4807,253.5 l -63.7813,202.6874 -187.7812,63.5938 155.125,513.8125 -111.125,89.8125 61.4375,192.4688 c 41.526,7.43 56.375,17.3124 56.375,29.6874 0,15.4844 -46.4531,96.7969 -30.9687,81.3126 4.5501,-4.5502 15.1923,-14.8207 27.375,-26.5313 l 58.3124,-92.0625 -90.375,-32.875 -28.75,-123.25 82.1563,-61.625 42.25,-32 -150.0313,-522.3125 152.2188,-39.9375 87,-276.625 -317.3244,-260.75 67.1056,-879.59375 z"
         transform="matrix(0.26458334,0,0,0.26458334,-113.74661,-236.29243)"
         id="path4288" />
    </g>
    <g
       id="g4076"
       transform="matrix(0.48054322,0,0,0.48054322,-1372.3386,-488.79058)"
       inkscape:export-filename="C:\Users\rober\Desktop\assets\ASSETS_2019\electrical_effects\5.png"
       inkscape:export-xdpi="90"
       inkscape:export-ydpi="90">
      <path
         style="opacity:0.69911504999999996;color:#000000;fill:none;fill-opacity:1;fill-rule:nonzero;stroke:none;stroke-width:10;marker:none;visibility:visible;display:inline;overflow:visible;enable-background:accumulate"
         d="m 1029.6295,-66.219376 208.323,0 0,750.313296 -208.323,0 z"
         id="rect4056"
         inkscape:connector-curvature="0"
         sodipodi:nodetypes="ccccc"
         inkscape:export-filename="C:\Users\rober\Desktop\assets\ASSETS_2019\electrical_effects\bolt_strike\animation\bolt_stike_05.png"
         inkscape:export-xdpi="90"
         inkscape:export-ydpi="90" />
      <path
         id="path4047"
         transform="matrix(0.26458334,0,0,0.26458334,-113.74661,-236.29243)"
         d="m 4553.5312,642.78125 -49.9416,920.68755 c 0,0 161.3491,140.5939 150.183,176.0778 l -63.7813,202.6874 21.2587,141.016 155.125,513.8125 -111.125,89.8125 61.625,193.0938 49.2812,28.75 -35.3437,69.8124 -137.1875,30.2813 16.625,64.5313 14.0312,51.4687 70.125,11.125 77.8126,-18.75 74.4374,73.125 c 13.4999,7.7669 21.8037,7.6474 11.5938,-2.5625 -7.4791,-7.479 -23.9903,-34.8159 -39.0625,-61.0938 l -36.5937,-28.9687 -90.375,16.4063 -45.1876,-8.1876 -12.3124,-86.2812 115,-24.6562 78.0624,-123.2188 -90.375,-32.875 -28.75,-123.25 82.1563,-61.625 42.25,-32 -150.0313,-522.3125 -29.7233,-128.973 59.9022,-265.0117 -116.0267,-183.3278 74.8478,-879.59375 z"
         style="color:#000000;fill:#00ffff;fill-opacity:1;fill-rule:nonzero;stroke:none;stroke-width:2;marker:none;visibility:visible;display:inline;overflow:visible;enable-background:accumulate"
         inkscape:connector-curvature="0"
         sodipodi:nodetypes="ccscccccccccccccsccccccccccccccccc" />
      <path
         sodipodi:nodetypes="ccscccccccccccccsccccccccccccccccc"
         inkscape:connector-curvature="0"
         style="color:#000000;fill:#00ffff;fill-opacity:1;fill-rule:nonzero;stroke:none;stroke-width:2;marker:none;visibility:visible;display:inline;overflow:visible;filter:url(#filter4351);enable-background:accumulate"
         d="m 4553.5312,642.78125 -49.9416,920.68755 c 0,0 161.3491,140.5939 150.183,176.0778 l -63.7813,202.6874 21.2587,141.016 155.125,513.8125 -111.125,89.8125 61.625,193.0938 49.2812,28.75 -35.3437,69.8124 -137.1875,30.2813 16.625,64.5313 14.0312,51.4687 70.125,11.125 77.8126,-18.75 74.4374,73.125 c 13.4999,7.7669 21.8037,7.6474 11.5938,-2.5625 -7.4791,-7.479 -23.9903,-34.8159 -39.0625,-61.0938 l -36.5937,-28.9687 -90.375,16.4063 -45.1876,-8.1876 -12.3124,-86.2812 115,-24.6562 78.0624,-123.2188 -90.375,-32.875 -28.75,-123.25 82.1563,-61.625 42.25,-32 -150.0313,-522.3125 -29.7233,-128.973 59.9022,-265.0117 -116.0267,-183.3278 74.8478,-879.59375 z"
         transform="matrix(0.26458334,0,0,0.26458334,-113.74661,-236.29243)"
         id="path4299" />
    </g>
    <g
       id="g4072"
       transform="matrix(0.48054322,0,0,0.48054322,-1262.6168,-488.79139)"
       inkscape:export-filename="C:\Users\rober\Desktop\assets\ASSETS_2019\electrical_effects\6.png"
       inkscape:export-xdpi="90"
       inkscape:export-ydpi="90">
      <path
         style="opacity:0.69911504999999996;color:#000000;fill:none;fill-opacity:1;fill-rule:nonzero;stroke:none;stroke-width:10;marker:none;visibility:visible;display:inline;overflow:visible;enable-background:accumulate"
         d="m 1029.6295,-66.219376 208.323,0 0,750.313296 -208.323,0 z"
         id="rect4054"
         inkscape:connector-curvature="0"
         sodipodi:nodetypes="ccccc"
         inkscape:export-filename="C:\Users\rober\Desktop\assets\ASSETS_2019\electrical_effects\bolt_strike\animation\bolt_stike_06.png"
         inkscape:export-xdpi="90"
         inkscape:export-ydpi="90" />
      <path
         sodipodi:nodetypes="ccsccccccccccccccccccccccccccccccccccc"
         inkscape:connector-curvature="0"
         id="path4248"
         d="m 1091.0401,-66.219376 17.5127,230.280006 c 0,0 -38.581,38.92112 -40.1539,48.63692 l -8.6817,53.62538 46.5963,48.57464 41.0459,135.94859 -29.4031,23.76762 16.305,51.08938 13.039,7.60677 -9.3503,18.47123 -36.2986,8.00486 4.3974,17.07951 3.7083,13.61851 18.5542,2.9419 20.593,-4.95866 20.3451,19.9908 -7.3338,27.07886 -21.0066,21.89835 2.6388,15.24069 3.9006,-14.54079 18.2115,-20.05745 12.0757,-34.12406 -26.0862,-20.64578 -23.9118,4.34083 -11.9558,-2.16627 -3.2577,-22.82857 30.4271,-6.52365 20.654,-32.60161 -23.9117,-8.69818 -7.6068,-32.6099 21.7372,-16.30494 11.1775,-8.47019 -39.6923,-138.19876 -40.6467,-58.69855 11.757,-44.51192 33.8277,-38.26318 -7.8549,-243.992386 z"
         style="color:#000000;fill:#00ffff;fill-opacity:1;fill-rule:nonzero;stroke:none;stroke-width:2;marker:none;visibility:visible;display:inline;overflow:visible;enable-background:accumulate" />
      <path
         style="color:#000000;fill:#00ffff;fill-opacity:1;fill-rule:nonzero;stroke:none;stroke-width:2;marker:none;visibility:visible;display:inline;overflow:visible;filter:url(#filter4355);enable-background:accumulate"
         d="m 1091.0401,-66.219376 17.5127,230.280006 c 0,0 -38.581,38.92112 -40.1539,48.63692 l -8.6817,53.62538 46.5963,48.57464 41.0459,135.94859 -29.4031,23.76762 16.305,51.08938 13.039,7.60677 -9.3503,18.47123 -36.2986,8.00486 4.3974,17.07951 3.7083,13.61851 18.5542,2.9419 20.593,-4.95866 20.3451,19.9908 -7.3338,27.07886 -21.0066,21.89835 2.6388,15.24069 3.9006,-14.54079 18.2115,-20.05745 12.0757,-34.12406 -26.0862,-20.64578 -23.9118,4.34083 -11.9558,-2.16627 -3.2577,-22.82857 30.4271,-6.52365 20.654,-32.60161 -23.9117,-8.69818 -7.6068,-32.6099 21.7372,-16.30494 11.1775,-8.47019 -39.6923,-138.19876 -40.6467,-58.69855 11.757,-44.51192 33.8277,-38.26318 -7.8549,-243.992386 z"
         id="path4309"
         inkscape:connector-curvature="0"
         sodipodi:nodetypes="ccsccccccccccccccccccccccccccccccccccc" />
    </g>
    <g
       transform="matrix(0.48054322,0,0,0.48054322,-1152.8949,-488.79139)"
       id="g4097"
       inkscape:export-filename="C:\Users\rober\Desktop\assets\ASSETS_2019\electrical_effects\7.png"
       inkscape:export-xdpi="90"
       inkscape:export-ydpi="90">
      <path
         style="opacity:0.69911504999999996;color:#000000;fill:none;fill-opacity:1;fill-rule:nonzero;stroke:none;stroke-width:10;marker:none;visibility:visible;display:inline;overflow:visible;enable-background:accumulate"
         d="m 1029.6295,-66.219376 208.323,0 0,750.313296 -208.323,0 z"
         id="rect4099"
         inkscape:connector-curvature="0"
         sodipodi:nodetypes="ccccc"
         inkscape:export-filename="C:\Users\rober\Desktop\assets\ASSETS_2019\electrical_effects\bolt_strike\animation\bolt_stike_07.png"
         inkscape:export-xdpi="90"
         inkscape:export-ydpi="90" />
      <path
         style="color:#000000;fill:#00ffff;fill-opacity:1;fill-rule:nonzero;stroke:none;stroke-width:10;marker:none;visibility:visible;display:inline;overflow:visible;enable-background:accumulate"
         d="m 11227.562,-3011.5312 0.782,15.9062 10.968,963.5312 147.813,235.4063 32.844,323 -180.657,361.3125 158.75,180.6875 -38.312,136.84375 -27.375,109.5 87.594,114.96875 c 0,0 -82.113,54.75213 -93.063,82.125 -10.949,27.37287 38.313,169.6875 38.313,169.6875 0,0 16.406,131.40412 16.406,104.03125 0,-27.37287 10.969,-136.875 10.969,-136.875 l -27.375,-136.84375 98.531,-82.125 -99.906,-123.1875 75.281,-253.1875 -156.031,-173.8125 187.5,-339.4375 -17.782,-351.75 -109.5,-232.6562 6.594,-967.125 -122.344,0 z"
         transform="matrix(0.26458334,0,0,0.26458334,-1880.0319,730.58151)"
         id="rect4105"
         inkscape:connector-curvature="0" />
      <path
         inkscape:connector-curvature="0"
         id="path4315"
         transform="matrix(0.26458334,0,0,0.26458334,-1880.0319,730.58151)"
         d="m 11227.562,-3011.5312 0.782,15.9062 10.968,963.5312 147.813,235.4063 32.844,323 -180.657,361.3125 158.75,180.6875 -38.312,136.84375 -27.375,109.5 87.594,114.96875 c 0,0 -82.113,54.75213 -93.063,82.125 -10.949,27.37287 38.313,169.6875 38.313,169.6875 0,0 16.406,131.40412 16.406,104.03125 0,-27.37287 10.969,-136.875 10.969,-136.875 l -27.375,-136.84375 98.531,-82.125 -99.906,-123.1875 75.281,-253.1875 -156.031,-173.8125 187.5,-339.4375 -17.782,-351.75 -109.5,-232.6562 6.594,-967.125 -122.344,0 z"
         style="color:#000000;fill:#00ffff;fill-opacity:1;fill-rule:nonzero;stroke:none;stroke-width:10;marker:none;visibility:visible;display:inline;overflow:visible;filter:url(#filter4359);enable-background:accumulate" />
    </g>
    <g
       transform="matrix(0.48054322,0,0,0.48054322,-1043.173,-488.79139)"
       id="g4108"
       inkscape:export-filename="C:\Users\rober\Desktop\assets\ASSETS_2019\electrical_effects\8.png"
       inkscape:export-xdpi="90"
       inkscape:export-ydpi="90">
      <path
         style="opacity:0.69911504999999996;color:#000000;fill:none;fill-opacity:1;fill-rule:nonzero;stroke:none;stroke-width:10;marker:none;visibility:visible;display:inline;overflow:visible;enable-background:accumulate"
         d="m 1029.6295,-66.219376 208.323,0 0,750.313296 -208.323,0 z"
         id="rect4110"
         inkscape:connector-curvature="0"
         sodipodi:nodetypes="ccccc"
         inkscape:export-filename="C:\Users\rober\Desktop\assets\ASSETS_2019\electrical_effects\bolt_strike\animation\bolt_stike_08.png"
         inkscape:export-xdpi="90"
         inkscape:export-ydpi="90" />
      <path
         style="color:#000000;fill:#00ffff;fill-opacity:1;fill-rule:nonzero;stroke:none;stroke-width:2;marker:none;visibility:visible;display:inline;overflow:visible;enable-background:accumulate"
         d="m 11769.156,-3011.5312 8.125,777.4374 c 0,0 312.323,361.2662 301.157,396.75 l -63.782,202.6563 -133.594,63.5937 -15.187,513.8126 -111.125,89.8437 177.75,193.09375 37.562,21.90625 c -24.324,33.88943 -60.716,88.7964 -56.031,87.625 2.47,-0.61729 13.044,1.84795 23.875,4.71875 l -0.625,0.75 62.844,19.1875 -14.781,86.28125 -54.282,8.1875 -33.25,-10.9375 -118.437,78.03125 54.844,128.96875 82.656,75.8125 17.719,54.96875 11.968,-57.625 -95.374,-82.75 -33.282,-102.34375 92.344,-75.5625 18.219,13.28125 84.219,-11.125 c 12.622,-38.59744 13.582,-79.14703 25.187,-117.96875 l -77.719,-22.78125 c 6.241,-9.21684 19.132,-28.13144 33.188,-48.71875 l 50.062,-58.125 -90.375,-32.875 -106.156,-146.46875 c 26.717,-25.79119 56.164,-48.03395 85.687,-70.40625 l 4.813,-510.7187 113.5,-51.5313 87,-276.625 -267,-403.9687 16.781,-736.375 -118.5,0 z"
         transform="matrix(0.26458334,0,0,0.26458334,-2022.8815,730.58151)"
         id="path4113"
         inkscape:connector-curvature="0" />
      <path
         inkscape:connector-curvature="0"
         id="path4325"
         transform="matrix(0.26458334,0,0,0.26458334,-2022.8815,730.58151)"
         d="m 11769.156,-3011.5312 8.125,777.4374 c 0,0 312.323,361.2662 301.157,396.75 l -63.782,202.6563 -133.594,63.5937 -15.187,513.8126 -111.125,89.8437 177.75,193.09375 37.562,21.90625 c -24.324,33.88943 -60.716,88.7964 -56.031,87.625 2.47,-0.61729 13.044,1.84795 23.875,4.71875 l -0.625,0.75 62.844,19.1875 -14.781,86.28125 -54.282,8.1875 -33.25,-10.9375 -118.437,78.03125 54.844,128.96875 82.656,75.8125 17.719,54.96875 11.968,-57.625 -95.374,-82.75 -33.282,-102.34375 92.344,-75.5625 18.219,13.28125 84.219,-11.125 c 12.622,-38.59744 13.582,-79.14703 25.187,-117.96875 l -77.719,-22.78125 c 6.241,-9.21684 19.132,-28.13144 33.188,-48.71875 l 50.062,-58.125 -90.375,-32.875 -106.156,-146.46875 c 26.717,-25.79119 56.164,-48.03395 85.687,-70.40625 l 4.813,-510.7187 113.5,-51.5313 87,-276.625 -267,-403.9687 16.781,-736.375 -118.5,0 z"
         style="color:#000000;fill:#00ffff;fill-opacity:1;fill-rule:nonzero;stroke:none;stroke-width:2;marker:none;visibility:visible;display:inline;overflow:visible;filter:url(#filter4363);enable-background:accumulate" />
    </g>
    <g
       id="g4119"
       transform="matrix(0.48054322,0,0,0.48054322,-933.45128,-488.79139)"
       inkscape:export-filename="C:\Users\rober\Desktop\assets\ASSETS_2019\electrical_effects\9.png"
       inkscape:export-xdpi="90"
       inkscape:export-ydpi="90">
      <path
         style="opacity:0.69911504999999996;color:#000000;fill:none;fill-opacity:1;fill-rule:nonzero;stroke:none;stroke-width:10;marker:none;visibility:visible;display:inline;overflow:visible;enable-background:accumulate"
         d="m 1029.6295,-66.219376 208.323,0 0,750.313296 -208.323,0 z"
         id="rect4121"
         inkscape:connector-curvature="0"
         sodipodi:nodetypes="ccccc"
         inkscape:export-filename="C:\Users\rober\Desktop\assets\ASSETS_2019\electrical_effects\bolt_strike\animation\bolt_stike_09.png"
         inkscape:export-xdpi="90"
         inkscape:export-ydpi="90" />
      <path
         inkscape:connector-curvature="0"
         id="path4123"
         transform="matrix(0.26458334,0,0,0.26458334,-2022.8815,730.58151)"
         d="m 11769.156,-3011.5312 8.125,777.4374 c 0,0 312.323,361.2662 301.157,396.75 l -63.782,202.6563 -133.594,63.5937 -15.187,513.8126 -111.125,89.8437 177.75,193.09375 37.562,21.90625 c -24.324,33.88943 -60.716,88.7964 -56.031,87.625 2.47,-0.61729 13.044,1.84795 23.875,4.71875 l -0.625,0.75 62.844,19.1875 -14.781,86.28125 -54.282,8.1875 -33.25,-10.9375 -118.437,78.03125 54.844,128.96875 82.656,75.8125 17.719,54.96875 11.968,-57.625 -95.374,-82.75 -33.282,-102.34375 92.344,-75.5625 18.219,13.28125 84.219,-11.125 c 12.622,-38.59744 13.582,-79.14703 25.187,-117.96875 l -77.719,-22.78125 c 6.241,-9.21684 19.132,-28.13144 33.188,-48.71875 l 50.062,-58.125 -90.375,-32.875 -106.156,-146.46875 c 26.717,-25.79119 56.164,-48.03395 85.687,-70.40625 l 4.813,-510.7187 113.5,-51.5313 87,-276.625 -267,-403.9687 16.781,-736.375 -118.5,0 z"
         style="opacity:0.44690265;color:#000000;fill:#00ffff;fill-opacity:1;fill-rule:nonzero;stroke:none;stroke-width:2;marker:none;visibility:visible;display:inline;overflow:visible;enable-background:accumulate" />
      <path
         style="opacity:0.44690265;color:#000000;fill:#00ffff;fill-opacity:1;fill-rule:nonzero;stroke:none;stroke-width:2;marker:none;visibility:visible;display:inline;overflow:visible;filter:url(#filter4367);enable-background:accumulate"
         d="m 11769.156,-3011.5312 8.125,777.4374 c 0,0 312.323,361.2662 301.157,396.75 l -63.782,202.6563 -133.594,63.5937 -15.187,513.8126 -111.125,89.8437 177.75,193.09375 37.562,21.90625 c -24.324,33.88943 -60.716,88.7964 -56.031,87.625 2.47,-0.61729 13.044,1.84795 23.875,4.71875 l -0.625,0.75 62.844,19.1875 -14.781,86.28125 -54.282,8.1875 -33.25,-10.9375 -118.437,78.03125 54.844,128.96875 82.656,75.8125 17.719,54.96875 11.968,-57.625 -95.374,-82.75 -33.282,-102.34375 92.344,-75.5625 18.219,13.28125 84.219,-11.125 c 12.622,-38.59744 13.582,-79.14703 25.187,-117.96875 l -77.719,-22.78125 c 6.241,-9.21684 19.132,-28.13144 33.188,-48.71875 l 50.062,-58.125 -90.375,-32.875 -106.156,-146.46875 c 26.717,-25.79119 56.164,-48.03395 85.687,-70.40625 l 4.813,-510.7187 113.5,-51.5313 87,-276.625 -267,-403.9687 16.781,-736.375 -118.5,0 z"
         transform="matrix(0.26458334,0,0,0.26458334,-2022.8815,730.58151)"
         id="path4331"
         inkscape:connector-curvature="0" />
    </g>
    <g
       transform="matrix(0.48054322,0,0,0.48054322,-823.72937,-488.79139)"
       id="g4125"
       inkscape:export-filename="C:\Users\rober\Desktop\assets\ASSETS_2019\electrical_effects\10.png"
       inkscape:export-xdpi="90"
       inkscape:export-ydpi="90">
      <path
         style="opacity:0.69911504999999996;color:#000000;fill:none;fill-opacity:1;fill-rule:nonzero;stroke:none;stroke-width:10;marker:none;visibility:visible;display:inline;overflow:visible;enable-background:accumulate"
         d="m 1029.6295,-66.219376 208.323,0 0,750.313296 -208.323,0 z"
         id="rect4127"
         inkscape:connector-curvature="0"
         sodipodi:nodetypes="ccccc"
         inkscape:export-filename="C:\Users\rober\Desktop\assets\ASSETS_2019\electrical_effects\bolt_strike\animation\bolt_stike_10.png"
         inkscape:export-xdpi="90"
         inkscape:export-ydpi="90" />
      <path
         style="opacity:0.07079647;color:#000000;fill:#00ffff;fill-opacity:1;fill-rule:nonzero;stroke:none;stroke-width:2;marker:none;visibility:visible;display:inline;overflow:visible;enable-background:accumulate"
         d="m 11769.156,-3011.5312 8.125,777.4374 c 0,0 312.323,361.2662 301.157,396.75 l -63.782,202.6563 -133.594,63.5937 -15.187,513.8126 -111.125,89.8437 177.75,193.09375 37.562,21.90625 c -24.324,33.88943 -60.716,88.7964 -56.031,87.625 2.47,-0.61729 13.044,1.84795 23.875,4.71875 l -0.625,0.75 62.844,19.1875 -14.781,86.28125 -54.282,8.1875 -33.25,-10.9375 -118.437,78.03125 54.844,128.96875 82.656,75.8125 17.719,54.96875 11.968,-57.625 -95.374,-82.75 -33.282,-102.34375 92.344,-75.5625 18.219,13.28125 84.219,-11.125 c 12.622,-38.59744 13.582,-79.14703 25.187,-117.96875 l -77.719,-22.78125 c 6.241,-9.21684 19.132,-28.13144 33.188,-48.71875 l 50.062,-58.125 -90.375,-32.875 -106.156,-146.46875 c 26.717,-25.79119 56.164,-48.03395 85.687,-70.40625 l 4.813,-510.7187 113.5,-51.5313 87,-276.625 -267,-403.9687 16.781,-736.375 -118.5,0 z"
         transform="matrix(0.26458334,0,0,0.26458334,-2022.8815,730.58151)"
         id="path4129"
         inkscape:connector-curvature="0" />
      <path
         inkscape:connector-curvature="0"
         id="path4337"
         transform="matrix(0.26458334,0,0,0.26458334,-2022.8815,730.58151)"
         d="m 11769.156,-3011.5312 8.125,777.4374 c 0,0 312.323,361.2662 301.157,396.75 l -63.782,202.6563 -133.594,63.5937 -15.187,513.8126 -111.125,89.8437 177.75,193.09375 37.562,21.90625 c -24.324,33.88943 -60.716,88.7964 -56.031,87.625 2.47,-0.61729 13.044,1.84795 23.875,4.71875 l -0.625,0.75 62.844,19.1875 -14.781,86.28125 -54.282,8.1875 -33.25,-10.9375 -118.437,78.03125 54.844,128.96875 82.656,75.8125 17.719,54.96875 11.968,-57.625 -95.374,-82.75 -33.282,-102.34375 92.344,-75.5625 18.219,13.28125 84.219,-11.125 c 12.622,-38.59744 13.582,-79.14703 25.187,-117.96875 l -77.719,-22.78125 c 6.241,-9.21684 19.132,-28.13144 33.188,-48.71875 l 50.062,-58.125 -90.375,-32.875 -106.156,-146.46875 c 26.717,-25.79119 56.164,-48.03395 85.687,-70.40625 l 4.813,-510.7187 113.5,-51.5313 87,-276.625 -267,-403.9687 16.781,-736.375 -118.5,0 z"
         style="opacity:0.07079647;color:#000000;fill:#00ffff;fill-opacity:1;fill-rule:nonzero;stroke:none;stroke-width:2;marker:none;visibility:visible;display:inline;overflow:visible;filter:url(#filter4379);enable-background:accumulate" />
    </g>
    <path
       sodipodi:nodetypes="cccc"
       inkscape:connector-curvature="0"
       id="path4395"
       d="m -999.90878,-248.51274 8.07429,0 c 0,0 1.71273,-2.69143 -1.34572,-4.5265 -3.24877,-1.34087 -7.82779,0.47502 -6.72857,4.5265 z"
       style="color:#000000;fill:#00ffff;fill-opacity:1;fill-rule:nonzero;stroke:none;stroke-width:10;marker:none;visibility:visible;display:inline;overflow:visible;filter:url(#filter4414);enable-background:accumulate"
       transform="matrix(1.8844854,0,0,1.8844854,1164.3756,303.68904)" />
    <path
       style="color:#000000;fill:#b8ffff;fill-opacity:1;fill-rule:nonzero;stroke:none;stroke-width:10;marker:none;visibility:visible;display:inline;overflow:visible;enable-background:accumulate"
       d="m -719.93791,-164.6296 15.21588,0 c 0,0 3.22762,-5.07195 -2.53598,-8.53011 -6.12227,-2.52685 -14.75137,0.89516 -12.6799,8.53011 z"
       id="path4157"
       inkscape:connector-curvature="0"
       sodipodi:nodetypes="cccc" />
    <g
       id="g4171"
       transform="matrix(1.8844854,0,0,1.8844854,1371.8284,216.34051)">
      <path
         inkscape:connector-curvature="0"
         id="path4422"
         transform="matrix(0.26458334,0,0,0.26458334,-113.74661,-236.29243)"
         d="m -3517.6562,84.09375 c -1.4336,-0.37681 -8.4332,10.218539 -15.7813,22.5 -2.7266,-0.7997 -5.5859,-1.18883 -8.4063,-1.15625 -0.5536,-5.16941 -1.5624,-15.157031 -1.5624,-18.875 0,-4.337543 -2.2321,6.498382 -2.6563,19.25 -2.1542,0.34153 -4.2265,0.93244 -6.1563,1.75 -4.3635,-6.94679 -9.7866,-14.990324 -13.0937,-17.5625 -4.8351,-3.760594 1.7054,7.662894 8.7187,20.03125 -3.7857,2.77248 -6.4048,6.74498 -6.8437,11.8125 -11.7708,-2.95251 -22.6613,-2.2388 -18.3125,-0.375 3.2497,1.3927 12.5382,3.04566 18.3438,4 0.1222,1.1369 0.3554,2.3072 0.6874,3.53125 l 38.3126,0 c 0,0 1.3149,-2.11882 1.9374,-5.1875 5.5393,-2.54983 15.4157,-7.22818 17.375,-9.1875 2.4695,-2.46954 -6.7534,0.11495 -17.125,4.65625 -0.3726,-3.38768 -2.113,-7.19131 -6.7187,-10.53125 4.5104,-7.92157 11.0824,-19.971828 11.5313,-23.5625 0.085,-0.684322 -0.016,-1.032268 -0.25,-1.09375 z"
         style="color:#000000;fill:#00ffff;fill-opacity:1;fill-rule:nonzero;stroke:none;stroke-width:10;marker:none;visibility:visible;display:inline;overflow:visible;filter:url(#filter4424);enable-background:accumulate" />
      <path
         style="color:#000000;fill:#b8ffff;fill-opacity:1;fill-rule:nonzero;stroke:none;stroke-width:10;marker:none;visibility:visible;display:inline;overflow:visible;enable-background:accumulate"
         d="m -3517.6562,84.09375 c -1.4336,-0.37681 -8.4332,10.218539 -15.7813,22.5 -2.7266,-0.7997 -5.5859,-1.18883 -8.4063,-1.15625 -0.5536,-5.16941 -1.5624,-15.157031 -1.5624,-18.875 0,-4.337543 -2.2321,6.498382 -2.6563,19.25 -2.1542,0.34153 -4.2265,0.93244 -6.1563,1.75 -4.3635,-6.94679 -9.7866,-14.990324 -13.0937,-17.5625 -4.8351,-3.760594 1.7054,7.662894 8.7187,20.03125 -3.7857,2.77248 -6.4048,6.74498 -6.8437,11.8125 -11.7708,-2.95251 -22.6613,-2.2388 -18.3125,-0.375 3.2497,1.3927 12.5382,3.04566 18.3438,4 0.1222,1.1369 0.3554,2.3072 0.6874,3.53125 l 38.3126,0 c 0,0 1.3149,-2.11882 1.9374,-5.1875 5.5393,-2.54983 15.4157,-7.22818 17.375,-9.1875 2.4695,-2.46954 -6.7534,0.11495 -17.125,4.65625 -0.3726,-3.38768 -2.113,-7.19131 -6.7187,-10.53125 4.5104,-7.92157 11.0824,-19.971828 11.5313,-23.5625 0.085,-0.684322 -0.016,-1.032268 -0.25,-1.09375 z"
         transform="matrix(0.26458334,0,0,0.26458334,-113.74661,-236.29243)"
         id="path4159"
         inkscape:connector-curvature="0" />
    </g>
    <g
       id="g4179"
       transform="matrix(2.2578229,0,0,2.2578229,1874.5468,291.81491)">
      <path
         inkscape:connector-curvature="0"
         id="path4428"
         transform="matrix(0.22083373,0,0,0.22083373,-317.59452,-230.64875)"
         d="m -3280.8125,56.875 c -2.0321,0.700465 -21.2005,28.645968 -32.0625,44.65625 -2.7784,-0.58454 -5.6274,-0.82131 -8.4375,-0.71875 -0.3115,-11.917221 -0.8609,-28.919211 -1.75,-32.03125 -1.1969,-4.189095 -2.9198,14.138589 -2.875,32.53125 -2.421,0.41741 -4.7294,1.10869 -6.9063,2.03125 -3.9101,-6.226565 -8.5194,-13.132459 -12.2812,-17.5625 -6.2425,-8.86845 -12.0833,-16.81869 -13.5312,-17.6875 -3.1801,-1.907969 7.2106,19.24618 16.9374,41.46875 -2.1884,2.52428 -3.7473,5.56874 -4.375,9.09375 -13.6496,-2.14068 -38.1703,-5.17095 -35.125,-3.34375 1.2198,0.73187 6.1254,2.27079 11.9063,3.96875 0.1455,0.21468 0.4693,0.43325 1.0625,0.6875 2.2659,0.97108 7.0874,2.08809 12.0938,3.0625 4.5362,1.24667 8.5295,2.30959 10.0624,2.71875 0.1559,1.05703 0.3219,2.13254 0.625,3.25 l 45.9063,0 c 0,0 1.7608,-2.81718 2.4375,-6.84375 l 32.2188,-16.4375 c 0,0 -18.4152,4.32381 -32.7188,8.5 -0.9232,-2.85702 -2.7768,-5.81251 -6.1562,-8.5625 8.4861,-16.784034 22.6761,-45.139174 23.1562,-48.5 0.032,-0.224543 -0.048,-0.329499 -0.1875,-0.28125 z"
         style="color:#000000;fill:#00ffff;fill-opacity:1;fill-rule:nonzero;stroke:none;stroke-width:10;marker:none;visibility:visible;display:inline;overflow:visible;filter:url(#filter4434);enable-background:accumulate" />
      <path
         style="color:#000000;fill:#b8ffff;fill-opacity:1;fill-rule:nonzero;stroke:none;stroke-width:10;marker:none;visibility:visible;display:inline;overflow:visible;enable-background:accumulate"
         d="m -3280.8125,56.875 c -2.0321,0.700465 -21.2005,28.645968 -32.0625,44.65625 -2.7784,-0.58454 -5.6274,-0.82131 -8.4375,-0.71875 -0.3115,-11.917221 -0.8609,-28.919211 -1.75,-32.03125 -1.1969,-4.189095 -2.9198,14.138589 -2.875,32.53125 -2.421,0.41741 -4.7294,1.10869 -6.9063,2.03125 -3.9101,-6.226565 -8.5194,-13.132459 -12.2812,-17.5625 -6.2425,-8.86845 -12.0833,-16.81869 -13.5312,-17.6875 -3.1801,-1.907969 7.2106,19.24618 16.9374,41.46875 -2.1884,2.52428 -3.7473,5.56874 -4.375,9.09375 -13.6496,-2.14068 -38.1703,-5.17095 -35.125,-3.34375 1.2198,0.73187 6.1254,2.27079 11.9063,3.96875 0.1455,0.21468 0.4693,0.43325 1.0625,0.6875 2.2659,0.97108 7.0874,2.08809 12.0938,3.0625 4.5362,1.24667 8.5295,2.30959 10.0624,2.71875 0.1559,1.05703 0.3219,2.13254 0.625,3.25 l 45.9063,0 c 0,0 1.7608,-2.81718 2.4375,-6.84375 l 32.2188,-16.4375 c 0,0 -18.4152,4.32381 -32.7188,8.5 -0.9232,-2.85702 -2.7768,-5.81251 -6.1562,-8.5625 8.4861,-16.784034 22.6761,-45.139174 23.1562,-48.5 0.032,-0.224543 -0.048,-0.329499 -0.1875,-0.28125 z"
         transform="matrix(0.22083373,0,0,0.22083373,-317.59452,-230.64875)"
         id="path4181"
         inkscape:connector-curvature="0" />
    </g>
    <g
       transform="matrix(1.1981111,0,0,1.1981111,325.14806,40.050402)"
       id="g4207" />
    <path
       style="opacity:0.66371681;color:#000000;fill:#b8ffff;fill-opacity:1;fill-rule:nonzero;stroke:none;stroke-width:10;marker:none;visibility:visible;display:inline;overflow:visible;enable-background:accumulate"
       d="m -411.44352,-201.58827 c -0.0375,0.002 -0.0468,0.0331 -0.0468,0.0934 0,0.96508 1.1998,3.61488 1.1998,3.61488 2.17142,6.03171 8.68831,14.71877 10.37719,16.89019 1.68885,2.17142 -3.61633,-8.44046 -5.06392,-11.57694 -1.35714,-2.94045 -5.90437,-9.06313 -6.46629,-9.02162 z m 42.41245,0.57651 c -2.65391,4.58411 -7.23729,11.57793 -6.99606,12.54299 0.24127,0.96508 5.54797,-5.78262 6.51307,-7.71277 0.96499,-1.93014 0.48299,-4.83022 0.48299,-4.83022 z m -20.52066,2.39952 c -0.44107,0 -0.71672,1.21536 -0.71672,1.21536 0.24123,5.3079 -0.23324,11.3532 0.24932,13.52462 0.48249,2.17141 0.96599,-2.89958 0.96599,-4.34722 0,-1.44759 0.72378,-8.44653 0,-9.89414 -0.18091,-0.36192 -0.35157,-0.49862 -0.49859,-0.49862 z m 32.76761,20.02205 c -0.0463,-0.001 -0.11154,5.2e-4 -0.18693,0.0151 -1.20638,0.24125 -4.58093,1.21534 -4.58093,1.21534 l 0.96605,-0.24929 c -6.27298,3.13647 -12.54906,5.78822 -10.86018,5.54695 1.68885,-0.24126 9.65435,-2.40854 11.34322,-3.61487 1.58326,-1.13093 4.015,-2.89604 3.31882,-2.91372 z m -62.91752,7.04278 c -1.30115,0.0232 -1.97682,0.1502 -1.44909,0.45186 1.68885,0.96506 10.13789,2.6649 12.30931,3.14743 2.17138,0.48254 5.54696,-0.73232 5.54696,-0.73232 l -4.81465,-1.9321 c -2.81982,-0.49762 -8.72996,-0.98605 -11.59253,-0.93487 z"
       id="path4221"
       inkscape:connector-curvature="0" />
    <path
       style="opacity:0.30530976;color:#000000;fill:#00ffff;fill-opacity:1;fill-rule:nonzero;stroke:none;stroke-width:10;marker:none;visibility:visible;display:inline;overflow:visible;enable-background:accumulate"
       d="m -280.73154,-209.45685 c -0.96505,0.24127 -1.19974,1.93209 -1.19974,1.93209 0,3.86029 1.44151,6.5186 1.68279,4.34719 0.24127,-2.17142 0.482,-6.52055 -0.48305,-6.27928 z m -24.41596,3.95767 c -0.52004,0.019 -0.66997,0.62326 -0.66997,0.62326 2.41263,5.54916 7.47147,12.79886 7.71274,11.59252 0.24128,-1.20636 -2.89255,-7.73127 -5.06396,-10.62649 -0.95,-1.26666 -1.5743,-1.60415 -1.97881,-1.58929 z m 48.17755,2.80464 c -0.64858,0.0356 -1.55814,0.71675 -1.55814,0.71675 -2.41268,2.65394 -4.57946,5.54646 -3.13187,5.06393 1.4476,-0.48255 5.53893,-4.09131 5.29766,-5.29767 -0.0753,-0.37698 -0.31282,-0.49922 -0.60765,-0.48301 z m 9.5202,22.88901 c -0.13947,0.007 -0.21809,0.0311 -0.21809,0.0311 -2.89526,2.17141 -4.58701,3.37313 -2.8982,3.13186 1.68888,-0.24128 4.82219,-1.45004 4.58099,-2.41512 -0.18092,-0.7238 -1.04624,-0.77053 -1.4647,-0.74789 z m -60.78286,7.26091 c -4.34283,0 -8.68536,0.009 -7.47906,0.73233 1.20638,0.7238 6.52253,1.44103 8.21141,1.19975 1.68882,-0.24127 -0.73235,-1.93208 -0.73235,-1.93208 z"
       id="path4236"
       inkscape:connector-curvature="0" />
    <path
       style="color:#000000;fill:#ffffff;fill-opacity:1;fill-rule:nonzero;stroke:none;stroke-width:10;marker:none;visibility:visible;display:inline;overflow:visible;enable-background:accumulate"
       d="m -1063.7714,-525.6247 c -0.3412,6.4829 9.5538,119.76303 9.5538,119.76303 l 29.3437,31.04967 -9.2126,31.04968 10.9185,-32.0733 -28.32,-32.75569 -6.1417,-115.66856 z"
       id="path4383"
       inkscape:connector-curvature="0" />
    <path
       style="color:#000000;fill:#ffffff;fill-opacity:1;fill-rule:nonzero;stroke:none;stroke-width:10;marker:none;visibility:visible;display:inline;overflow:visible;enable-background:accumulate"
       d="m -952.87969,-526.64831 c -1.36477,16.03664 -4.77682,121.12785 -4.77682,121.12785 l 41.62701,30.70846 -8.18891,31.39089 10.23613,-32.41451 -41.96827,-32.07328 8.87138,-118.39821 z"
       id="path4385"
       inkscape:connector-curvature="0" />
    <path
       style="color:#000000;fill:#ffffff;fill-opacity:1;fill-rule:nonzero;stroke:none;stroke-width:10;marker:none;visibility:visible;display:inline;overflow:visible;enable-background:accumulate"
       d="m -841.30554,-524.94228 c -1.36483,6.8241 -8.18897,119.76302 -8.18897,119.76302 l 17.40152,20.47231 -7.84772,34.46174 9.21249,-35.14415 -16.03662,-21.83713 9.89493,-115.32736 z"
       id="path4387"
       inkscape:connector-curvature="0" />
    <path
       style="color:#000000;fill:#ffffff;fill-opacity:1;fill-rule:nonzero;stroke:none;stroke-width:10;marker:none;visibility:visible;display:inline;overflow:visible;enable-background:accumulate"
       d="m -734.16713,-526.64831 c 0.3412,5.80049 8.87136,118.057 8.87136,118.057 l -18.76629,20.81352 -4.77687,24.56677 16.37783,19.4487 -12.96579,-20.47231 4.43567,-23.54316 18.76629,-19.10749 -6.1417,-119.76303 z"
       id="path4389"
       inkscape:connector-curvature="0" />
    <path
       style="color:#000000;fill:#ffffff;fill-opacity:1;fill-rule:nonzero;stroke:none;stroke-width:10;marker:none;visibility:visible;display:inline;overflow:visible;enable-background:accumulate"
       d="m -623.27542,-525.28349 c 0,6.14169 0.68238,126.58713 1.02362,127.95195 0.3412,1.36483 17.06022,29.68486 17.06022,29.68486 l 2.38846,23.54316 -0.3412,-24.90798 -15.69543,-30.02607 1.02358,-126.58713 z"
       id="path4391"
       inkscape:connector-curvature="0" />
    <path
       style="color:#000000;fill:#ffffff;fill-opacity:1;fill-rule:nonzero;stroke:none;stroke-width:10;marker:none;visibility:visible;display:inline;overflow:visible;enable-background:accumulate"
       d="m -513.06616,-526.30711 c -0.3412,22.17835 0.68243,103.38518 0.68243,103.38518 l 36.16775,47.76872 -8.18892,27.97883 9.55374,-29.00244 -34.46171,-50.15716 1.36482,-99.29072 z"
       id="path4393"
       inkscape:connector-curvature="0" />
    <path
       inkscape:connector-curvature="0"
       id="path4438"
       d="m -836.20659,-268.12482 c -0.0199,10e-4 -0.0248,0.0176 -0.0248,0.0496 0,0.51212 0.63667,1.91823 0.63667,1.91823 1.15226,3.20072 4.61044,7.8105 5.50664,8.96276 0.89619,1.15226 -1.919,-4.47892 -2.68716,-6.14329 -0.72017,-1.56035 -3.13315,-4.80934 -3.43133,-4.78731 z m 22.50612,0.30593 c -1.4083,2.43255 -3.84046,6.14381 -3.71245,6.65592 0.12803,0.51212 2.94402,-3.06854 3.45615,-4.09277 0.51207,-1.02423 0.2563,-2.56315 0.2563,-2.56315 z m -10.88927,1.2733 c -0.23405,0 -0.38032,0.64493 -0.38032,0.64493 0.12801,2.81663 -0.12377,6.02456 0.1323,7.17682 0.25603,1.15226 0.5126,-1.53866 0.5126,-2.30684 0,-0.76817 0.38407,-4.48215 0,-5.25032 -0.096,-0.19205 -0.18656,-0.26459 -0.26458,-0.26459 z m 17.3881,10.62468 c -0.0246,-6.2e-4 -0.0592,2.7e-4 -0.0992,0.008 -0.64016,0.12802 -2.43086,0.64492 -2.43086,0.64492 l 0.51263,-0.13229 c -3.32875,1.66437 -6.65914,3.07152 -5.76294,2.94349 0.89619,-0.12803 5.12307,-1.27809 6.01927,-1.91823 0.84015,-0.60013 2.13055,-1.53678 1.76112,-1.54616 z m -33.38711,3.73724 c -0.69046,0.0123 -1.049,0.0797 -0.76896,0.23978 0.89619,0.51211 5.37966,1.41412 6.53192,1.67018 1.15224,0.25606 2.94349,-0.38861 2.94349,-0.38861 l -2.55489,-1.02526 c -1.49633,-0.26406 -4.63254,-0.52325 -6.15156,-0.49609 z"
       style="opacity:0.66371681;color:#000000;fill:#00ffff;fill-opacity:1;fill-rule:nonzero;stroke:none;stroke-width:10;marker:none;visibility:visible;display:inline;overflow:visible;filter:url(#filter4440);enable-background:accumulate"
       transform="matrix(1.8844854,0,0,1.8844854,1164.3756,303.68904)" />
  </g>
</svg>
