<?xml version="1.0" encoding="UTF-8" standalone="no"?>
<!-- Created with Inkscape (http://www.inkscape.org/) -->

<svg
   xmlns:dc="http://purl.org/dc/elements/1.1/"
   xmlns:cc="http://creativecommons.org/ns#"
   xmlns:rdf="http://www.w3.org/1999/02/22-rdf-syntax-ns#"
   xmlns:svg="http://www.w3.org/2000/svg"
   xmlns="http://www.w3.org/2000/svg"
   xmlns:sodipodi="http://sodipodi.sourceforge.net/DTD/sodipodi-0.dtd"
   xmlns:inkscape="http://www.inkscape.org/namespaces/inkscape"
   width="3520.5662"
   height="512"
   viewBox="0 0 931.48312 135.46667"
   version="1.1"
   id="svg23489"
   inkscape:version="0.48.5 r10040"
   sodipodi:docname="energy_pop_2.svg">
  <defs
     id="defs23483">
    <filter
       inkscape:collect="always"
       id="filter4615"
       color-interpolation-filters="sRGB">
      <feGaussianBlur
         inkscape:collect="always"
         stdDeviation="10.808904"
         id="feGaussianBlur4617" />
    </filter>
    <filter
       inkscape:collect="always"
       id="filter4619"
       color-interpolation-filters="sRGB">
      <feGaussianBlur
         inkscape:collect="always"
         stdDeviation="10.356692"
         id="feGaussianBlur4621" />
    </filter>
    <filter
       inkscape:collect="always"
       id="filter4623"
       color-interpolation-filters="sRGB">
      <feGaussianBlur
         inkscape:collect="always"
         stdDeviation="35.944814"
         id="feGaussianBlur4625" />
    </filter>
    <filter
       inkscape:collect="always"
       id="filter4627"
       color-interpolation-filters="sRGB">
      <feGaussianBlur
         inkscape:collect="always"
         stdDeviation="8.033783"
         id="feGaussianBlur4629" />
    </filter>
    <filter
       inkscape:collect="always"
       id="filter4631"
       color-interpolation-filters="sRGB">
      <feGaussianBlur
         inkscape:collect="always"
         stdDeviation="5.0233467"
         id="feGaussianBlur4633" />
    </filter>
    <filter
       inkscape:collect="always"
       id="filter4635"
       color-interpolation-filters="sRGB">
      <feGaussianBlur
         inkscape:collect="always"
         stdDeviation="1.9129997"
         id="feGaussianBlur4637" />
    </filter>
    <filter
       inkscape:collect="always"
       id="filter4639"
       color-interpolation-filters="sRGB">
      <feGaussianBlur
         inkscape:collect="always"
         stdDeviation="3.0170153"
         id="feGaussianBlur4641" />
    </filter>
  </defs>
  <sodipodi:namedview
     id="base"
     pagecolor="#525252"
     bordercolor="#666666"
     borderopacity="1.0"
     inkscape:pageopacity="0"
     inkscape:pageshadow="2"
     inkscape:zoom="0.24030372"
     inkscape:cx="1214.1748"
     inkscape:cy="126.01319"
     inkscape:document-units="px"
     inkscape:current-layer="layer1"
     showgrid="false"
     inkscape:pagecheckerboard="false"
     showborder="true"
     units="px"
     inkscape:window-width="1920"
     inkscape:window-height="1017"
     inkscape:window-x="-8"
     inkscape:window-y="-8"
     inkscape:window-maximized="1"
     fit-margin-top="0"
     fit-margin-left="0"
     fit-margin-right="0"
     fit-margin-bottom="0"
     showguides="true"
     inkscape:guide-bbox="true"
     inkscape:snap-global="true"
     inkscape:snap-bbox="false">
    <inkscape:grid
       type="xygrid"
       id="grid24034"
       spacingx="2.6458333"
       spacingy="2.6458333"
       empspacing="10"
       visible="true"
       enabled="true"
       snapvisiblegridlinesonly="true"
       originx="4887.0795px"
       originy="-2103.0022px" />
  </sodipodi:namedview>
  <metadata
     id="metadata23486">
    <rdf:RDF>
      <cc:Work
         rdf:about="">
        <dc:format>image/svg+xml</dc:format>
        <dc:type
           rdf:resource="http://purl.org/dc/dcmitype/StillImage" />
        <dc:title></dc:title>
        <cc:license
           rdf:resource="" />
        <dc:creator>
          <cc:Agent>
            <dc:title>Robert Brooks</dc:title>
          </cc:Agent>
        </dc:creator>
      </cc:Work>
    </rdf:RDF>
  </metadata>
  <g
     inkscape:label="Layer 1"
     inkscape:groupmode="layer"
     id="layer1"
     transform="translate(1293.0398,394.88602)">
    <g
       id="g4561"
       transform="translate(-213.57983,0)" />
    <g
       transform="matrix(1.1981111,0,0,1.1981111,325.14806,40.050402)"
       id="g4207" />
    <g
       transform="translate(-727.47507,0)"
       id="g3988" />
    <g
       id="g4762"
       transform="translate(-81.170174,0)"
       inkscape:export-filename="C:\Users\rober\Desktop\assets\ASSETS_2019\electrical_effects\energy_pop_2\animations\energy_pop_two_06.png"
       inkscape:export-xdpi="90"
       inkscape:export-ydpi="90">
      <g
         inkscape:export-ydpi="90"
         inkscape:export-xdpi="90"
         inkscape:export-filename="C:\Users\rober\Desktop\assets\ASSETS_2019\electrical_effects\energy_pop_2\6.png"
         transform="matrix(0.27220244,0,0,0.27220244,151.00388,-56.934564)"
         id="g4584">
        <g
           id="g4506"
           transform="translate(545.01347,0)">
          <rect
             style="opacity:0;color:#000000;fill:#333333;fill-opacity:1;fill-rule:nonzero;stroke:none;stroke-width:10;marker:none;visibility:visible;display:inline;overflow:visible;enable-background:accumulate"
             id="rect4398"
             width="488.8605"
             height="497.66882"
             x="-3107.5491"
             y="-1241.5446" />
          <path
             inkscape:connector-curvature="0"
             id="path4341"
             d="m -2800.7038,-1198.2303 c -0.061,0.016 -0.1293,0.07 -0.2067,0.1736 -1.6516,2.202 -5.5067,12.1129 -5.5067,12.1129 -4.9547,14.864 -14.3102,59.4563 -12.6586,63.3099 1.6515,3.8536 13.2099,-37.4333 15.412,-48.4436 2.0988,-10.4943 4.1978,-27.4893 2.96,-27.1528 z m -176.7913,10.0624 c -0.091,0.01 -0.1323,0.025 -0.1323,0.025 8.8083,26.9754 41.8393,70.4694 43.4909,67.7168 1.6515,-2.7526 -24.2198,-45.6966 -32.4776,-57.2575 -7.2256,-10.1158 -10.2412,-10.5368 -10.881,-10.4841 z m 308.6778,103.0056 c -1.5119,0.049 -4.2981,0.9242 -8.7809,3.2659 -17.066,9.3589 -46.7911,25.8796 -39.0839,25.8796 7.7073,0 45.6903,-24.7799 45.6903,-24.7799 3.321,-1.5328 5.0609,-4.4584 2.1745,-4.3656 z m -151.7055,56.0172 c -1.6422,0.055 -1.6371,1.1493 -1.6371,1.1493 29.9742,19.0745 29.9724,44.37342 29.9724,55.27314 0,10.8997 -4.6716,20.24891 -4.6716,20.24891 0,0 9.7337,-7.78748 8.5659,-37.3724 -1.1678,-29.58495 -26.0796,-37.75905 -29.9723,-38.92685 -0.9732,-0.2919 -1.7099,-0.3903 -2.2573,-0.3721 z m -239.0593,25.4 c -0.2436,0 -0.4481,0.01 -0.6201,0.025 -5.5052,0.5506 -4.407,3.85306 -4.407,3.85306 14.864,4.95467 44.5934,4.40354 48.9976,3.85297 4.2665,-0.53329 -36.4187,-7.77873 -43.9705,-7.73083 z m 386.8539,21.58013 c -15.9712,0.0355 -26.8001,3.40373 -22.9195,5.16763 4.282,1.94643 25.3069,1.55577 36.2066,0.77724 10.8997,-0.77862 -8.1773,-5.8374 -8.1773,-5.8374 -1.7517,-0.073 -3.4576,-0.11115 -5.1098,-0.10747 z m -50.8992,96.36622 c -1.5932,-0.0451 -1.8025,1.05834 -1.8025,1.05834 12.8461,9.53725 28.4222,18.68239 30.7579,18.48776 2.3356,-0.19468 -16.5455,-12.64685 -23.3578,-17.12352 -2.7675,-1.81864 -4.5075,-2.39178 -5.5976,-2.42258 z m -298.6236,5.72987 c -21.0209,9.3426 -55.2769,38.14536 -48.2699,35.8097 7.0069,-2.33565 42.0401,-23.35528 49.0471,-29.58373 7.007,-6.2284 -0.7772,-6.22597 -0.7772,-6.22597 z m 238.5467,34.99942 c -1.4079,0.0949 -1.0832,3.92741 -1.0832,3.92741 7.7855,21.02087 20.2406,37.37239 20.2406,37.37239 0,0 -8.5634,-26.47402 -14.7918,-36.59518 -2.2383,-3.63729 -3.5759,-4.75784 -4.3656,-4.70462 z m -93.8527,4.77077 c -0.028,-0.001 -0.054,0.004 -0.083,0.008 -1.6186,0.2376 -4.4731,9.26869 -4.4731,9.26869 -3.8928,24.13508 -10.1214,46.70856 -4.6716,45.93001 5.4499,-0.77855 10.8989,-45.15596 10.1203,-52.94147 -0.1596,-1.59664 -0.4802,-2.24588 -0.8929,-2.26549 z"
             style="color:#000000;fill:#00ffff;fill-opacity:1;fill-rule:nonzero;stroke:none;stroke-width:10;marker:none;visibility:visible;display:inline;overflow:visible;enable-background:accumulate" />
          <path
             style="color:#000000;fill:#00ffff;fill-opacity:1;fill-rule:nonzero;stroke:none;stroke-width:10;marker:none;visibility:visible;display:inline;overflow:visible;filter:url(#filter4619);enable-background:accumulate"
             d="m -2800.7038,-1198.2303 c -0.061,0.016 -0.1293,0.07 -0.2067,0.1736 -1.6516,2.202 -5.5067,12.1129 -5.5067,12.1129 -4.9547,14.864 -14.3102,59.4563 -12.6586,63.3099 1.6515,3.8536 13.2099,-37.4333 15.412,-48.4436 2.0988,-10.4943 4.1978,-27.4893 2.96,-27.1528 z m -176.7913,10.0624 c -0.091,0.01 -0.1323,0.025 -0.1323,0.025 8.8083,26.9754 41.8393,70.4694 43.4909,67.7168 1.6515,-2.7526 -24.2198,-45.6966 -32.4776,-57.2575 -7.2256,-10.1158 -10.2412,-10.5368 -10.881,-10.4841 z m 308.6778,103.0056 c -1.5119,0.049 -4.2981,0.9242 -8.7809,3.2659 -17.066,9.3589 -46.7911,25.8796 -39.0839,25.8796 7.7073,0 45.6903,-24.7799 45.6903,-24.7799 3.321,-1.5328 5.0609,-4.4584 2.1745,-4.3656 z m -151.7055,56.0172 c -1.6422,0.055 -1.6371,1.1493 -1.6371,1.1493 29.9742,19.0745 29.9724,44.37342 29.9724,55.27314 0,10.8997 -4.6716,20.24891 -4.6716,20.24891 0,0 9.7337,-7.78748 8.5659,-37.3724 -1.1678,-29.58495 -26.0796,-37.75905 -29.9723,-38.92685 -0.9732,-0.2919 -1.7099,-0.3903 -2.2573,-0.3721 z m -239.0593,25.4 c -0.2436,0 -0.4481,0.01 -0.6201,0.025 -5.5052,0.5506 -4.407,3.85306 -4.407,3.85306 14.864,4.95467 44.5934,4.40354 48.9976,3.85297 4.2665,-0.53329 -36.4187,-7.77873 -43.9705,-7.73083 z m 386.8539,21.58013 c -15.9712,0.0355 -26.8001,3.40373 -22.9195,5.16763 4.282,1.94643 25.3069,1.55577 36.2066,0.77724 10.8997,-0.77862 -8.1773,-5.8374 -8.1773,-5.8374 -1.7517,-0.073 -3.4576,-0.11115 -5.1098,-0.10747 z m -50.8992,96.36622 c -1.5932,-0.0451 -1.8025,1.05834 -1.8025,1.05834 12.8461,9.53725 28.4222,18.68239 30.7579,18.48776 2.3356,-0.19468 -16.5455,-12.64685 -23.3578,-17.12352 -2.7675,-1.81864 -4.5075,-2.39178 -5.5976,-2.42258 z m -298.6236,5.72987 c -21.0209,9.3426 -55.2769,38.14536 -48.2699,35.8097 7.0069,-2.33565 42.0401,-23.35528 49.0471,-29.58373 7.007,-6.2284 -0.7772,-6.22597 -0.7772,-6.22597 z m 238.5467,34.99942 c -1.4079,0.0949 -1.0832,3.92741 -1.0832,3.92741 7.7855,21.02087 20.2406,37.37239 20.2406,37.37239 0,0 -8.5634,-26.47402 -14.7918,-36.59518 -2.2383,-3.63729 -3.5759,-4.75784 -4.3656,-4.70462 z m -93.8527,4.77077 c -0.028,-0.001 -0.054,0.004 -0.083,0.008 -1.6186,0.2376 -4.4731,9.26869 -4.4731,9.26869 -3.8928,24.13508 -10.1214,46.70856 -4.6716,45.93001 5.4499,-0.77855 10.8989,-45.15596 10.1203,-52.94147 -0.1596,-1.59664 -0.4802,-2.24588 -0.8929,-2.26549 z"
             id="path4609"
             inkscape:connector-curvature="0" />
        </g>
      </g>
    </g>
    <g
       id="g4769"
       transform="translate(-97.404206,0)"
       inkscape:export-filename="C:\Users\rober\Desktop\assets\ASSETS_2019\electrical_effects\energy_pop_2\animations\energy_pop_two_07.png"
       inkscape:export-xdpi="90"
       inkscape:export-ydpi="90">
      <g
         inkscape:export-ydpi="90"
         inkscape:export-xdpi="90"
         inkscape:export-filename="C:\Users\rober\Desktop\assets\ASSETS_2019\electrical_effects\energy_pop_2\7.png"
         transform="matrix(0.27220244,0,0,0.27220244,142.66208,-56.934564)"
         id="g4589">
        <g
           id="g4502"
           transform="translate(1124.1591,0)">
          <rect
             y="-1241.5446"
             x="-3107.5491"
             height="497.66882"
             width="488.8605"
             id="rect4396"
             style="opacity:0;color:#000000;fill:#333333;fill-opacity:1;fill-rule:nonzero;stroke:none;stroke-width:10;marker:none;visibility:visible;display:inline;overflow:visible;enable-background:accumulate" />
          <path
             sodipodi:nodetypes="ccccscsssccsscssscsssscssscssccsscsscssscsss"
             inkscape:connector-curvature="0"
             id="path4364"
             d="m -2800.6088,-1209.9333 c -3.8927,7.7855 -5.5898,25.8347 -2.8649,25.0562 2.7249,-0.7786 8.2246,-18.4363 8.9545,-22.5723 0.4184,-3.7997 -4.273,-5.0265 -6.0896,-2.4839 z m -180.2101,14.2165 c -2.8466,-0.055 -3.2825,3.4478 -3.2825,3.4478 5.8391,11.6783 15.5746,22.1911 17.1318,17.909 1.5571,-4.282 -3.8919,-15.5782 -10.1203,-19.8603 -1.5572,-1.0705 -2.7802,-1.4782 -3.729,-1.4965 z m 320.5592,103.7084 c -2.2318,0.087 -4.6715,1.3064 -4.6715,1.3064 -11.0104,2.2021 -13.2098,11.5638 -8.8057,11.0132 4.4042,-0.5505 17.6162,-3.8544 17.0656,-9.3596 -0.2408,-2.4085 -1.8525,-3.0277 -3.5884,-2.96 z m -406.4496,85.9896 c -5.0087,0.083 -7.9146,1.32 -6.1598,3.9522 3.3031,4.95468 21.4706,6.05371 26.4252,4.95267 4.9547,-1.10104 -3.853,-6.60637 -3.853,-6.60637 -5.9352,-1.5483 -11.993,-2.3718 -16.4124,-2.2985 z m 409.327,22.82031 c -10.8384,0.007 -14.0836,5.97577 -9.7483,6.45748 4.9547,0.55051 10.4594,1.64674 17.0657,0.5457 6.6062,-1.10104 1.4904,-6.41168 -2.2077,-6.6063 -1.858,-0.27528 -3.5614,-0.39796 -5.1097,-0.39688 z m -52.3462,105.92427 c -0.5731,0.0151 -0.893,0.24591 -0.893,0.72761 0,3.85363 2.7451,4.95265 2.7451,4.95265 11.5609,8.80833 19.2698,11.55965 18.7193,7.70599 -0.4817,-3.3719 -16.5597,-13.49163 -20.5714,-13.38625 z m -344.8265,18.03303 c -1.63,0.0593 -4.0018,1.95955 -4.0018,1.95955 -11.5609,5.5052 -19.8175,18.71855 -14.3123,15.96595 5.5052,-2.75259 19.8189,-11.56179 19.8189,-15.96595 0,-1.51392 -0.651,-1.99062 -1.5048,-1.95955 z m 282.9057,38.20747 c -0.2153,0.005 -0.4302,0.0311 -0.6366,0.0827 -4.4042,1.10104 -1.6454,5.50664 -1.6454,5.50664 6.6062,14.31349 14.8594,15.41534 13.7583,9.35964 -1.0494,-5.77184 -7.0979,-15.04568 -11.4763,-14.94896 z m -113.3491,20.50521 c -2.5507,0.12443 -4.5475,3.24941 -4.5475,3.24941 -4.9547,15.41453 3.3045,28.08363 5.5066,20.92689 2.2021,-7.15674 6.053,-18.16812 2.1994,-22.57226 -1.0839,-1.23867 -2.1604,-1.65273 -3.1585,-1.60404 z"
             style="color:#000000;fill:#00ffff;fill-opacity:1;fill-rule:nonzero;stroke:none;stroke-width:10;marker:none;visibility:visible;display:inline;overflow:visible;enable-background:accumulate" />
          <path
             style="color:#000000;fill:#00ffff;fill-opacity:1;fill-rule:nonzero;stroke:none;stroke-width:10;marker:none;visibility:visible;display:inline;overflow:visible;filter:url(#filter4615);enable-background:accumulate"
             d="m -2800.6088,-1209.9333 c -3.8927,7.7855 -5.5898,25.8347 -2.8649,25.0562 2.7249,-0.7786 8.2246,-18.4363 8.9545,-22.5723 0.4184,-3.7997 -4.273,-5.0265 -6.0896,-2.4839 z m -180.2101,14.2165 c -2.8466,-0.055 -3.2825,3.4478 -3.2825,3.4478 5.8391,11.6783 15.5746,22.1911 17.1318,17.909 1.5571,-4.282 -3.8919,-15.5782 -10.1203,-19.8603 -1.5572,-1.0705 -2.7802,-1.4782 -3.729,-1.4965 z m 320.5592,103.7084 c -2.2318,0.087 -4.6715,1.3064 -4.6715,1.3064 -11.0104,2.2021 -13.2098,11.5638 -8.8057,11.0132 4.4042,-0.5505 17.6162,-3.8544 17.0656,-9.3596 -0.2408,-2.4085 -1.8525,-3.0277 -3.5884,-2.96 z m -406.4496,85.9896 c -5.0087,0.083 -7.9146,1.32 -6.1598,3.9522 3.3031,4.95468 21.4706,6.05371 26.4252,4.95267 4.9547,-1.10104 -3.853,-6.60637 -3.853,-6.60637 -5.9352,-1.5483 -11.993,-2.3718 -16.4124,-2.2985 z m 409.327,22.82031 c -10.8384,0.007 -14.0836,5.97577 -9.7483,6.45748 4.9547,0.55051 10.4594,1.64674 17.0657,0.5457 6.6062,-1.10104 1.4904,-6.41168 -2.2077,-6.6063 -1.858,-0.27528 -3.5614,-0.39796 -5.1097,-0.39688 z m -52.3462,105.92427 c -0.5731,0.0151 -0.893,0.24591 -0.893,0.72761 0,3.85363 2.7451,4.95265 2.7451,4.95265 11.5609,8.80833 19.2698,11.55965 18.7193,7.70599 -0.4817,-3.3719 -16.5597,-13.49163 -20.5714,-13.38625 z m -344.8265,18.03303 c -1.63,0.0593 -4.0018,1.95955 -4.0018,1.95955 -11.5609,5.5052 -19.8175,18.71855 -14.3123,15.96595 5.5052,-2.75259 19.8189,-11.56179 19.8189,-15.96595 0,-1.51392 -0.651,-1.99062 -1.5048,-1.95955 z m 282.9057,38.20747 c -0.2153,0.005 -0.4302,0.0311 -0.6366,0.0827 -4.4042,1.10104 -1.6454,5.50664 -1.6454,5.50664 6.6062,14.31349 14.8594,15.41534 13.7583,9.35964 -1.0494,-5.77184 -7.0979,-15.04568 -11.4763,-14.94896 z m -113.3491,20.50521 c -2.5507,0.12443 -4.5475,3.24941 -4.5475,3.24941 -4.9547,15.41453 3.3045,28.08363 5.5066,20.92689 2.2021,-7.15674 6.053,-18.16812 2.1994,-22.57226 -1.0839,-1.23867 -2.1604,-1.65273 -3.1585,-1.60404 z"
             id="path4611"
             inkscape:connector-curvature="0"
             sodipodi:nodetypes="ccccscsssccsscssscsssscssscssccsscsscssscsss" />
        </g>
      </g>
    </g>
    <g
       id="g4718"
       inkscape:export-filename="C:\Users\rober\Desktop\assets\ASSETS_2019\electrical_effects\energy_pop_2\animations\energy_pop_two_01.png"
       inkscape:export-xdpi="90"
       inkscape:export-ydpi="90">
      <g
         id="g4645">
        <g
           id="g4557"
           transform="matrix(0.27220244,0,0,0.27220244,142.66208,-56.934564)"
           inkscape:export-filename="C:\Users\rober\Desktop\assets\ASSETS_2019\electrical_effects\energy_pop_2\1.png"
           inkscape:export-xdpi="90"
           inkscape:export-ydpi="90">
          <g
             transform="translate(-2166.8413,0)"
             id="g4523">
            <rect
               y="-1241.5446"
               x="-3107.5491"
               height="497.66882"
               width="488.8605"
               id="rect4406"
               style="opacity:0;color:#000000;fill:#333333;fill-opacity:1;fill-rule:nonzero;stroke:none;stroke-width:10;marker:none;visibility:visible;display:inline;overflow:visible;enable-background:accumulate" />
            <path
               sodipodi:type="arc"
               style="color:#000000;fill:#00ffff;fill-opacity:1;fill-rule:nonzero;stroke:none;stroke-width:10;marker:none;visibility:visible;display:inline;overflow:visible;enable-background:accumulate"
               id="path4258"
               sodipodi:cx="-1175.5956"
               sodipodi:cy="-1457.8016"
               sodipodi:rx="60.340305"
               sodipodi:ry="60.340305"
               d="m -1115.2553,-1457.8016 c 0,33.325 -27.0153,60.3403 -60.3403,60.3403 -33.325,0 -60.3403,-27.0153 -60.3403,-60.3403 0,-33.3251 27.0153,-60.3403 60.3403,-60.3403 33.325,0 60.3403,27.0152 60.3403,60.3403 z"
               transform="matrix(0.26458334,0,0,0.26458334,-2537.2119,-592.13606)" />
            <path
               transform="matrix(0.26458334,0,0,0.26458334,-2537.2119,-592.13606)"
               d="m -1115.2553,-1457.8016 c 0,33.325 -27.0153,60.3403 -60.3403,60.3403 -33.325,0 -60.3403,-27.0153 -60.3403,-60.3403 0,-33.3251 27.0153,-60.3403 60.3403,-60.3403 33.325,0 60.3403,27.0152 60.3403,60.3403 z"
               sodipodi:ry="60.340305"
               sodipodi:rx="60.340305"
               sodipodi:cy="-1457.8016"
               sodipodi:cx="-1175.5956"
               id="path4601"
               style="color:#000000;fill:#00ffff;fill-opacity:1;fill-rule:nonzero;stroke:none;stroke-width:10;marker:none;visibility:visible;display:inline;overflow:visible;filter:url(#filter4639);enable-background:accumulate"
               sodipodi:type="arc" />
          </g>
        </g>
        <path
           sodipodi:type="arc"
           style="color:#000000;fill:#ffffff;fill-opacity:1;fill-rule:nonzero;stroke:none;stroke-width:10;marker:none;visibility:visible;display:inline;overflow:visible;enable-background:accumulate"
           id="path4643"
           sodipodi:cx="354.02609"
           sodipodi:cy="793.32031"
           sodipodi:rx="9.0115728"
           sodipodi:ry="9.0115728"
           d="m 363.03767,793.32031 c 0,4.97696 -4.03462,9.01158 -9.01158,9.01158 -4.97695,0 -9.01157,-4.03462 -9.01157,-9.01158 0,-4.97695 4.03462,-9.01157 9.01157,-9.01157 4.97696,0 9.01158,4.03462 9.01158,9.01157 z"
           transform="matrix(0.36717688,0,0,0.36717688,-1352.5216,-614.50171)" />
      </g>
    </g>
    <g
       id="g4727"
       transform="translate(-16.234014,0)"
       inkscape:export-filename="C:\Users\rober\Desktop\assets\ASSETS_2019\electrical_effects\energy_pop_2\animations\energy_pop_two_02.png"
       inkscape:export-xdpi="90"
       inkscape:export-ydpi="90">
      <g
         inkscape:export-ydpi="90"
         inkscape:export-xdpi="90"
         inkscape:export-filename="C:\Users\rober\Desktop\assets\ASSETS_2019\electrical_effects\energy_pop_2\2.png"
         transform="matrix(0.27220244,0,0,0.27220244,152.90198,-56.934564)"
         id="g4562">
        <g
           id="g4551">
          <g
             id="g4527"
             transform="translate(-1655.96,0)">
            <rect
               style="opacity:0;color:#000000;fill:#333333;fill-opacity:1;fill-rule:nonzero;stroke:none;stroke-width:10;marker:none;visibility:visible;display:inline;overflow:visible;enable-background:accumulate"
               id="rect4529"
               width="488.8605"
               height="497.66882"
               x="-3107.5491"
               y="-1241.5446" />
            <path
               transform="matrix(0.26458334,0,0,0.26458334,-2537.2119,-592.13606)"
               d="m -1115.2553,-1457.8016 c 0,33.325 -27.0153,60.3403 -60.3403,60.3403 -33.325,0 -60.3403,-27.0153 -60.3403,-60.3403 0,-33.3251 27.0153,-60.3403 60.3403,-60.3403 33.325,0 60.3403,27.0152 60.3403,60.3403 z"
               sodipodi:ry="60.340305"
               sodipodi:rx="60.340305"
               sodipodi:cy="-1457.8016"
               sodipodi:cx="-1175.5956"
               id="path4531"
               style="color:#000000;fill:#00ffff;fill-opacity:1;fill-rule:nonzero;stroke:none;stroke-width:10;marker:none;visibility:visible;display:inline;overflow:visible;enable-background:accumulate"
               sodipodi:type="arc" />
          </g>
          <path
             style="color:#000000;fill:#00ffff;fill-opacity:1;fill-rule:nonzero;stroke:none;stroke-width:10;marker:none;visibility:visible;display:inline;overflow:visible;enable-background:accumulate"
             d="m -4530.792,-1014.0701 c -0.8891,-0.042 5.0768,13.525 9.7991,26.63733 -1.5581,1.8553 -2.7521,4.0257 -3.4694,6.40418 -9.4624,0.0284 -19.6342,0.21868 -18.4546,0.92645 1.1713,0.70273 9.9667,3.56307 17.7679,6.03493 0.1198,1.26986 0.3703,2.50323 0.7386,3.68314 -12.3894,9.04443 -28.0699,20.66982 -25.8404,19.18348 1.8947,-1.26315 20.5823,-8.04399 30.5051,-11.60338 1.7892,1.7409 3.935,3.11416 6.3199,4.0006 -1.848,10.35951 -3.7512,21.68609 -3.1778,19.67911 0.5877,-2.05678 6.3245,-12.21648 9.9578,-18.55181 1.5647,-0.0396 3.0803,-0.28105 4.5221,-0.69322 4.7782,6.89215 9.7544,13.3211 8.8143,10.18779 -0.7198,-2.39951 -2.3309,-7.97942 -3.6572,-12.59787 1.11,-0.75177 2.1324,-1.62178 3.0482,-2.59473 11.2381,7.12484 18.2959,11.3086 18.2959,11.3086 0,0 -8.4853,-9.80197 -14.7358,-16.82198 0.7712,-1.86976 1.2392,-3.89584 1.3411,-6.01874 l 16.4138,-3.0385 c 0,0 -7.6043,-1.82661 -17.1913,-3.17782 -0.2784,-0.90543 -0.6261,-1.77863 -1.0365,-2.61743 5.2329,-4.3434 11.2398,-9.4158 12.1864,-10.5991 1.4041,-1.7551 -3.1893,-1.2214 -15.1764,6.2422 -2.013,-2.1728 -4.5521,-3.8549 -7.4149,-4.8364 -0.2448,-2.8242 -0.5116,-5.6964 -0.6997,-7.0132 -0.3822,-2.67583 -1.4459,1.0905 -2.883,6.184 -0.7515,-0.095 -1.5161,-0.1426 -2.2934,-0.1426 -2.1853,0 -4.2831,0.3859 -6.2229,1.0949 -5.6112,-7.0838 -15.2144,-18.77273 -17.0714,-20.93923 -0.182,-0.2123 -0.3093,-0.317 -0.3855,-0.3207 z"
             id="path4260-4"
             inkscape:connector-curvature="0" />
          <path
             inkscape:connector-curvature="0"
             id="path4613"
             d="m -4530.792,-1014.0701 c -0.8891,-0.042 5.0768,13.525 9.7991,26.63733 -1.5581,1.8553 -2.7521,4.0257 -3.4694,6.40418 -9.4624,0.0284 -19.6342,0.21868 -18.4546,0.92645 1.1713,0.70273 9.9667,3.56307 17.7679,6.03493 0.1198,1.26986 0.3703,2.50323 0.7386,3.68314 -12.3894,9.04443 -28.0699,20.66982 -25.8404,19.18348 1.8947,-1.26315 20.5823,-8.04399 30.5051,-11.60338 1.7892,1.7409 3.935,3.11416 6.3199,4.0006 -1.848,10.35951 -3.7512,21.68609 -3.1778,19.67911 0.5877,-2.05678 6.3245,-12.21648 9.9578,-18.55181 1.5647,-0.0396 3.0803,-0.28105 4.5221,-0.69322 4.7782,6.89215 9.7544,13.3211 8.8143,10.18779 -0.7198,-2.39951 -2.3309,-7.97942 -3.6572,-12.59787 1.11,-0.75177 2.1324,-1.62178 3.0482,-2.59473 11.2381,7.12484 18.2959,11.3086 18.2959,11.3086 0,0 -8.4853,-9.80197 -14.7358,-16.82198 0.7712,-1.86976 1.2392,-3.89584 1.3411,-6.01874 l 16.4138,-3.0385 c 0,0 -7.6043,-1.82661 -17.1913,-3.17782 -0.2784,-0.90543 -0.6261,-1.77863 -1.0365,-2.61743 5.2329,-4.3434 11.2398,-9.4158 12.1864,-10.5991 1.4041,-1.7551 -3.1893,-1.2214 -15.1764,6.2422 -2.013,-2.1728 -4.5521,-3.8549 -7.4149,-4.8364 -0.2448,-2.8242 -0.5116,-5.6964 -0.6997,-7.0132 -0.3822,-2.67583 -1.4459,1.0905 -2.883,6.184 -0.7515,-0.095 -1.5161,-0.1426 -2.2934,-0.1426 -2.1853,0 -4.2831,0.3859 -6.2229,1.0949 -5.6112,-7.0838 -15.2144,-18.77273 -17.0714,-20.93923 -0.182,-0.2123 -0.3093,-0.317 -0.3855,-0.3207 z"
             style="color:#000000;fill:#00ffff;fill-opacity:1;fill-rule:nonzero;stroke:none;stroke-width:10;marker:none;visibility:visible;display:inline;overflow:visible;filter:url(#filter4635);enable-background:accumulate" />
        </g>
      </g>
      <path
         id="path4653"
         transform="matrix(0.26458334,0,0,0.26458334,-1316.4441,-532.96619)"
         d="m 900.75,771.46875 c -0.42148,-0.0689 3.24113,7.98991 6.40625,14.96875 -1.7499,1.79899 -2.95895,4.13871 -3.40625,6.71875 L 894.96875,793 c 0,0 5.58086,1.48634 8.5625,2.28125 -10e-5,0.0208 0,0.0417 0,0.0625 0,1.81954 0.37542,3.55913 1.0625,5.125 l -16.65625,11.25 c 0,0 13.09848,-5.98986 18.15625,-8.75 1.7535,2.33999 4.28492,4.04761 7.21875,4.75 l -0.65625,8.6875 L 915.125,808 c 0.38794,0.0356 0.75903,0.0937 1.15625,0.0937 1.84271,0 3.60595,-0.39005 5.1875,-1.09375 l 3.65625,5.5 -1.5625,-6.71875 c 1.43854,-1.0044 2.67342,-2.28266 3.59375,-3.78125 L 935,807.3125 928.09375,800.125 c 0.59801,-1.47648 0.9375,-3.0903 0.9375,-4.78125 0,-0.69212 -0.0501,-1.36906 -0.15625,-2.03125 l 6.90625,-1.09375 -7.46875,-1.0625 c -0.44171,-1.27272 -1.07731,-2.44676 -1.875,-3.5 l 5.96875,-4.03125 -6.5625,3.28125 c -1.55275,-1.75988 -3.56895,-3.08901 -5.875,-3.78125 0.0307,-1.62383 0.0819,-3.35899 0.21875,-3.90625 0.19028,-0.76111 -0.72443,1.39104 -1.4375,3.625 -0.80126,-0.15783 -1.62121,-0.25 -2.46875,-0.25 -2.11352,0 -4.08897,0.52694 -5.84375,1.4375 -2.8458,-4.02296 -8.30532,-10.78209 -9.5,-12.375 -0.0975,-0.13004 -0.15213,-0.18172 -0.1875,-0.1875 z"
         style="color:#000000;fill:#ffffff;fill-opacity:1;fill-rule:nonzero;stroke:none;stroke-width:10;marker:none;visibility:visible;display:inline;overflow:visible;enable-background:accumulate"
         inkscape:connector-curvature="0" />
    </g>
    <g
       id="g4737"
       transform="translate(-32.468062,0)"
       inkscape:export-filename="C:\Users\rober\Desktop\assets\ASSETS_2019\electrical_effects\energy_pop_2\animations\energy_pop_two_03.png"
       inkscape:export-xdpi="90"
       inkscape:export-ydpi="90">
      <g
         inkscape:export-ydpi="90"
         inkscape:export-xdpi="90"
         inkscape:export-filename="C:\Users\rober\Desktop\assets\ASSETS_2019\electrical_effects\energy_pop_2\3.png"
         transform="matrix(0.27220244,0,0,0.27220244,161.94308,-56.934564)"
         id="g4569">
        <g
           id="g4519"
           transform="translate(-1140.6745,0)">
          <rect
             y="-1241.5446"
             x="-3107.5491"
             height="497.66882"
             width="488.8605"
             id="rect4404"
             style="opacity:0;color:#000000;fill:#333333;fill-opacity:1;fill-rule:nonzero;stroke:none;stroke-width:10;marker:none;visibility:visible;display:inline;overflow:visible;enable-background:accumulate" />
          <path
             id="path4260"
             transform="matrix(0.97200943,0,0,0.97200943,-4290.5303,-1748.8147)"
             d="m 1422.0938,696.625 c -1.7497,0.98083 13.637,36.04373 25.8437,69.9375 -4.0915,4.8719 -7.2416,10.56677 -9.125,16.8125 -24.8478,0.0745 -51.5664,0.57896 -48.4687,2.4375 3.0755,1.84534 26.1708,9.35284 46.6562,15.84375 0.3145,3.33459 1.0018,6.55791 1.9688,9.65625 -32.5337,23.75005 -73.7296,54.27803 -67.875,50.375 4.9753,-3.31695 54.0685,-21.12203 80.125,-30.46875 4.6983,4.5715 10.331,8.20352 16.5937,10.53125 -4.8529,27.20335 -9.8496,56.92645 -8.3437,51.65625 1.543,-5.40096 16.584,-32.08264 26.125,-48.71875 4.1087,-0.10409 8.0888,-0.73016 11.875,-1.8125 12.5472,18.09831 25.6246,34.97786 23.1562,26.75 -1.8903,-6.30092 -6.111,-20.93477 -9.5938,-33.0625 2.9148,-1.9741 5.5952,-4.25761 8,-6.8125 29.5106,18.70935 48.0313,29.6875 48.0313,29.6875 0,0 -22.2742,-25.75344 -38.6875,-44.1875 2.0251,-4.90988 3.2636,-10.23792 3.5312,-15.8125 L 1575,791.46875 c 0,0 -19.9815,-4.79556 -45.1562,-8.34375 -0.7312,-2.37763 -1.6411,-4.67237 -2.7188,-6.875 13.7413,-11.40565 29.5141,-24.70523 32,-27.8125 3.6869,-4.6088 -8.3666,-3.22378 -39.8438,16.375 -5.286,-5.7056 -11.9512,-10.11036 -19.4687,-12.6875 -0.6429,-7.41629 -1.3498,-14.97982 -1.8437,-18.4375 -1.0038,-7.02668 -3.7889,2.87503 -7.5626,16.25 -1.9735,-0.24948 -3.99,-0.375 -6.0312,-0.375 -5.7383,0 -11.2501,1.01319 -16.3438,2.875 -14.7348,-18.60177 -39.9362,-49.27981 -44.8124,-54.96875 -0.4779,-0.5575 -0.8312,-0.83429 -1.0313,-0.84375 -0.036,-0.002 -0.066,-0.0156 -0.094,0 z m 60.9687,85.09375 c 9.3445,0 16.9063,7.59301 16.9063,16.9375 0,9.34449 -7.5618,16.90625 -16.9063,16.90625 -9.3445,0 -16.9375,-7.56176 -16.9375,-16.90625 0,-9.34449 7.593,-16.9375 16.9375,-16.9375 z"
             style="color:#000000;fill:#00ffff;fill-opacity:1;fill-rule:nonzero;stroke:none;stroke-width:10;marker:none;visibility:visible;display:inline;overflow:visible;enable-background:accumulate"
             inkscape:connector-curvature="0" />
          <path
             style="color:#000000;fill:#00ffff;fill-opacity:1;fill-rule:nonzero;stroke:none;stroke-width:10;marker:none;visibility:visible;display:inline;overflow:visible;filter:url(#filter4631);enable-background:accumulate"
             d="m 1422.0938,696.625 c -1.7497,0.98083 13.637,36.04373 25.8437,69.9375 -4.0915,4.8719 -7.2416,10.56677 -9.125,16.8125 -24.8478,0.0745 -51.5664,0.57896 -48.4687,2.4375 3.0755,1.84534 26.1708,9.35284 46.6562,15.84375 0.3145,3.33459 1.0018,6.55791 1.9688,9.65625 -32.5337,23.75005 -73.7296,54.27803 -67.875,50.375 4.9753,-3.31695 54.0685,-21.12203 80.125,-30.46875 4.6983,4.5715 10.331,8.20352 16.5937,10.53125 -4.8529,27.20335 -9.8496,56.92645 -8.3437,51.65625 1.543,-5.40096 16.584,-32.08264 26.125,-48.71875 4.1087,-0.10409 8.0888,-0.73016 11.875,-1.8125 12.5472,18.09831 25.6246,34.97786 23.1562,26.75 -1.8903,-6.30092 -6.111,-20.93477 -9.5938,-33.0625 2.9148,-1.9741 5.5952,-4.25761 8,-6.8125 29.5106,18.70935 48.0313,29.6875 48.0313,29.6875 0,0 -22.2742,-25.75344 -38.6875,-44.1875 2.0251,-4.90988 3.2636,-10.23792 3.5312,-15.8125 L 1575,791.46875 c 0,0 -19.9815,-4.79556 -45.1562,-8.34375 -0.7312,-2.37763 -1.6411,-4.67237 -2.7188,-6.875 13.7413,-11.40565 29.5141,-24.70523 32,-27.8125 3.6869,-4.6088 -8.3666,-3.22378 -39.8438,16.375 -5.286,-5.7056 -11.9512,-10.11036 -19.4687,-12.6875 -0.6429,-7.41629 -1.3498,-14.97982 -1.8437,-18.4375 -1.0038,-7.02668 -3.7889,2.87503 -7.5626,16.25 -1.9735,-0.24948 -3.99,-0.375 -6.0312,-0.375 -5.7383,0 -11.2501,1.01319 -16.3438,2.875 -14.7348,-18.60177 -39.9362,-49.27981 -44.8124,-54.96875 -0.4779,-0.5575 -0.8312,-0.83429 -1.0313,-0.84375 -0.036,-0.002 -0.066,-0.0156 -0.094,0 z m 60.9687,85.09375 c 9.3445,0 16.9063,7.59301 16.9063,16.9375 0,9.34449 -7.5618,16.90625 -16.9063,16.90625 -9.3445,0 -16.9375,-7.56176 -16.9375,-16.90625 0,-9.34449 7.593,-16.9375 16.9375,-16.9375 z"
             transform="matrix(0.97200943,0,0,0.97200943,-4290.5303,-1748.8147)"
             id="path4603"
             inkscape:connector-curvature="0" />
        </g>
      </g>
      <path
         id="path4660"
         transform="matrix(0.26458334,0,0,0.26458334,-1316.4441,-532.96619)"
         d="m 1439.1562,723.5 c 0.2727,1.14743 12.8369,33.10688 18.25,46.75 -5.7001,5.64807 -9.6196,13.09483 -10.875,21.40625 l -33.75,-2.3125 c 0,0 22.6174,5.72927 33.3126,7.6875 0,0.12527 0,0.24944 0,0.375 0,5.24369 1.0597,10.23 2.9687,14.78125 l -38.3437,26.0625 40.3124,-22.09375 c 5.0879,9.02752 13.6977,15.7734 24,18.34375 -2.6353,10.65309 -7.0937,32.875 -7.0937,32.875 l 13.0313,-31.875 c 1.1033,0.0958 2.2154,0.15625 3.3437,0.15625 5.0741,0 9.9119,-0.9849 14.3437,-2.78125 5.4815,8.94511 14,22.53125 14,22.53125 l -10.75,-24.0625 c 5.5412,-2.87965 10.3027,-7.05896 13.8438,-12.15625 l 29.6875,20.09375 c 0,0 -20.6521,-17.87195 -26.9063,-24.8125 2.5665,-5.13726 4.0313,-10.93234 4.0313,-17.0625 0,-2.35759 -0.2161,-4.66691 -0.625,-6.90625 l 25.5937,0.40625 c 0,0 -17.3413,-2.51772 -26.4687,-4.125 C 1519.9397,782.89433 1518.2173,779.27033 1516,776 l 25.2812,-18.375 c 0,0 -17.2124,8.43735 -28.2812,14.53125 -4.7279,-5.35659 -10.9237,-9.38609 -17.9688,-11.4375 0.461,-5.2394 1,-11.62703 1,-12.96875 0,-1.59783 -2.7619,4.47857 -4.75,12.09375 -2.2603,-0.41598 -4.5883,-0.65625 -6.9687,-0.65625 -6.9362,0 -13.425,1.86672 -19.0313,5.09375 -5.4149,-8.27656 -24.1195,-36.30799 -25.9687,-40.46875 -0.13,-0.2926 -0.1763,-0.39695 -0.1563,-0.3125 z m 44.6563,52.84375 c 12.4969,0 22.625,10.12811 22.625,22.625 0,12.49689 -10.1281,22.625 -22.625,22.625 -12.4969,0 -22.6563,-10.12811 -22.6563,-22.625 0,-12.49689 10.1594,-22.625 22.6563,-22.625 z"
         style="color:#000000;fill:#ffffff;fill-opacity:1;fill-rule:nonzero;stroke:none;stroke-width:10;marker:none;visibility:visible;display:inline;overflow:visible;enable-background:accumulate"
         inkscape:connector-curvature="0" />
    </g>
    <g
       id="g4745"
       transform="translate(-48.702103,0)"
       inkscape:export-filename="C:\Users\rober\Desktop\assets\ASSETS_2019\electrical_effects\energy_pop_2\animations\energy_pop_two_04.png"
       inkscape:export-xdpi="90"
       inkscape:export-ydpi="90">
      <g
         inkscape:export-ydpi="90"
         inkscape:export-xdpi="90"
         inkscape:export-filename="C:\Users\rober\Desktop\assets\ASSETS_2019\electrical_effects\energy_pop_2\4.png"
         transform="matrix(0.27220244,0,0,0.27220244,163.19188,-56.934564)"
         id="g4574">
        <g
           id="g4515"
           transform="translate(-596.76217,0)">
          <rect
             style="opacity:0;color:#000000;fill:#333333;fill-opacity:1;fill-rule:nonzero;stroke:none;stroke-width:10;marker:none;visibility:visible;display:inline;overflow:visible;enable-background:accumulate"
             id="rect4402"
             width="488.8605"
             height="497.66882"
             x="-3107.5491"
             y="-1241.5446" />
          <path
             id="path4306"
             transform="matrix(0.97200943,0,0,0.97200943,-4839.0304,-1748.8147)"
             d="m 1933.1562,600.03125 c -2.7787,0.44732 38.4599,97.58648 70.1563,167 -2.071,3.28011 -3.826,6.77537 -5.1875,10.46875 -38.9041,-2.23435 -109.4225,-6.09954 -115.9688,-5.28125 -7.8338,0.97922 60.4606,21.41754 112.0626,37.1875 -48.2836,30.49533 -122.9699,85.95645 -113.1876,84 9.1128,-1.82256 99.3033,-38.40943 134.625,-52.8125 3.4074,2.73795 7.1625,5.07966 11.1563,6.96875 -8.4557,34.48895 -14.5319,92.72871 -7.5937,79.84375 6.0356,-11.2091 24.4742,-54.4256 32.9687,-74.5 3.787,-0.0959 7.4667,-0.56076 11.0313,-1.375 21.6079,39.39526 49.694,79.42588 47.75,73.59375 -1.9631,-5.88903 -20.0627,-67.4564 -25.0938,-84.59375 1.3667,-1.10108 2.6809,-2.27723 3.9375,-3.5 L 2175.5312,888.875 2104.5,812.71875 c 0.8591,-2.92127 1.5006,-5.93277 1.875,-9.03125 l 71.4375,-11.09375 c 0,0 -48.4423,-9.92747 -73.1875,-14.59375 l 89.0312,-68.09375 c 0,0 -55.452,15.70959 -112.9374,39.625 -1.6709,-1.06151 -3.403,-2.02334 -5.1876,-2.90625 2.0095,-32.30473 2.5938,-89.11447 2.5938,-95.625 0,-7.55065 -22.8071,52.52632 -35.6562,90.46875 -2.4664,0.36337 -4.8684,0.88905 -7.2188,1.5625 -27.7655,-38.46043 -92.7718,-129.98983 -101,-141.875 -0.5575,-0.80534 -0.9149,-1.1537 -1.0938,-1.125 z m 111.375,172.875 c 17.2568,0 31.25,13.99322 31.25,31.25 0,17.25678 -13.9932,31.25 -31.25,31.25 -17.2567,0 -31.25,-13.99322 -31.25,-31.25 0,-17.25678 13.9933,-31.25 31.25,-31.25 z"
             style="color:#000000;fill:#00ffff;fill-opacity:1;fill-rule:nonzero;stroke:none;stroke-width:10;marker:none;visibility:visible;display:inline;overflow:visible;enable-background:accumulate"
             inkscape:connector-curvature="0" />
          <path
             style="color:#000000;fill:#00ffff;fill-opacity:1;fill-rule:nonzero;stroke:none;stroke-width:10;marker:none;visibility:visible;display:inline;overflow:visible;filter:url(#filter4627);enable-background:accumulate"
             d="m 1933.1562,600.03125 c -2.7787,0.44732 38.4599,97.58648 70.1563,167 -2.071,3.28011 -3.826,6.77537 -5.1875,10.46875 -38.9041,-2.23435 -109.4225,-6.09954 -115.9688,-5.28125 -7.8338,0.97922 60.4606,21.41754 112.0626,37.1875 -48.2836,30.49533 -122.9699,85.95645 -113.1876,84 9.1128,-1.82256 99.3033,-38.40943 134.625,-52.8125 3.4074,2.73795 7.1625,5.07966 11.1563,6.96875 -8.4557,34.48895 -14.5319,92.72871 -7.5937,79.84375 6.0356,-11.2091 24.4742,-54.4256 32.9687,-74.5 3.787,-0.0959 7.4667,-0.56076 11.0313,-1.375 21.6079,39.39526 49.694,79.42588 47.75,73.59375 -1.9631,-5.88903 -20.0627,-67.4564 -25.0938,-84.59375 1.3667,-1.10108 2.6809,-2.27723 3.9375,-3.5 L 2175.5312,888.875 2104.5,812.71875 c 0.8591,-2.92127 1.5006,-5.93277 1.875,-9.03125 l 71.4375,-11.09375 c 0,0 -48.4423,-9.92747 -73.1875,-14.59375 l 89.0312,-68.09375 c 0,0 -55.452,15.70959 -112.9374,39.625 -1.6709,-1.06151 -3.403,-2.02334 -5.1876,-2.90625 2.0095,-32.30473 2.5938,-89.11447 2.5938,-95.625 0,-7.55065 -22.8071,52.52632 -35.6562,90.46875 -2.4664,0.36337 -4.8684,0.88905 -7.2188,1.5625 -27.7655,-38.46043 -92.7718,-129.98983 -101,-141.875 -0.5575,-0.80534 -0.9149,-1.1537 -1.0938,-1.125 z m 111.375,172.875 c 17.2568,0 31.25,13.99322 31.25,31.25 0,17.25678 -13.9932,31.25 -31.25,31.25 -17.2567,0 -31.25,-13.99322 -31.25,-31.25 0,-17.25678 13.9933,-31.25 31.25,-31.25 z"
             transform="matrix(0.97200943,0,0,0.97200943,-4839.0304,-1748.8147)"
             id="path4605"
             inkscape:connector-curvature="0" />
        </g>
      </g>
      <path
         id="path4684"
         transform="matrix(0.26458334,0,0,0.26458334,-1316.4441,-532.96619)"
         d="m 1959,646.375 c -0.6939,3.46961 50.7389,109.10272 56.75,121.4375 -6.1187,5.3237 -10.7791,12.26501 -13.3438,20.15625 l -89,-9.1875 86.9376,19.40625 c -0.1031,1.24618 -0.1563,2.50851 -0.1563,3.78125 0,5.5598 1.0084,10.86033 2.8437,15.78125 l -97,59.625 102.1876,-49.6875 c 6.3375,9.14596 15.958,15.83111 27.1562,18.375 -3.2197,13.37973 -13.0938,62.1875 -13.0938,62.1875 l 19.9063,-61.15625 c 1.0775,0.0768 2.153,0.125 3.25,0.125 17.7365,0 33.0816,-10.23132 40.5,-25.09375 8.4907,5.46329 58.4375,40.53125 58.4375,40.53125 l -55.5625,-47.84375 c 1.2084,-4.07921 1.875,-8.37315 1.875,-12.84375 0,-2.69365 -0.236,-5.34184 -0.6875,-7.90625 l 60.2812,-3.5 L 2086.9688,784 c -1.2748,-2.94399 -2.8447,-5.73216 -4.6876,-8.3125 L 2167.1875,722.875 2072.9062,766 c -3.6766,-2.81484 -7.7773,-5.06728 -12.2187,-6.65625 l 11.5937,-80.59375 -22.3437,78.1875 c -1.4807,-0.1463 -2.9809,-0.21875 -4.5,-0.21875 -6.8683,0 -13.3869,1.51053 -19.2187,4.25 L 1959,646.375 z m 86.4375,119.1875 c 20.7204,0 37.5313,16.81086 37.5313,37.53125 0,20.72035 -16.8109,37.5 -37.5313,37.5 -20.7204,0 -37.5,-16.77965 -37.5,-37.5 0,-20.72039 16.7796,-37.53125 37.5,-37.53125 z"
         style="color:#000000;fill:#ffffff;fill-opacity:1;fill-rule:nonzero;stroke:none;stroke-width:10;marker:none;visibility:visible;display:inline;overflow:visible;enable-background:accumulate"
         inkscape:connector-curvature="0" />
      <path
         transform="matrix(0.26458334,0,0,0.26458334,-1316.4441,-532.96619)"
         inkscape:connector-curvature="0"
         id="path4694"
         d="m 2065.6732,840.58511 36.0463,65.47184 -28.6899,-72.82822 z"
         style="color:#000000;fill:#ffffff;fill-opacity:1;fill-rule:nonzero;stroke:none;stroke-width:10;marker:none;visibility:visible;display:inline;overflow:visible;enable-background:accumulate" />
    </g>
    <g
       id="g4754"
       transform="translate(-64.936189,0)"
       inkscape:export-filename="C:\Users\rober\Desktop\assets\ASSETS_2019\electrical_effects\energy_pop_2\animations\energy_pop_two_05.png"
       inkscape:export-xdpi="90"
       inkscape:export-ydpi="90">
      <g
         inkscape:export-ydpi="90"
         inkscape:export-xdpi="90"
         inkscape:export-filename="C:\Users\rober\Desktop\assets\ASSETS_2019\electrical_effects\energy_pop_2\5.png"
         transform="matrix(0.27220244,0,0,0.27220244,168.63658,-56.934564)"
         id="g4579">
        <g
           id="g4510"
           transform="translate(-68.264306,0)">
          <rect
             y="-1241.5446"
             x="-3107.5491"
             height="497.66882"
             width="488.8605"
             id="rect4400"
             style="opacity:0;color:#000000;fill:#333333;fill-opacity:1;fill-rule:nonzero;stroke:none;stroke-width:10;marker:none;visibility:visible;display:inline;overflow:visible;enable-background:accumulate" />
          <path
             style="color:#000000;fill:#00ffff;fill-opacity:1;fill-rule:nonzero;stroke:none;stroke-width:10;marker:none;visibility:visible;display:inline;overflow:visible;enable-background:accumulate"
             d="m -6250,-2446.25 c 73.564,150.0703 279.5432,514.9547 308.9688,541.4375 29.4258,26.4831 -14.7213,-67.6879 -67.6876,-176.5625 C -6061.6847,-2190.2496 -6250,-2446.25 -6250,-2446.25 z m 596.4062,130.9375 c -7.5377,0.3894 -17.4517,11.8016 -19.6562,26.5 -41.1957,141.2428 -76.5202,382.5303 -64.75,364.875 11.7702,-17.6553 75.0371,-292.774 89.75,-351.625 7.1263,-28.506 2.5251,-39.431 -4.625,-39.75 -0.2379,-0.011 -0.4756,-0.013 -0.7188,0 z m 513.0313,257.6875 c -14.8093,-0.7351 -254.1356,113.763 -351.0937,186 0,0 -41.0783,39.7336 0.5,20.8125 41.5778,-18.9207 332.5934,-187.1712 350.4687,-205.0937 1.1172,-1.1203 1.1126,-1.6697 0.125,-1.7188 z m -607.1875,156.2188 c -51.0901,0.3363 -109.4274,22.1058 -171.875,74.7187 117.0837,-74.1184 199.4145,-66.2404 256.2812,-15.625 2.2557,17.2494 17.1876,45.6609 17.1876,70.125 0,34.9569 34.5433,82.2475 65.0312,89.9375 16.9217,145.8037 -142.1562,208.9062 -142.1562,208.9062 0,0 49.465,11.6496 119.9687,-59.6562 43.4774,-43.9713 59.3733,-104.6757 53.625,-164.125 8.4344,-18.1362 6.2822,-48.2658 -2.125,-71.6875 -13.666,-38.07 -43.2799,-68.515 -70.7813,-81.9063 -33.0145,-31.2279 -75.6811,-51.0117 -125.1562,-50.6874 z m -732.6875,140.5 c -12.9139,0.1455 -19.9014,1.5106 -19.0937,4.5312 4.3094,16.1102 308.3884,44.3075 373.125,47.25 64.7361,2.9426 41.1983,-14.7085 -1.4688,-20.5938 -129.1045,-9.5631 -296.6017,-31.8178 -352.5625,-31.1874 z m 498.2187,38.5312 c 0,0 -2.8269,2.1631 -3.0937,13.9688 0.8786,-4.5842 1.8802,-9.2302 3.0937,-13.9688 z m -3.0937,13.9688 c -21.4909,112.1264 54.1508,177.9756 79.5937,194.9374 26.4828,17.6554 26.5,14.7188 26.5,14.7188 0,0 -70.6184,-52.9547 -92.6874,-133.875 -11.212,-41.1109 -13.6818,-63.5896 -13.4063,-75.7812 z m 777.7187,17.6562 c -117.7024,0 -292.0505,2.2086 -262.625,8.0938 29.4256,5.8851 247.1591,14.7288 300.125,8.8437 52.966,-5.8851 -11.0172,-16.2019 -37.5,-16.9375 z m -816.3124,143.8438 c -376.6069,181.0209 -611.7179,351.6456 -561.7813,335 49.937,-16.6457 420.3134,-214.3081 495.2187,-268.4063 74.9054,-54.0982 66.5626,-66.5937 66.5626,-66.5937 z m 466.375,38.2812 c -6.7968,0.3339 -0.9688,8.4062 -0.9688,8.4062 133.2828,120.5695 307.7685,219.7065 285.4375,197.1563 -22.0097,-22.2259 -208.8414,-170.2159 -249.9687,-191.9687 -19.2832,-10.199 -29.0859,-13.4816 -33.8126,-13.5938 -0.2461,-0.01 -0.4682,-0.011 -0.6874,0 z m -282.9376,71.5 c -5.8378,0.1444 -12.7795,7.9467 -17.6562,21.4062 -67.6789,167.7258 -77.0254,424.5607 -62.3125,389.25 14.7126,-35.3106 67.6884,-255.9833 85.3437,-338.375 11.0348,-51.4945 4.3551,-72.522 -5.375,-72.2812 z m 168.3126,6.7188 c -5.1217,0.7422 7.2901,38.5037 14.3124,56.9374 58.8511,123.5875 117.001,244.0322 134.6563,261.6876 17.6553,17.6553 -35.3192,-105.9464 -67.6875,-173.625 -32.3679,-67.679 -61.7871,-123.5947 -76.5,-141.25 -2.2987,-2.7588 -3.8326,-3.8875 -4.7812,-3.75 z"
             transform="matrix(0.26458334,0,0,0.26458334,-1316.4441,-532.96619)"
             id="path4308"
             inkscape:connector-curvature="0" />
          <path
             inkscape:connector-curvature="0"
             id="path4607"
             transform="matrix(0.26458334,0,0,0.26458334,-1316.4441,-532.96619)"
             d="m -6250,-2446.25 c 73.564,150.0703 279.5432,514.9547 308.9688,541.4375 29.4258,26.4831 -14.7213,-67.6879 -67.6876,-176.5625 C -6061.6847,-2190.2496 -6250,-2446.25 -6250,-2446.25 z m 596.4062,130.9375 c -7.5377,0.3894 -17.4517,11.8016 -19.6562,26.5 -41.1957,141.2428 -76.5202,382.5303 -64.75,364.875 11.7702,-17.6553 75.0371,-292.774 89.75,-351.625 7.1263,-28.506 2.5251,-39.431 -4.625,-39.75 -0.2379,-0.011 -0.4756,-0.013 -0.7188,0 z m 513.0313,257.6875 c -14.8093,-0.7351 -254.1356,113.763 -351.0937,186 0,0 -41.0783,39.7336 0.5,20.8125 41.5778,-18.9207 332.5934,-187.1712 350.4687,-205.0937 1.1172,-1.1203 1.1126,-1.6697 0.125,-1.7188 z m -607.1875,156.2188 c -51.0901,0.3363 -109.4274,22.1058 -171.875,74.7187 117.0837,-74.1184 199.4145,-66.2404 256.2812,-15.625 2.2557,17.2494 17.1876,45.6609 17.1876,70.125 0,34.9569 34.5433,82.2475 65.0312,89.9375 16.9217,145.8037 -142.1562,208.9062 -142.1562,208.9062 0,0 49.465,11.6496 119.9687,-59.6562 43.4774,-43.9713 59.3733,-104.6757 53.625,-164.125 8.4344,-18.1362 6.2822,-48.2658 -2.125,-71.6875 -13.666,-38.07 -43.2799,-68.515 -70.7813,-81.9063 -33.0145,-31.2279 -75.6811,-51.0117 -125.1562,-50.6874 z m -732.6875,140.5 c -12.9139,0.1455 -19.9014,1.5106 -19.0937,4.5312 4.3094,16.1102 308.3884,44.3075 373.125,47.25 64.7361,2.9426 41.1983,-14.7085 -1.4688,-20.5938 -129.1045,-9.5631 -296.6017,-31.8178 -352.5625,-31.1874 z m 498.2187,38.5312 c 0,0 -2.8269,2.1631 -3.0937,13.9688 0.8786,-4.5842 1.8802,-9.2302 3.0937,-13.9688 z m -3.0937,13.9688 c -21.4909,112.1264 54.1508,177.9756 79.5937,194.9374 26.4828,17.6554 26.5,14.7188 26.5,14.7188 0,0 -70.6184,-52.9547 -92.6874,-133.875 -11.212,-41.1109 -13.6818,-63.5896 -13.4063,-75.7812 z m 777.7187,17.6562 c -117.7024,0 -292.0505,2.2086 -262.625,8.0938 29.4256,5.8851 247.1591,14.7288 300.125,8.8437 52.966,-5.8851 -11.0172,-16.2019 -37.5,-16.9375 z m -816.3124,143.8438 c -376.6069,181.0209 -611.7179,351.6456 -561.7813,335 49.937,-16.6457 420.3134,-214.3081 495.2187,-268.4063 74.9054,-54.0982 66.5626,-66.5937 66.5626,-66.5937 z m 466.375,38.2812 c -6.7968,0.3339 -0.9688,8.4062 -0.9688,8.4062 133.2828,120.5695 307.7685,219.7065 285.4375,197.1563 -22.0097,-22.2259 -208.8414,-170.2159 -249.9687,-191.9687 -19.2832,-10.199 -29.0859,-13.4816 -33.8126,-13.5938 -0.2461,-0.01 -0.4682,-0.011 -0.6874,0 z m -282.9376,71.5 c -5.8378,0.1444 -12.7795,7.9467 -17.6562,21.4062 -67.6789,167.7258 -77.0254,424.5607 -62.3125,389.25 14.7126,-35.3106 67.6884,-255.9833 85.3437,-338.375 11.0348,-51.4945 4.3551,-72.522 -5.375,-72.2812 z m 168.3126,6.7188 c -5.1217,0.7422 7.2901,38.5037 14.3124,56.9374 58.8511,123.5875 117.001,244.0322 134.6563,261.6876 17.6553,17.6553 -35.3192,-105.9464 -67.6875,-173.625 -32.3679,-67.679 -61.7871,-123.5947 -76.5,-141.25 -2.2987,-2.7588 -3.8326,-3.8875 -4.7812,-3.75 z"
             style="color:#000000;fill:#00ffff;fill-opacity:1;fill-rule:nonzero;stroke:none;stroke-width:10;marker:none;visibility:visible;display:inline;overflow:visible;filter:url(#filter4623);enable-background:accumulate" />
        </g>
      </g>
      <path
         id="path4708"
         transform="matrix(0.26458334,0,0,0.26458334,-1316.4441,-532.96619)"
         d="m 2637.25,739.4375 c 0,0 10.6763,3.74672 17.25,14.40625 -0.2432,13.41995 4.3679,20.07899 10.3438,26.40625 2.0417,2.16191 3.5758,3.43959 4.6874,4.09375 2.1137,5.37493 2.5561,8.1975 2.3126,12.09375 -0.368,5.8851 -0.3608,10.67102 0.375,6.625 0.6713,-3.69252 2.2451,-8.32001 0.2812,-20.28125 3.0264,-6.24049 -2.7395,-18.40357 -5.4375,-23.125 -1.8856,-3.29986 -6.7872,-6.14289 -9.875,-7.375 -2.2195,-2.77756 -4.8285,-5.83251 -6.3125,-7.6875 -2.9426,-3.67819 -13.625,-5.15625 -13.625,-5.15625 z"
         style="color:#000000;fill:#ffffff;fill-opacity:1;fill-rule:nonzero;stroke:none;stroke-width:10;marker:none;visibility:visible;display:inline;overflow:visible;enable-background:accumulate"
         inkscape:connector-curvature="0" />
    </g>
  </g>
</svg>
