<?xml version="1.0" encoding="UTF-8" standalone="no"?>
<!-- Created with Inkscape (http://www.inkscape.org/) -->

<svg
   xmlns:dc="http://purl.org/dc/elements/1.1/"
   xmlns:cc="http://creativecommons.org/ns#"
   xmlns:rdf="http://www.w3.org/1999/02/22-rdf-syntax-ns#"
   xmlns:svg="http://www.w3.org/2000/svg"
   xmlns="http://www.w3.org/2000/svg"
   xmlns:sodipodi="http://sodipodi.sourceforge.net/DTD/sodipodi-0.dtd"
   xmlns:inkscape="http://www.inkscape.org/namespaces/inkscape"
   width="12751.13"
   height="917.64545"
   viewBox="0 0 3373.7363 242.7937"
   version="1.1"
   id="svg23489"
   inkscape:version="0.48.5 r10040"
   sodipodi:docname="spark_explode.svg">
  <defs
     id="defs23483">
    <filter
       inkscape:collect="always"
       id="filter4913"
       color-interpolation-filters="sRGB">
      <feGaussianBlur
         inkscape:collect="always"
         stdDeviation="0.38344926"
         id="feGaussianBlur4915" />
    </filter>
    <filter
       inkscape:collect="always"
       id="filter4927"
       color-interpolation-filters="sRGB">
      <feGaussianBlur
         inkscape:collect="always"
         stdDeviation="2.286399"
         id="feGaussianBlur4929" />
    </filter>
    <filter
       inkscape:collect="always"
       id="filter4933"
       color-interpolation-filters="sRGB">
      <feGaussianBlur
         inkscape:collect="always"
         stdDeviation="3.9178991"
         id="feGaussianBlur4935" />
    </filter>
    <filter
       inkscape:collect="always"
       id="filter4940"
       color-interpolation-filters="sRGB">
      <feGaussianBlur
         inkscape:collect="always"
         stdDeviation="22.839066"
         id="feGaussianBlur4942" />
    </filter>
    <filter
       inkscape:collect="always"
       id="filter4948"
       x="-0.15606482"
       width="1.3121296"
       y="-0.062671609"
       height="1.1253432"
       color-interpolation-filters="sRGB">
      <feGaussianBlur
         inkscape:collect="always"
         stdDeviation="4.0867394"
         id="feGaussianBlur4950" />
    </filter>
    <filter
       inkscape:collect="always"
       id="filter4952"
       x="-0.1224288"
       width="1.2448575"
       y="-0.061465722"
       height="1.1229314"
       color-interpolation-filters="sRGB">
      <feGaussianBlur
         inkscape:collect="always"
         stdDeviation="4.0867394"
         id="feGaussianBlur4954" />
    </filter>
    <filter
       inkscape:collect="always"
       id="filter4971"
       x="-0.031706557"
       width="1.0634131"
       y="-0.55737716"
       height="2.1147544"
       color-interpolation-filters="sRGB">
      <feGaussianBlur
         inkscape:collect="always"
         stdDeviation="11.815235"
         id="feGaussianBlur4973" />
    </filter>
    <filter
       inkscape:collect="always"
       id="filter4978"
       x="-0.031706616"
       width="1.0634131"
       y="-0.55735874"
       height="2.1147175"
       color-interpolation-filters="sRGB">
      <feGaussianBlur
         inkscape:collect="always"
         stdDeviation="11.814844"
         id="feGaussianBlur4980" />
    </filter>
    <filter
       inkscape:collect="always"
       id="filter4985"
       x="-0.0354219"
       width="1.0708438"
       y="-0.19599342"
       height="1.3919868"
       color-interpolation-filters="sRGB">
      <feGaussianBlur
         inkscape:collect="always"
         stdDeviation="18.535155"
         id="feGaussianBlur4987" />
    </filter>
    <filter
       inkscape:collect="always"
       id="filter4992"
       x="-0.0354219"
       width="1.0708438"
       y="-0.19599342"
       height="1.3919868"
       color-interpolation-filters="sRGB">
      <feGaussianBlur
         inkscape:collect="always"
         stdDeviation="18.535156"
         id="feGaussianBlur4994" />
    </filter>
    <filter
       inkscape:collect="always"
       id="filter4999"
       color-interpolation-filters="sRGB">
      <feGaussianBlur
         inkscape:collect="always"
         stdDeviation="15.44577"
         id="feGaussianBlur5001" />
    </filter>
    <filter
       inkscape:collect="always"
       id="filter5008"
       color-interpolation-filters="sRGB">
      <feGaussianBlur
         inkscape:collect="always"
         stdDeviation="15.445954"
         id="feGaussianBlur5010" />
    </filter>
  </defs>
  <sodipodi:namedview
     id="base"
     pagecolor="#525252"
     bordercolor="#666666"
     borderopacity="1.0"
     inkscape:pageopacity="0"
     inkscape:pageshadow="2"
     inkscape:zoom="0.057347858"
     inkscape:cx="4373.4199"
     inkscape:cy="2.777395"
     inkscape:document-units="px"
     inkscape:current-layer="layer1"
     showgrid="false"
     inkscape:pagecheckerboard="false"
     showborder="true"
     units="px"
     inkscape:window-width="1920"
     inkscape:window-height="1017"
     inkscape:window-x="-8"
     inkscape:window-y="-8"
     inkscape:window-maximized="1"
     fit-margin-top="0"
     fit-margin-left="0"
     fit-margin-right="0"
     fit-margin-bottom="0">
    <inkscape:grid
       type="xygrid"
       id="grid24034"
       spacingx="2.6458333"
       spacingy="2.6458333"
       empspacing="10"
       visible="true"
       enabled="true"
       snapvisiblegridlinesonly="true"
       originx="16254.533px"
       originy="-5848.3098px" />
  </sodipodi:namedview>
  <metadata
     id="metadata23486">
    <rdf:RDF>
      <cc:Work
         rdf:about="">
        <dc:format>image/svg+xml</dc:format>
        <dc:type
           rdf:resource="http://purl.org/dc/dcmitype/StillImage" />
        <dc:title></dc:title>
        <cc:license
           rdf:resource="" />
        <dc:creator>
          <cc:Agent>
            <dc:title>Robert Brooks</dc:title>
          </cc:Agent>
        </dc:creator>
      </cc:Work>
    </rdf:RDF>
  </metadata>
  <g
     inkscape:label="Layer 1"
     inkscape:groupmode="layer"
     id="layer1"
     transform="translate(4300.6786,1493.159)">
    <g
       id="g4840"
       transform="translate(257.72549,-414.31821)"
       inkscape:export-filename="C:\Users\rober\Desktop\assets\ASSETS_2019\electrical_effects\electric_spark_explode\animation\spark_explode_01.png"
       inkscape:export-xdpi="50.215473"
       inkscape:export-ydpi="50.215473">
      <g
         transform="translate(-2990.2143,0)"
         id="g4545">
        <rect
           ry="0.008140523"
           rx="0.008140523"
           y="-1078.8408"
           x="-1568.1898"
           height="242.7937"
           width="374.85962"
           id="rect4289"
           style="color:#000000;fill:#333333;fill-opacity:1;fill-rule:nonzero;stroke:none;stroke-width:5;marker:none;visibility:visible;display:inline;overflow:visible;enable-background:accumulate;opacity:0" />
        <path
           style="color:#000000;fill:#00ffff;fill-opacity:1;fill-rule:nonzero;stroke:none;stroke-width:5;marker:none;visibility:visible;display:inline;overflow:visible;enable-background:accumulate"
           d="m -1380.382,-1051.0711 c 8e-4,0.057 0,0.116 0,0.1736 0.042,1.2755 0.3918,2.4617 0.9592,3.514 -1.8434,0.4659 -3.7758,1.9853 -2.927,1.8438 0.6342,-0.1057 2.6331,-0.3149 3.8778,-0.4465 0.4274,0.5015 0.9102,0.9485 1.4469,1.3312 -2.1721,2.1594 -5.2238,5.1323 -3.7372,4.4566 1.1574,-0.5261 3.9783,-2.4962 5.4322,-3.5306 0.6285,0.2492 1.3,0.4219 1.9927,0.5044 0.4561,2.1418 1.1091,3.5971 1.2319,2.7368 0.091,-0.6378 0.4114,-1.8027 0.678,-2.7368 0.8977,-0.1071 1.7435,-0.3669 2.5218,-0.7442 1.9177,2.0423 4.5667,3.9874 4.4401,3.481 -0.1244,-0.4977 -1.8492,-3.8719 -2.3813,-4.9113 0.4891,-0.4707 0.9167,-1.0072 1.2734,-1.5875 1.9144,0.7284 3.8447,0.7276 3.8447,0.7276 l -3.1337,-2.2159 c 0.2399,-0.6723 0.3953,-1.3857 0.4465,-2.1249 -1.1745,3.0885 -4.1141,4.3732 -7.6233,4.4896 -3.8808,0.1287 -7.2352,-1.428 -8.3427,-4.9609 z"
           id="path4293-1"
           inkscape:connector-curvature="0" />
      </g>
    </g>
    <g
       id="g4835"
       transform="translate(232.9381,-414.31821)"
       inkscape:export-filename="C:\Users\rober\Desktop\assets\ASSETS_2019\electrical_effects\electric_spark_explode\animation\spark_explode_02.png"
       inkscape:export-xdpi="50.215473"
       inkscape:export-ydpi="50.215473">
      <g
         transform="translate(-2590.5673,0)"
         id="g4549">
        <rect
           style="color:#000000;fill:#333333;fill-opacity:1;fill-rule:nonzero;stroke:none;stroke-width:5;marker:none;visibility:visible;display:inline;overflow:visible;enable-background:accumulate;opacity:0"
           id="rect4504"
           width="374.85962"
           height="242.7937"
           x="-1568.1898"
           y="-1078.8408"
           rx="0.008140523"
           ry="0.008140523" />
        <path
           id="path4340"
           d="m -1388.2872,-1050.9022 c 0,0.1116 0,0.2273 0,0.34 0.083,2.4992 0.7677,4.8232 1.8792,6.885 -3.6116,0.9128 -7.3977,3.8897 -5.7346,3.6125 1.2424,-0.2071 5.1588,-0.6167 7.5976,-0.8748 0.8373,0.9825 1.7834,1.8584 2.8349,2.6082 l -4.8755,8.9355 8.1965,-7.1211 c 1.2312,0.488 2.5469,0.8266 3.9041,0.9881 0.8936,4.1963 2.1729,22.0849 2.4137,20.3994 0.1785,-1.2496 1.3756,-18.3199 1.898,-20.15 1.7587,-0.2099 3.6059,-0.8734 4.3713,-1.7074 l 8.6992,6.8201 -4.6655,-9.6226 c 0.9581,-0.922 1.7961,-1.9732 2.4948,-3.1103 3.7509,1.4271 7.5328,1.4255 7.5328,1.4255 l -6.1397,-4.3414 c 0.4701,-1.3173 0.7744,-2.7151 0.8748,-4.1633 -2.3011,6.0515 -8.0607,11.031 -14.9361,11.2591 -7.6034,0.2521 -14.1756,-5.2605 -16.3455,-12.1825 z"
           style="color:#000000;fill:#00ffff;fill-opacity:1;fill-rule:nonzero;stroke:none;stroke-width:5;marker:none;visibility:visible;display:inline;overflow:visible;enable-background:accumulate"
           inkscape:connector-curvature="0"
           sodipodi:nodetypes="cccsccccccccccccccsc" />
        <path
           sodipodi:nodetypes="cccsccccccccccccccsc"
           inkscape:connector-curvature="0"
           style="color:#000000;fill:#00ffff;fill-opacity:1;fill-rule:nonzero;stroke:none;stroke-width:5;marker:none;visibility:visible;display:inline;overflow:visible;filter:url(#filter4913);enable-background:accumulate"
           d="m -1388.2872,-1050.9022 c 0,0.1116 0,0.2273 0,0.34 0.083,2.4992 0.7677,4.8232 1.8792,6.885 -3.6116,0.9128 -7.3977,3.8897 -5.7346,3.6125 1.2424,-0.2071 5.1588,-0.6167 7.5976,-0.8748 0.8373,0.9825 1.7834,1.8584 2.8349,2.6082 l -4.8755,8.9355 8.1965,-7.1211 c 1.2312,0.488 2.5469,0.8266 3.9041,0.9881 0.8936,4.1963 2.1729,22.0849 2.4137,20.3994 0.1785,-1.2496 1.3756,-18.3199 1.898,-20.15 1.7587,-0.2099 3.6059,-0.8734 4.3713,-1.7074 l 8.6992,6.8201 -4.6655,-9.6226 c 0.9581,-0.922 1.7961,-1.9732 2.4948,-3.1103 3.7509,1.4271 7.5328,1.4255 7.5328,1.4255 l -6.1397,-4.3414 c 0.4701,-1.3173 0.7744,-2.7151 0.8748,-4.1633 -2.3011,6.0515 -8.0607,11.031 -14.9361,11.2591 -7.6034,0.2521 -14.1756,-5.2605 -16.3455,-12.1825 z"
           id="path4911" />
      </g>
    </g>
    <g
       id="g4561"
       transform="translate(-213.57983,0)" />
    <g
       id="g5106"
       transform="translate(-110.58006,-414.31821)"
       inkscape:export-filename="C:\Users\rober\Desktop\assets\ASSETS_2019\electrical_effects\electric_spark_explode\animation\spark_explode_07.png"
       inkscape:export-xdpi="50.215473"
       inkscape:export-ydpi="50.215473">
      <g
         inkscape:export-ydpi="90"
         inkscape:export-xdpi="90"
         inkscape:export-filename="C:\Users\rober\Desktop\assets\ASSETS_2019\electrical_effects\07.png"
         transform="translate(250.88787,-2.8835121)"
         id="g4786">
        <g
           transform="translate(341.96693,-343.71744)"
           id="g4726">
          <rect
             ry="0.008140523"
             rx="0.008140523"
             y="-732.23987"
             x="-2533.7957"
             height="242.7937"
             width="374.85962"
             id="rect4728"
             style="color:#000000;fill:#333333;fill-opacity:1;fill-rule:nonzero;stroke:none;stroke-width:5;marker:none;visibility:visible;display:inline;overflow:visible;enable-background:accumulate;opacity:0" />
        </g>
        <path
           id="path4734"
           d="m -2020.9696,-1034.6499 -4.101,1.2981 c 2.495,-0.5738 4.034,-1.0301 4.101,-1.2981 z"
           style="opacity:0.5;color:#000000;fill:#00ffff;fill-opacity:1;fill-rule:nonzero;stroke:none;stroke-width:5;marker:none;visibility:visible;display:inline;overflow:visible;enable-background:accumulate"
           inkscape:connector-curvature="0" />
        <path
           id="path4736"
           transform="matrix(0.26458334,0,0,0.26458334,-364.63448,-233.40892)"
           d="m -6275.6562,-3023.4062 c -47.9502,11.0267 -191.0313,33.625 -191.0313,33.625 l 37,15.4062 -115.5937,50.8438 16.9374,81.6874 -95.5624,-3.0624 c 0,0 -64.7214,-29.3025 -73.9688,-30.8438 -9.2477,-1.541 -131,77.0625 -131,77.0625 l 131,-64.7187 83.2188,40.0624 112.5312,1.5626 -20.0312,-89.4063 134.0624,-55.4687 -18.4687,-15.4376 130.9063,-41.3124 z m 233.0312,9.5624 c 25.6528,10.8643 96.8438,49.5626 96.8438,49.5626 l 18.5312,85 99.1875,22.9062 54.5,59.9375 149.2813,-45.7813 51.25,18.5313 -47.9688,-33.7813 -147.125,37.0626 -42.5,-50.1563 -103.5312,-26.1563 -18.5313,-82.8124 -109.9375,-34.3126 z"
           style="opacity:0.1;color:#000000;fill:#00ffff;fill-opacity:1;fill-rule:nonzero;stroke:none;stroke-width:5;marker:none;visibility:visible;display:inline;overflow:visible;enable-background:accumulate"
           inkscape:connector-curvature="0" />
        <path
           id="path4738"
           d="m -1965.6717,-1031.5659 c -0.035,0 -0.06,0.01 -0.083,0.016 l 2.3151,0.7194 c -1.128,-0.4768 -1.9212,-0.7521 -2.2324,-0.7359 z"
           style="opacity:0.5;color:#000000;fill:#00ffff;fill-opacity:1;fill-rule:nonzero;stroke:none;stroke-width:5;marker:none;visibility:visible;display:inline;overflow:visible;enable-background:accumulate"
           inkscape:connector-curvature="0" />
        <path
           id="path4742"
           d="m -1988.831,-1012.8053 c 2.5952,19.60804 4.3243,44.9792 4.3243,44.9792 l 24.5153,24.51529 -16.9912,28.43445 -12.1874,10.57508 7.1272,11.70782 30.6007,-1.33948 25.1189,37.62872 -21.3651,-41.15924 -30.9562,1.14927 -4.8866,-7.26776 10.2775,-7.89615 19.3145,-31.55156 -25.9539,-25.65633 -8.938,-44.11931 z"
           style="opacity:0.5;color:#000000;fill:#00ffff;fill-opacity:1;fill-rule:nonzero;stroke:none;stroke-width:5;marker:none;visibility:visible;display:inline;overflow:visible;enable-background:accumulate"
           inkscape:connector-curvature="0" />
        <path
           id="path4744"
           d="m -2013.4786,-1012.7063 c -2.8545,2.4468 -23.1262,32.76705 -23.1262,32.76705 l 16.5034,8.0119 -25.9788,41.49826 10.0045,10.59984 -1.6867,9.95495 -26.0945,19.6288 -17.0078,1.75287 c 0,0 -13.5072,36.93652 -12.6917,35.30531 0.8156,-1.63108 14.6761,-33.03156 14.6761,-33.03156 l 15.9081,-0.81854 28.1368,-19.97605 3.2659,-14.68437 -9.3844,-9.3762 26.0532,-42.77154 -17.0822,-7.39179 18.5043,-31.46893 z"
           style="opacity:0.5;color:#000000;fill:#00ffff;fill-opacity:1;fill-rule:nonzero;stroke:none;stroke-width:5;marker:none;visibility:visible;display:inline;overflow:visible;enable-background:accumulate"
           inkscape:connector-curvature="0" />
        <path
           id="path4956"
           transform="matrix(0.26458334,0,0,0.26458334,-364.63448,-233.40892)"
           d="m -6138.6875,-2945.75 c 9.8086,74.1091 16.3437,170 16.3437,170 l 92.6563,92.6562 -64.2187,107.4688 -46.0626,39.9688 26.9376,44.25 115.6562,-5.0626 94.9375,142.2188 -80.75,-155.5625 -117,4.3437 -18.4687,-27.4687 38.8437,-29.8437 73,-119.25 -98.0937,-96.9688 -33.7813,-166.75 z m -93.1563,0.375 c -10.7886,9.2477 -87.4062,123.8438 -87.4062,123.8438 l 62.375,30.2812 -98.1875,156.8438 37.8125,40.0624 -6.375,37.625 -98.625,74.1876 -64.2812,6.625 c 0,0 -48.6822,133.126 -48.0938,133.625 0.022,-0.026 0.077,-0.091 0.125,-0.1876 3.0826,-6.1647 55.4688,-124.8437 55.4688,-124.8437 l 60.125,-3.0937 106.3437,-75.5 12.3437,-55.5 -35.4687,-35.4376 98.4687,-161.6562 -64.5624,-27.9375 69.9374,-118.9375 z"
           style="opacity:0.5;color:#000000;fill:#00ffff;fill-opacity:1;fill-rule:nonzero;stroke:none;stroke-width:5;marker:none;visibility:visible;display:inline;overflow:visible;enable-background:accumulate"
           inkscape:connector-curvature="0" />
        <path
           style="opacity:0.1;color:#000000;fill:#00ffff;fill-opacity:1;fill-rule:nonzero;stroke:none;stroke-width:5;marker:none;visibility:visible;display:inline;overflow:visible;filter:url(#filter4992);enable-background:accumulate"
           d="m -6275.6562,-3023.4062 c -47.9502,11.0267 -191.0313,33.625 -191.0313,33.625 l 37,15.4062 -115.5937,50.8438 16.9374,81.6874 -95.5624,-3.0624 c 0,0 -64.7214,-29.3025 -73.9688,-30.8438 -9.2477,-1.541 -131,77.0625 -131,77.0625 l 131,-64.7187 83.2188,40.0624 112.5312,1.5626 -20.0312,-89.4063 134.0624,-55.4687 -18.4687,-15.4376 130.9063,-41.3124 z m 233.0312,9.5624 c 25.6528,10.8643 96.8438,49.5626 96.8438,49.5626 l 18.5312,85 99.1875,22.9062 54.5,59.9375 149.2813,-45.7813 51.25,18.5313 -47.9688,-33.7813 -147.125,37.0626 -42.5,-50.1563 -103.5312,-26.1563 -18.5313,-82.8124 -109.9375,-34.3126 z"
           transform="matrix(0.26458334,0,0,0.26458334,-364.63448,-233.40892)"
           id="path4990"
           inkscape:connector-curvature="0" />
        <path
           style="opacity:0.5;color:#000000;fill:#00ffff;fill-opacity:1;fill-rule:nonzero;stroke:none;stroke-width:5;marker:none;visibility:visible;display:inline;overflow:visible;filter:url(#filter4999);enable-background:accumulate"
           d="m -6138.6875,-2945.75 c 9.8086,74.1091 16.3437,170 16.3437,170 l 92.6563,92.6562 -64.2187,107.4688 -46.0626,39.9688 26.9376,44.25 115.6562,-5.0626 94.9375,142.2188 -80.75,-155.5625 -117,4.3437 -18.4687,-27.4687 38.8437,-29.8437 73,-119.25 -98.0937,-96.9688 -33.7813,-166.75 z m -93.1563,0.375 c -10.7886,9.2477 -87.4062,123.8438 -87.4062,123.8438 l 62.375,30.2812 -98.1875,156.8438 37.8125,40.0624 -6.375,37.625 -98.625,74.1876 -64.2812,6.625 c 0,0 -48.6822,133.126 -48.0938,133.625 0.022,-0.026 0.077,-0.091 0.125,-0.1876 3.0826,-6.1647 55.4688,-124.8437 55.4688,-124.8437 l 60.125,-3.0937 106.3437,-75.5 12.3437,-55.5 -35.4687,-35.4376 98.4687,-161.6562 -64.5624,-27.9375 69.9374,-118.9375 z"
           transform="matrix(0.26458334,0,0,0.26458334,-364.63448,-233.40892)"
           id="path4997"
           inkscape:connector-curvature="0" />
      </g>
    </g>
    <g
       id="g5119"
       transform="translate(-171.96424,-414.31821)"
       inkscape:export-filename="C:\Users\rober\Desktop\assets\ASSETS_2019\electrical_effects\electric_spark_explode\animation\spark_explode_08.png"
       inkscape:export-xdpi="50.215473"
       inkscape:export-ydpi="50.215473">
      <g
         inkscape:export-ydpi="90"
         inkscape:export-xdpi="90"
         inkscape:export-filename="C:\Users\rober\Desktop\assets\ASSETS_2019\electrical_effects\08.png"
         transform="translate(260.57966,-2.8835121)"
         id="g4796">
        <g
           id="g4746"
           transform="translate(768.51894,-343.71744)">
          <rect
             style="color:#000000;fill:#333333;fill-opacity:1;fill-rule:nonzero;stroke:none;stroke-width:5;marker:none;visibility:visible;display:inline;overflow:visible;enable-background:accumulate;opacity:0"
             id="rect4748"
             width="374.85962"
             height="242.7937"
             x="-2533.7957"
             y="-732.23987"
             rx="0.008140523"
             ry="0.008140523" />
        </g>
        <path
           inkscape:connector-curvature="0"
           style="opacity:0.5;color:#000000;fill:#00ffff;fill-opacity:1;fill-rule:nonzero;stroke:none;stroke-width:5;marker:none;visibility:visible;display:inline;overflow:visible;enable-background:accumulate"
           d="m -1594.4176,-1034.6499 -4.101,1.2981 c 2.495,-0.5738 4.034,-1.0301 4.101,-1.2981 z"
           id="path4750" />
        <path
           inkscape:connector-curvature="0"
           style="opacity:0.5;color:#000000;fill:#00ffff;fill-opacity:1;fill-rule:nonzero;stroke:none;stroke-width:5;marker:none;visibility:visible;display:inline;overflow:visible;enable-background:accumulate"
           d="m -1539.1197,-1031.5659 c -0.035,0 -0.06,0.01 -0.083,0.016 l 2.3151,0.7194 c -1.128,-0.4768 -1.9212,-0.7521 -2.2324,-0.7359 z"
           id="path4754" />
        <path
           inkscape:connector-curvature="0"
           style="opacity:0.1;color:#000000;fill:#00ffff;fill-opacity:1;fill-rule:nonzero;stroke:none;stroke-width:5;marker:none;visibility:visible;display:inline;overflow:visible;enable-background:accumulate"
           d="m -1562.279,-1012.8053 c 2.5952,19.60804 4.3243,44.9792 4.3243,44.9792 l 24.5153,24.51529 -16.9912,28.43445 -12.1874,10.57508 7.1272,11.70782 30.6007,-1.33948 25.1189,37.62872 -21.3651,-41.15924 -30.9562,1.14927 -4.8866,-7.26776 10.2775,-7.89615 19.3145,-31.55156 -25.9539,-25.65633 -8.938,-44.11931 z"
           id="path4758" />
        <path
           inkscape:connector-curvature="0"
           style="opacity:0.1;color:#000000;fill:#00ffff;fill-opacity:1;fill-rule:nonzero;stroke:none;stroke-width:5;marker:none;visibility:visible;display:inline;overflow:visible;enable-background:accumulate"
           d="m -1586.9266,-1012.7063 c -2.8545,2.4468 -23.1262,32.76705 -23.1262,32.76705 l 16.5034,8.0119 -25.9788,41.49826 10.0045,10.59984 -1.6867,9.95495 -26.0945,19.6288 -17.0078,1.75287 c 0,0 -13.5072,36.93652 -12.6917,35.30531 0.8156,-1.63108 14.6761,-33.03156 14.6761,-33.03156 l 15.9081,-0.81854 28.1368,-19.97605 3.2659,-14.68437 -9.3844,-9.3762 26.0532,-42.77154 -17.0822,-7.39179 18.5043,-31.46893 z"
           id="path4760" />
        <path
           id="path5003"
           transform="matrix(0.26458334,0,0,0.26458334,-374.32627,-233.40892)"
           d="m -4489.9062,-2945.75 c 9.8086,74.1091 16.3437,170 16.3437,170 l 92.6563,92.6562 -64.2188,107.4688 -46.0625,39.9688 26.9375,44.25 115.6562,-5.0626 94.9376,142.2188 -80.75,-155.5625 -117,4.3437 -18.4688,-27.4687 38.8438,-29.8437 73,-119.25 -98.0938,-96.9688 -33.7812,-166.75 z m -93.1563,0.375 c -10.7887,9.2477 -87.4063,123.8438 -87.4063,123.8438 l 62.375,30.2812 -98.1874,156.8438 37.8124,40.0624 -6.375,37.625 -98.625,74.1876 -64.2812,6.625 c 0,0 -51.051,139.6027 -47.9688,133.4374 3.0826,-6.1647 55.4688,-124.8437 55.4688,-124.8437 l 60.125,-3.0937 106.3438,-75.5 12.3437,-55.5 -35.4687,-35.4376 98.4687,-161.6562 -64.5625,-27.9375 69.9375,-118.9375 z"
           style="opacity:0.1;color:#000000;fill:#00ffff;fill-opacity:1;fill-rule:nonzero;stroke:none;stroke-width:5;marker:none;visibility:visible;display:inline;overflow:visible;filter:url(#filter5008);enable-background:accumulate"
           inkscape:connector-curvature="0" />
      </g>
    </g>
    <g
       id="g5129"
       transform="translate(-233.34842,-414.31821)">
      <g
         inkscape:export-ydpi="90"
         inkscape:export-xdpi="90"
         inkscape:export-filename="C:\Users\rober\Desktop\assets\ASSETS_2019\electrical_effects\09.png"
         id="g4762"
         transform="translate(1465.3424,-346.60095)">
        <rect
           style="color:#000000;fill:#333333;fill-opacity:1;fill-rule:nonzero;stroke:none;stroke-width:5;marker:none;visibility:visible;display:inline;overflow:visible;enable-background:accumulate;opacity:0"
           id="rect4764"
           width="374.85962"
           height="242.7937"
           x="-2533.7957"
           y="-732.23987"
           rx="0.008140523"
           ry="0.008140523" />
      </g>
    </g>
    <g
       id="g5057"
       transform="translate(73.572741,-414.31821)"
       inkscape:export-filename="C:\Users\rober\Desktop\assets\ASSETS_2019\electrical_effects\electric_spark_explode\animation\spark_explode_04.png"
       inkscape:export-xdpi="50.215473"
       inkscape:export-ydpi="50.215473">
      <g
         inkscape:export-ydpi="90"
         inkscape:export-xdpi="90"
         inkscape:export-filename="C:\Users\rober\Desktop\assets\ASSETS_2019\electrical_effects\04.png"
         transform="translate(130.65321,0)"
         id="g4823">
        <g
           id="g4650">
          <g
             transform="translate(-1518.0153,0)"
             id="g4557">
            <rect
               style="color:#000000;fill:#333333;fill-opacity:1;fill-rule:nonzero;stroke:none;stroke-width:5;marker:none;visibility:visible;display:inline;overflow:visible;enable-background:accumulate;opacity:0"
               id="rect4508"
               width="374.85962"
               height="242.7937"
               x="-1862.3104"
               y="-1078.8408"
               rx="0.008140523"
               ry="0.008140523" />
            <path
               style="color:#000000;fill:#00ffff;fill-opacity:1;fill-rule:nonzero;stroke:none;stroke-width:5;marker:none;visibility:visible;display:inline;overflow:visible;enable-background:accumulate"
               d="m -1584.8419,-1057.5782 -35.8014,11.6251 34.2139,-8.1608 25.0858,7.2099 15.4285,-8.2186 -14.0559,3.9605 -24.8709,-6.4161 z m -184.2575,0.5043 22.9196,9.4506 10.4593,-4.2581 26.6733,6.9205 -28.6246,-10.0873 -10.666,3.2412 -20.7616,-5.2669 z m 73.0085,6.8379 c -0.6117,5.709 3.4694,16.5187 12.237,22.4316 8.7675,5.9131 12.0302,5.3 12.0302,5.3 0,0 -23.6555,-9.1771 -24.2672,-27.7316 z m 59.2749,0 c -0.6117,18.5545 -24.259,27.7316 -24.259,27.7316 0,0 3.2628,0.613 12.0303,-5.3 8.7676,-5.9129 12.8404,-16.7226 12.2287,-22.4316 z m -59.3245,14.3536 c -2.172,-0.01 -49.6755,8.5163 -49.6755,8.5163 l 9.8061,4.4648 -30.8571,13.1217 4.3243,21.62968 -24.077,2.44739 30.9975,2.7368 -5.0436,-23.63887 35.3219,-14.4198 -4.9031,-4.3243 34.1726,-10.5254 c -0.011,0 -0.032,-0.01 -0.066,-0.01 z m 60.6227,1.7363 26.9626,13.7005 5.1842,22.48956 26.5328,5.91177 14.8497,14.13041 -10.8148,-17.44596 -27.1033,-7.35868 -5.1924,-22.0597 -30.4188,-9.3679 z m -48.5924,18.8846 c -1.8743,2.0185 -23.3578,32.44457 -23.3578,32.44457 l 16.5861,8.06979 -24.3665,42.10183 7.3505,6.2012 -5.0436,-7.06935 27.5331,-43.25112 -17.0077,-7.2099 18.3059,-31.28702 z m 24.9287,0.5044 4.2829,43.83817 24.4657,25.07752 -14.6761,28.1368 -12.8488,11.21172 14.0725,-9.78133 19.3642,-29.77388 -26.0946,-25.89609 -8.5658,-42.81291 z"
               id="path4373"
               inkscape:connector-curvature="0" />
            <path
               inkscape:connector-curvature="0"
               id="path4931"
               d="m -1584.8419,-1057.5782 -35.8014,11.6251 34.2139,-8.1608 25.0858,7.2099 15.4285,-8.2186 -14.0559,3.9605 -24.8709,-6.4161 z m -184.2575,0.5043 22.9196,9.4506 10.4593,-4.2581 26.6733,6.9205 -28.6246,-10.0873 -10.666,3.2412 -20.7616,-5.2669 z m 73.0085,6.8379 c -0.6117,5.709 3.4694,16.5187 12.237,22.4316 8.7675,5.9131 12.0302,5.3 12.0302,5.3 0,0 -23.6555,-9.1771 -24.2672,-27.7316 z m 59.2749,0 c -0.6117,18.5545 -24.259,27.7316 -24.259,27.7316 0,0 3.2628,0.613 12.0303,-5.3 8.7676,-5.9129 12.8404,-16.7226 12.2287,-22.4316 z m -59.3245,14.3536 c -2.172,-0.01 -49.6755,8.5163 -49.6755,8.5163 l 9.8061,4.4648 -30.8571,13.1217 4.3243,21.62968 -24.077,2.44739 30.9975,2.7368 -5.0436,-23.63887 35.3219,-14.4198 -4.9031,-4.3243 34.1726,-10.5254 c -0.011,0 -0.032,-0.01 -0.066,-0.01 z m 60.6227,1.7363 26.9626,13.7005 5.1842,22.48956 26.5328,5.91177 14.8497,14.13041 -10.8148,-17.44596 -27.1033,-7.35868 -5.1924,-22.0597 -30.4188,-9.3679 z m -48.5924,18.8846 c -1.8743,2.0185 -23.3578,32.44457 -23.3578,32.44457 l 16.5861,8.06979 -24.3665,42.10183 7.3505,6.2012 -5.0436,-7.06935 27.5331,-43.25112 -17.0077,-7.2099 18.3059,-31.28702 z m 24.9287,0.5044 4.2829,43.83817 24.4657,25.07752 -14.6761,28.1368 -12.8488,11.21172 14.0725,-9.78133 19.3642,-29.77388 -26.0946,-25.89609 -8.5658,-42.81291 z"
               style="color:#000000;fill:#00ffff;fill-opacity:1;fill-rule:nonzero;stroke:none;stroke-width:5;marker:none;visibility:visible;display:inline;overflow:visible;filter:url(#filter4933);enable-background:accumulate" />
          </g>
        </g>
      </g>
      <path
         transform="matrix(0.26458334,0,0,0.26458334,-113.74661,-236.29243)"
         inkscape:connector-curvature="0"
         id="path4845"
         d="m -11494.382,-2834.7324 27.743,-1.156 -15.028,-83.2284 122.146,-53.559 -29.284,-15.0273 89.008,-17.7246 -68.587,20.4218 20.037,16.1833 c 0,0 -126.384,51.2471 -127.155,52.7884 -0.77,1.5412 15.028,84.7696 15.028,84.7696 z"
         style="color:#000000;fill:#ffffff;fill-opacity:1;fill-rule:nonzero;stroke:none;stroke-width:5;marker:none;visibility:visible;display:inline;overflow:visible;enable-background:accumulate" />
      <path
         transform="matrix(0.26458334,0,0,0.26458334,-113.74661,-236.29243)"
         inkscape:connector-curvature="0"
         id="path4847"
         d="m -10927.828,-2988.9454 40.325,13.623 21.796,83.9177 105.715,28.8808 13.078,25.0663 -20.162,-21.7968 -101.9,-27.246 -22.887,-85.0075 z"
         style="color:#000000;fill:#ffffff;fill-opacity:1;fill-rule:nonzero;stroke:none;stroke-width:5;marker:none;visibility:visible;display:inline;overflow:visible;enable-background:accumulate" />
      <path
         transform="matrix(0.26458334,0,0,0.26458334,-113.74661,-236.29243)"
         inkscape:connector-curvature="0"
         id="path4849"
         d="m -11036.626,-2753.8159 c 1.927,2.6972 69.357,70.1276 69.357,70.1276 l -45.467,81.6872 51.632,-81.6872 z"
         style="color:#000000;fill:#ffffff;fill-opacity:1;fill-rule:nonzero;stroke:none;stroke-width:5;marker:none;visibility:visible;display:inline;overflow:visible;enable-background:accumulate" />
      <path
         transform="matrix(0.26458334,0,0,0.26458334,-113.74661,-236.29243)"
         inkscape:connector-curvature="0"
         id="path4851"
         d="m -11242,-2850.1451 -17.339,27.7428 62.807,28.5135 -52.789,87.8522 59.339,-90.9348 -63.192,-27.3575 z"
         style="color:#000000;fill:#ffffff;fill-opacity:1;fill-rule:nonzero;stroke:none;stroke-width:5;marker:none;visibility:visible;display:inline;overflow:visible;enable-background:accumulate" />
    </g>
    <g
       id="g5048"
       transform="translate(134.95704,-414.31821)"
       inkscape:export-filename="C:\Users\rober\Desktop\assets\ASSETS_2019\electrical_effects\electric_spark_explode\animation\spark_explode_03.png"
       inkscape:export-xdpi="50.215473"
       inkscape:export-ydpi="50.215473">
      <g
         inkscape:export-ydpi="90"
         inkscape:export-xdpi="90"
         inkscape:export-filename="C:\Users\rober\Desktop\assets\ASSETS_2019\electrical_effects\03.png"
         transform="translate(82.308181,0)"
         id="g4829">
        <g
           id="g4655">
          <g
             transform="translate(-2200.0348,0)"
             id="g4553">
            <rect
               ry="0.008140523"
               rx="0.008140523"
               y="-1078.8408"
               x="-1568.1898"
               height="242.7937"
               width="374.85962"
               id="rect4506"
               style="color:#000000;fill:#333333;fill-opacity:1;fill-rule:nonzero;stroke:none;stroke-width:5;marker:none;visibility:visible;display:inline;overflow:visible;enable-background:accumulate;opacity:0" />
            <path
               style="color:#000000;fill:#00ffff;fill-opacity:1;fill-rule:nonzero;stroke:none;stroke-width:5;marker:none;visibility:visible;display:inline;overflow:visible;enable-background:accumulate"
               d="m -1290.9363,-1057.6444 -35.5381,11.6875 33.9506,-8.0825 19.8934,3.1667 z m -152.2511,2.8774 -10.5255,4.0431 -6.3417,-1.4469 6.0523,3.0344 11.9642,-2.8856 26.9627,6.9205 z m 47.749,3.9356 c 0,0.1644 0,0.3309 0.01,0.4961 0.1048,3.1602 0.2357,4.5173 0.6697,6.3004 -5.7497,2.2297 -11.5586,4.3155 -17.3633,6.3996 l 18.9591,-2.9187 c 1.5475,2.8389 3.8796,5.6105 6.4244,7.5572 l -11.8731,15.5691 17.4128,-12.4602 c 2.2141,0.9069 4.5983,2.0875 7.0859,2.2572 l 2.0009,25.4 2.4309,-25.276 c 3.2649,-0.4062 7.0284,-2.6613 9.7069,-4.2829 l 15.106,13.6012 -12.9315,-15.1143 c 2.8457,-2.2099 5.3654,-5.0676 6.9123,-8.3509 l 23.0022,2.7698 c 0.034,0.068 -14.8048,-4.1491 -21.977,-6.3831 0.4042,-1.4567 0.066,-2.6627 0.1737,-4.2167 -3.3649,8.8485 -10.9527,18.6448 -22.6632,18.6448 -13.8686,0 -20.0108,-10.0689 -23.0849,-19.9926 z m -6.3252,14.6596 -1.5048,0.4465 c 0.6877,-0.1786 1.2141,-0.3334 1.5048,-0.4465 z m -1.5048,0.4465 c -7.993,2.0752 -40.3777,8.1491 -41.3163,8.5245 -1.0195,0.4078 4.2829,2.6541 4.2829,2.6541 0,0 -8.3552,4.6944 -14.0643,7.5489 -5.7091,2.8545 -15.701,6.9288 -14.4777,6.9288 1.2234,0 35.479,-12.237 35.479,-12.237 l -3.8778,-3.2576 z m 61.9171,1.28 27.6692,12.346 5.1014,21.6132 13.0473,1.83553 -11.0133,-3.26593 -5.0932,-21.8116 z m -48.7872,18.663 -1.1327,1.943 c 0.4701,-0.7789 0.8797,-1.473 1.1327,-1.943 z m -1.1327,1.943 c -4.8331,8.0063 -19.8686,30.47669 -19.8686,30.47669 l 16.3132,7.95402 -2.2489,4.28296 3.4726,-5.50666 -15.0895,-7.34219 z m 26.0036,-0.9178 c 0,1.0195 5.1015,44.0366 5.1015,44.0366 l 24.0605,21.61316 -21.0013,-22.83685 z"
               id="path4342"
               inkscape:connector-curvature="0"
               sodipodi:nodetypes="ccccccccccccccccccccccccccccccsccccccccscccccccccccccccccccccccccc" />
            <path
               sodipodi:nodetypes="ccccccccccccccccccccccccccccccsccccccccscccccccccccccccccccccccccc"
               inkscape:connector-curvature="0"
               id="path4917"
               d="m -1290.9363,-1057.6444 -35.5381,11.6875 33.9506,-8.0825 19.8934,3.1667 z m -152.2511,2.8774 -10.5255,4.0431 -6.3417,-1.4469 6.0523,3.0344 11.9642,-2.8856 26.9627,6.9205 z m 47.749,3.9356 c 0,0.1644 0,0.3309 0.01,0.4961 0.1048,3.1602 0.2357,4.5173 0.6697,6.3004 -5.7497,2.2297 -11.5586,4.3155 -17.3633,6.3996 l 18.9591,-2.9187 c 1.5475,2.8389 3.8796,5.6105 6.4244,7.5572 l -11.8731,15.5691 17.4128,-12.4602 c 2.2141,0.9069 4.5983,2.0875 7.0859,2.2572 l 2.0009,25.4 2.4309,-25.276 c 3.2649,-0.4062 7.0284,-2.6613 9.7069,-4.2829 l 15.106,13.6012 -12.9315,-15.1143 c 2.8457,-2.2099 5.3654,-5.0676 6.9123,-8.3509 l 23.0022,2.7698 c 0.034,0.068 -14.8048,-4.1491 -21.977,-6.3831 0.4042,-1.4567 0.066,-2.6627 0.1737,-4.2167 -3.3649,8.8485 -10.9527,18.6448 -22.6632,18.6448 -13.8686,0 -20.0108,-10.0689 -23.0849,-19.9926 z m -6.3252,14.6596 -1.5048,0.4465 c 0.6877,-0.1786 1.2141,-0.3334 1.5048,-0.4465 z m -1.5048,0.4465 c -7.993,2.0752 -40.3777,8.1491 -41.3163,8.5245 -1.0195,0.4078 4.2829,2.6541 4.2829,2.6541 0,0 -8.3552,4.6944 -14.0643,7.5489 -5.7091,2.8545 -15.701,6.9288 -14.4777,6.9288 1.2234,0 35.479,-12.237 35.479,-12.237 l -3.8778,-3.2576 z m 61.9171,1.28 27.6692,12.346 5.1014,21.6132 13.0473,1.83553 -11.0133,-3.26593 -5.0932,-21.8116 z m -48.7872,18.663 -1.1327,1.943 c 0.4701,-0.7789 0.8797,-1.473 1.1327,-1.943 z m -1.1327,1.943 c -4.8331,8.0063 -19.8686,30.47669 -19.8686,30.47669 l 16.3132,7.95402 -2.2489,4.28296 3.4726,-5.50666 -15.0895,-7.34219 z m 26.0036,-0.9178 c 0,1.0195 5.1015,44.0366 5.1015,44.0366 l 24.0605,21.61316 -21.0013,-22.83685 z"
               style="color:#000000;fill:#00ffff;fill-opacity:1;fill-rule:nonzero;stroke:none;stroke-width:5;marker:none;visibility:visible;display:inline;overflow:visible;filter:url(#filter4927);enable-background:accumulate" />
          </g>
        </g>
      </g>
      <path
         transform="matrix(0.26458334,0,0,0.26458334,-113.74661,-236.29243)"
         inkscape:connector-curvature="0"
         id="path4853"
         d="m -13043.741,-2959.575 36.22,-15.798 -10.403,-11.5595 15.798,-3.8532 -10.789,5.3945 10.403,13.1007 z"
         style="color:#000000;fill:#ffffff;fill-opacity:1;fill-rule:nonzero;stroke:none;stroke-width:5;marker:none;visibility:visible;display:inline;overflow:visible;enable-background:accumulate" />
    </g>
    <g
       id="g5069"
       transform="translate(12.188431,-414.31821)"
       inkscape:export-filename="C:\Users\rober\Desktop\assets\ASSETS_2019\electrical_effects\electric_spark_explode\animation\spark_explode_05.png"
       inkscape:export-xdpi="50.215473"
       inkscape:export-ydpi="50.215473">
      <g
         inkscape:export-ydpi="90"
         inkscape:export-xdpi="90"
         inkscape:export-filename="C:\Users\rober\Desktop\assets\ASSETS_2019\electrical_effects\05.png"
         transform="translate(169.04514,0)"
         id="g4804">
        <g
           id="g4628"
           transform="translate(-46.136569,0)">
          <rect
             style="color:#000000;fill:#333333;fill-opacity:1;fill-rule:nonzero;stroke:none;stroke-width:5;marker:none;visibility:visible;display:inline;overflow:visible;enable-background:accumulate;opacity:0"
             id="rect4510"
             width="374.85962"
             height="242.7937"
             x="-2936.3372"
             y="-1078.8408"
             rx="0.008140523"
             ry="0.008140523" />
          <g
             transform="translate(-1929.2711,339.2842)"
             id="g4484">
            <path
               inkscape:connector-curvature="0"
               style="color:#000000;fill:#ff00ff;fill-opacity:1;fill-rule:nonzero;stroke:none;stroke-width:5;marker:none;visibility:visible;display:inline;overflow:visible;enable-background:accumulate"
               d="m -2766,-4320.1875 1.0625,7.0937 c 13.078,37.5995 44.1563,55.0313 44.1563,55.0313 0,0 -29.9844,-28.8789 -34.3438,-38.6875 -4.3593,-9.8086 -10.875,-23.4375 -10.875,-23.4375 z m 246.3125,23.8437 c -0.2959,-0.4959 -13.3454,23.5383 -38.1563,39.375 0,0 -8.7441,4.3653 -11.4687,6 -2.7246,1.6348 19.0938,-2.7402 27.8125,-13.0937 8.7187,-10.3535 21.2364,-29.9766 21.7812,-32.1563 0.017,-0.068 0.041,-0.109 0.031,-0.125 z"
               transform="matrix(0.26458334,0,0,0.26458334,-113.74661,-236.29243)"
               id="path4402" />
            <path
               inkscape:connector-curvature="0"
               id="path4301-7"
               d="m -853.77498,-1384.147 c -1.63118,-0.8156 -28.54555,-10.1948 -28.54555,-10.1948 l -10.60265,3.2623 -21.20524,-6.5247 -14.68056,12.6416 17.12732,-9.3792 20.38966,7.3403 10.60265,-4.078 z"
               style="opacity:0.5;color:#000000;fill:#00ffff;fill-opacity:1;fill-rule:nonzero;stroke:none;stroke-width:5;marker:none;visibility:visible;display:inline;overflow:visible;enable-background:accumulate" />
            <path
               style="opacity:0.5;color:#000000;fill:#00ffff;fill-opacity:1;fill-rule:nonzero;stroke:none;stroke-width:5;marker:none;visibility:visible;display:inline;overflow:visible;enable-background:accumulate"
               d="m -765.42564,-1385.2527 c 19.60803,-5.1904 35.17913,-11.5342 35.17913,-11.5342 l 25.3751,6.3438 12.68757,-3.4602 -13.84099,7.4971 -25.3751,-6.9204 z"
               id="path4466"
               inkscape:connector-curvature="0" />
          </g>
          <g
             id="g4568"
             transform="translate(-1929.2711,339.2842)">
            <path
               id="path4614"
               transform="matrix(0.26458334,0,0,0.26458334,1692.6159,-575.57663)"
               d="m -9593.1875,-3037.8438 1.0625,7.0938 c 1.28,3.6801 2.7336,7.1413 4.3125,10.4375 -57.1757,11.6668 -176.4687,30.5313 -176.4687,30.5313 l 37,15.4062 -115.5938,50.8438 16.9375,81.6874 -95.5625,-3.0624 c 0,0 -64.7215,-29.3025 -73.9688,-30.8438 -9.2472,-1.5409 -131.0002,77.0625 -131.0002,77.0625 l 131.0002,-64.7187 83.2188,40.0624 112.5312,1.5626 -20.0312,-89.4063 134.0625,-55.4687 -18.4687,-15.4376 116.9687,-36.9062 c 14.6405,29.4842 39.2187,43.2812 39.2187,43.2812 0,0 -29.9843,-28.8788 -34.3437,-38.6874 -0.7491,-1.6855 -1.6051,-3.5525 -2.4375,-5.375 l 11.5,-3.625 c -3.4825,0.8008 -7.6051,1.6526 -12,2.5624 -3.8744,-8.4496 -7.9375,-17 -7.9375,-17 z m 246.25,23.8438 c -1.0579,0.9739 -14.0582,24.0333 -38.0937,39.375 0,0 -8.7442,4.3654 -11.4688,6 -2.7246,1.635 19.0938,-2.7405 27.8125,-13.0938 8.7187,-10.3536 21.2365,-29.9765 21.7813,-32.1562 0.019,-0.068 0.042,-0.1099 0.031,-0.125 -0.01,-0.015 -0.028,-0.031 -0.062,0 z m 6.7187,0.1562 c 25.6526,10.8639 96.8438,49.5626 96.8438,49.5626 l 18.5312,85 99.1876,22.9062 54.5,59.9375 149.2812,-45.7813 51.25,18.5313 -47.9688,-33.7813 -147.125,37.0626 -42.5,-50.1563 -103.5312,-26.1563 -18.5312,-82.8124 -109.9376,-34.3126 z m -96.0312,68.0938 c 9.8085,74.109 16.3438,170 16.3438,170 l 92.625,92.6562 -64.2188,107.4688 -46.0312,39.9688 26.9062,44.2812 47.875,-7.0625 c 25.7402,-5.1651 55.6562,-5.3125 55.6562,-5.3125 0,0 -63.1799,-1.5312 -73.9687,-1.5312 -1.4758,0 -2.975,-0.2345 -4.4375,-0.6563 l -12.2812,0.4687 -18.4688,-27.4687 38.8438,-29.8437 73,-119.2188 -98.0626,-97 -33.7812,-166.75 z m -93.1875,0.4062 c -10.7888,9.2478 -87.4063,123.8126 -87.4063,123.8126 l 62.375,30.3124 -98.1874,156.8126 37.8124,40.0937 -6.375,37.625 -98.625,74.1563 -20.5937,2.125 c -17.5133,4.1011 -101.0544,13.8437 -95.7813,13.8437 2.6674,0 74.3411,-2.8649 85.625,-2.0625 l 34.0938,-1.75 106.3438,-75.5312 12.3437,-55.5 -35.4687,-35.4376 98.4687,-161.6562 -64.5625,-27.9062 69.9375,-118.9376 z"
               style="color:#000000;fill:#00ffff;fill-opacity:1;fill-rule:nonzero;stroke:none;stroke-width:5;marker:none;visibility:visible;display:inline;overflow:visible;enable-background:accumulate"
               inkscape:connector-curvature="0" />
            <path
               id="path4572"
               transform="matrix(0.26458334,0,0,0.26458334,1692.6159,-575.57663)"
               d="m -9852.25,-3106.875 -55.5,47.7812 64.75,-35.4374 77.0625,27.7187 40.0625,-15.4063 101.7188,26.2188 c -6.1651,-3.0826 -107.875,-38.5312 -107.875,-38.5312 l -40.0938,12.3124 -80.125,-24.6562 z m 694.9688,3.0938 c 0,0 -58.8597,23.9764 -132.9688,43.5937 l 128.625,-30.5313 95.9062,26.1563 52.3126,-28.3125 -47.9688,13.0625 -95.9062,-23.9687 z"
               style="opacity:0.5;color:#000000;fill:#00ffff;fill-opacity:1;fill-rule:nonzero;stroke:none;stroke-width:5;marker:none;visibility:visible;display:inline;overflow:visible;enable-background:accumulate"
               inkscape:connector-curvature="0" />
            <path
               id="path4626"
               d="m -836.20796,-1376.8202 -4.10104,1.2981 c 2.495,-0.5738 4.03402,-1.0301 4.10104,-1.2981 z"
               style="color:#000000;fill:#13b2b2;fill-opacity:1;fill-rule:nonzero;stroke:none;stroke-width:5;marker:none;visibility:visible;display:inline;overflow:visible;enable-background:accumulate"
               inkscape:connector-curvature="0" />
            <path
               id="path4622"
               d="m -780.91004,-1373.7362 c -0.0346,0 -0.0602,0.01 -0.0827,0.016 l 2.3151,0.7193 c -1.12799,-0.4768 -1.92119,-0.7521 -2.23242,-0.7358 z"
               style="color:#000000;fill:#13b2b2;fill-opacity:1;fill-rule:nonzero;stroke:none;stroke-width:5;marker:none;visibility:visible;display:inline;overflow:visible;enable-background:accumulate"
               inkscape:connector-curvature="0" />
            <path
               style="color:#000000;fill:#00ffff;fill-opacity:1;fill-rule:nonzero;stroke:none;stroke-width:5;marker:none;visibility:visible;display:inline;overflow:visible;filter:url(#filter4940);enable-background:accumulate"
               d="m -9593.1875,-3037.8438 1.0625,7.0938 c 1.28,3.6801 2.7336,7.1413 4.3125,10.4375 -57.1757,11.6668 -176.4687,30.5313 -176.4687,30.5313 l 37,15.4062 -115.5938,50.8438 16.9375,81.6874 -95.5625,-3.0624 c 0,0 -64.7215,-29.3025 -73.9688,-30.8438 -9.2472,-1.5409 -131.0002,77.0625 -131.0002,77.0625 l 131.0002,-64.7187 83.2188,40.0624 112.5312,1.5626 -20.0312,-89.4063 134.0625,-55.4687 -18.4687,-15.4376 116.9687,-36.9062 c 14.6405,29.4842 39.2187,43.2812 39.2187,43.2812 0,0 -29.9843,-28.8788 -34.3437,-38.6874 -0.7491,-1.6855 -1.6051,-3.5525 -2.4375,-5.375 l 11.5,-3.625 c -3.4825,0.8008 -7.6051,1.6526 -12,2.5624 -3.8744,-8.4496 -7.9375,-17 -7.9375,-17 z m 246.25,23.8438 c -1.0579,0.9739 -14.0582,24.0333 -38.0937,39.375 0,0 -8.7442,4.3654 -11.4688,6 -2.7246,1.635 19.0938,-2.7405 27.8125,-13.0938 8.7187,-10.3536 21.2365,-29.9765 21.7813,-32.1562 0.019,-0.068 0.042,-0.1099 0.031,-0.125 -0.01,-0.015 -0.028,-0.031 -0.062,0 z m 6.7187,0.1562 c 25.6526,10.8639 96.8438,49.5626 96.8438,49.5626 l 18.5312,85 99.1876,22.9062 54.5,59.9375 149.2812,-45.7813 51.25,18.5313 -47.9688,-33.7813 -147.125,37.0626 -42.5,-50.1563 -103.5312,-26.1563 -18.5312,-82.8124 -109.9376,-34.3126 z m -96.0312,68.0938 c 9.8085,74.109 16.3438,170 16.3438,170 l 92.625,92.6562 -64.2188,107.4688 -46.0312,39.9688 26.9062,44.2812 47.875,-7.0625 c 25.7402,-5.1651 55.6562,-5.3125 55.6562,-5.3125 0,0 -63.1799,-1.5312 -73.9687,-1.5312 -1.4758,0 -2.975,-0.2345 -4.4375,-0.6563 l -12.2812,0.4687 -18.4688,-27.4687 38.8438,-29.8437 73,-119.2188 -98.0626,-97 -33.7812,-166.75 z m -93.1875,0.4062 c -10.7888,9.2478 -87.4063,123.8126 -87.4063,123.8126 l 62.375,30.3124 -98.1874,156.8126 37.8124,40.0937 -6.375,37.625 -98.625,74.1563 -20.5937,2.125 c -17.5133,4.1011 -101.0544,13.8437 -95.7813,13.8437 2.6674,0 74.3411,-2.8649 85.625,-2.0625 l 34.0938,-1.75 106.3438,-75.5312 12.3437,-55.5 -35.4687,-35.4376 98.4687,-161.6562 -64.5625,-27.9062 69.9375,-118.9376 z"
               transform="matrix(0.26458334,0,0,0.26458334,1692.6159,-575.57663)"
               id="path4938"
               inkscape:connector-curvature="0" />
            <path
               style="opacity:0.5;color:#000000;fill:#00ffff;fill-opacity:1;fill-rule:nonzero;stroke:none;stroke-width:5;marker:none;visibility:visible;display:inline;overflow:visible;filter:url(#filter4971);enable-background:accumulate"
               d="m -9852.25,-3106.875 -55.5,47.7812 64.75,-35.4374 77.0625,27.7187 40.0625,-15.4063 101.7188,26.2188 c -6.1651,-3.0826 -107.875,-38.5312 -107.875,-38.5312 l -40.0938,12.3124 -80.125,-24.6562 z m 694.9688,3.0938 c 0,0 -58.8597,23.9764 -132.9688,43.5937 l 128.625,-30.5313 95.9062,26.1563 52.3126,-28.3125 -47.9688,13.0625 -95.9062,-23.9687 z"
               transform="matrix(0.26458334,0,0,0.26458334,1692.6159,-575.57663)"
               id="path4969"
               inkscape:connector-curvature="0" />
          </g>
        </g>
      </g>
      <path
         id="path4845-9"
         transform="matrix(0.26458334,0,0,0.26458334,-113.74661,-236.29243)"
         d="m -9653.0938,-3004.4062 -89.0312,17.7187 29.3125,15.0313 -122.1563,53.5624 14.8438,82.25 -100.6875,-1.625 -72.4687,-32.6874 -76.2808,37.5937 73.562,-35.4063 79.5312,36.5 101.375,1.0938 1.3126,0.125 c 0,0 -15.8012,-83.24 -15.0313,-84.7812 0.771,-1.5413 127.1563,-52.7813 127.1563,-52.7813 l -20.0313,-16.1875 68.5937,-20.4062 z"
         style="color:#000000;fill:#ffffff;fill-opacity:1;fill-rule:nonzero;stroke:none;stroke-width:5;marker:none;visibility:visible;display:inline;overflow:visible;enable-background:accumulate"
         inkscape:connector-curvature="0" />
      <path
         id="path4847-4"
         transform="matrix(0.26458334,0,0,0.26458334,-113.74661,-236.29243)"
         d="m -9277.5312,-2989.6562 35.9687,17.4374 22.9063,85 101.875,27.25 3.3437,3.625 c 11.4719,13.6536 43.25,51.0313 43.25,51.0313 l 143.8437,-41.4063 20.1563,4.3438 -16.3437,-8.7188 -146.5626,38.1563 -36.6562,-42.7813 -3.9375,-7.5312 -105.7187,-28.875 -21.7813,-83.9062 -40.3437,-13.625 z"
         style="color:#000000;fill:#ffffff;fill-opacity:1;fill-rule:nonzero;stroke:none;stroke-width:5;marker:none;visibility:visible;display:inline;overflow:visible;enable-background:accumulate"
         inkscape:connector-curvature="0" />
      <path
         sodipodi:nodetypes="cccccccccccccc"
         transform="matrix(0.26458334,0,0,0.26458334,-113.74661,-236.29243)"
         inkscape:connector-curvature="0"
         id="path4897"
         d="m -9420.0336,-2828.7389 7.0839,49.5878 93.1813,98.0856 -63.2107,108.984 -47.9529,38.6893 21.7968,32.6952 1.6347,2.7246 20.1621,-2.1797 -20.1621,-2.1796 -17.4374,-31.6054 46.3182,-35.4198 64.8455,-112.7984 -96.9958,-100.2654 z"
         style="color:#000000;fill:#ffffff;fill-opacity:1;fill-rule:nonzero;stroke:none;stroke-width:5;marker:none;visibility:visible;display:inline;overflow:visible;enable-background:accumulate" />
      <path
         transform="matrix(0.26458334,0,0,0.26458334,-113.74661,-236.29243)"
         inkscape:connector-curvature="0"
         id="path4899"
         d="m -9757.3392,-2472.3611 37.5995,-4.9043 104.0797,-77.9236 6.5391,-42.5037 -34.33,-37.5995 96.9958,-160.7515 -62.1209,-27.7909 42.5038,-67.5701 -37.5995,65.3904 62.1209,28.8808 -97.5407,162.3862 34.3299,35.9647 -9.2636,49.5877 -106.2594,75.199 z"
         style="color:#000000;fill:#ffffff;fill-opacity:1;fill-rule:nonzero;stroke:none;stroke-width:5;marker:none;visibility:visible;display:inline;overflow:visible;enable-background:accumulate" />
    </g>
    <g
       id="g5089"
       transform="translate(-49.195879,-414.31821)"
       inkscape:export-filename="C:\Users\rober\Desktop\assets\ASSETS_2019\electrical_effects\electric_spark_explode\animation\spark_explode_06.png"
       inkscape:export-xdpi="50.215473"
       inkscape:export-ydpi="50.215473">
      <g
         inkscape:export-ydpi="90"
         inkscape:export-xdpi="90"
         inkscape:export-filename="C:\Users\rober\Desktop\assets\ASSETS_2019\electrical_effects\06.png"
         transform="translate(214.28171,-2.8835121)"
         id="g4774">
        <g
           id="g4695"
           transform="translate(-57.670711,-343.71744)">
          <rect
             style="color:#000000;fill:#333333;fill-opacity:1;fill-rule:nonzero;stroke:none;stroke-width:5;marker:none;visibility:visible;display:inline;overflow:visible;enable-background:accumulate;opacity:0"
             id="rect4685"
             width="374.85962"
             height="242.7937"
             x="-2533.7957"
             y="-732.23987"
             rx="0.008140523"
             ry="0.008140523" />
        </g>
        <path
           id="path4689"
           transform="matrix(0.26458334,0,0,0.26458334,-328.02832,-233.40892)"
           d="m -8203.4688,-3106.875 -55.4687,47.7812 64.7187,-35.4374 77.0626,27.7187 40.0624,-15.4063 101.75,26.2188 c -6.1651,-3.0826 -107.9062,-38.5312 -107.9062,-38.5312 l -40.0625,12.3124 -80.1563,-24.6562 z m 695,3.0938 c 0,0 -58.8597,23.9764 -132.9687,43.5937 l 128.5937,-30.5313 95.9063,26.1563 52.3125,-28.3125 -47.9375,13.0625 -95.9063,-23.9687 z"
           style="opacity:0.1;color:#000000;fill:#00ffff;fill-opacity:1;fill-rule:nonzero;stroke:none;stroke-width:5;marker:none;visibility:visible;display:inline;overflow:visible;enable-background:accumulate"
           inkscape:connector-curvature="0" />
        <path
           inkscape:connector-curvature="0"
           style="opacity:0.5;color:#000000;fill:#00ffff;fill-opacity:1;fill-rule:nonzero;stroke:none;stroke-width:5;marker:none;visibility:visible;display:inline;overflow:visible;enable-background:accumulate"
           d="m -2420.6072,-1034.6499 -4.101,1.2981 c 2.495,-0.5738 4.034,-1.0301 4.101,-1.2981 z"
           id="path4724" />
        <path
           id="path4722"
           transform="matrix(0.26458334,0,0,0.26458334,-328.02832,-233.40892)"
           d="m -7924.4688,-3023.4062 c -47.9501,11.0267 -191.0312,33.625 -191.0312,33.625 l 37,15.4062 -115.5938,50.8438 16.9376,81.6874 -95.5626,-3.0624 c 0,0 -64.7213,-29.3025 -73.9687,-30.8438 -9.2477,-1.541 -131,77.0625 -131,77.0625 l 131,-64.7187 83.2187,40.0624 112.5313,1.5626 -20.0313,-89.4063 134.0626,-55.4687 -18.4688,-15.4376 130.9062,-41.3124 z m 233.0313,9.5624 c 25.6528,10.8643 96.8437,49.5626 96.8437,49.5626 l 18.5313,85 99.1875,22.9062 54.5,59.9375 149.2812,-45.7813 51.25,18.5313 -47.9687,-33.7813 -147.125,37.0626 -42.5,-50.1563 -103.5313,-26.1563 -18.5312,-82.8124 -109.9375,-34.3126 z"
           style="opacity:0.5;color:#000000;fill:#00ffff;fill-opacity:1;fill-rule:nonzero;stroke:none;stroke-width:5;marker:none;visibility:visible;display:inline;overflow:visible;enable-background:accumulate"
           inkscape:connector-curvature="0" />
        <path
           inkscape:connector-curvature="0"
           style="opacity:0.5;color:#000000;fill:#00ffff;fill-opacity:1;fill-rule:nonzero;stroke:none;stroke-width:5;marker:none;visibility:visible;display:inline;overflow:visible;enable-background:accumulate"
           d="m -2365.3093,-1031.5659 c -0.035,0 -0.06,0.01 -0.083,0.016 l 2.3151,0.7194 c -1.128,-0.4768 -1.9212,-0.7521 -2.2324,-0.7359 z"
           id="path4720" />
        <path
           inkscape:connector-curvature="0"
           style="color:#000000;fill:#00ffff;fill-opacity:1;fill-rule:nonzero;stroke:none;stroke-width:5;marker:none;visibility:visible;display:inline;overflow:visible;enable-background:accumulate"
           d="m -2388.4686,-1012.8053 c 2.5952,19.60804 4.3243,44.9792 4.3243,44.9792 l 24.5153,24.51529 -16.9912,28.43445 -12.1874,10.57508 7.1272,11.70782 30.6007,-1.33948 25.1189,37.62872 -21.3651,-41.15924 -30.9562,1.14927 -4.8866,-7.26776 10.2775,-7.89615 19.3145,-31.55156 -25.9539,-25.65633 -8.938,-44.11931 z"
           id="path4716" />
        <path
           inkscape:connector-curvature="0"
           style="color:#000000;fill:#00ffff;fill-opacity:1;fill-rule:nonzero;stroke:none;stroke-width:5;marker:none;visibility:visible;display:inline;overflow:visible;enable-background:accumulate"
           d="m -2413.1162,-1012.7063 c -2.8545,2.4468 -23.1262,32.76705 -23.1262,32.76705 l 16.5034,8.0119 -25.9788,41.49826 10.0045,10.59984 -1.6867,9.95495 -26.0945,19.6288 -17.0078,1.75287 c 0,0 -13.5072,36.93652 -12.6917,35.30531 0.8156,-1.63108 14.6761,-33.03156 14.6761,-33.03156 l 15.9081,-0.81854 28.1368,-19.97605 3.2659,-14.68437 -9.3844,-9.3762 26.0532,-42.77154 -17.0822,-7.39179 18.5043,-31.46893 z"
           id="path4693" />
        <path
           id="path4944"
           d="m -2388.4686,-1012.8053 c 2.5952,19.60804 4.3243,44.9792 4.3243,44.9792 l 24.5153,24.51529 -16.9912,28.43445 -12.1874,10.57508 7.1272,11.70782 30.6007,-1.33948 25.1189,37.62872 -21.3651,-41.15924 -30.9562,1.14927 -4.8866,-7.26776 10.2775,-7.89615 19.3145,-31.55156 -25.9539,-25.65633 -8.938,-44.11931 z"
           style="color:#000000;fill:#00ffff;fill-opacity:1;fill-rule:nonzero;stroke:none;stroke-width:5;marker:none;visibility:visible;display:inline;overflow:visible;filter:url(#filter4948);enable-background:accumulate"
           inkscape:connector-curvature="0" />
        <path
           id="path4946"
           d="m -2413.1162,-1012.7063 c -2.8545,2.4468 -23.1262,32.76705 -23.1262,32.76705 l 16.5034,8.0119 -25.9788,41.49826 10.0045,10.59984 -1.6867,9.95495 -26.0945,19.6288 -17.0078,1.75287 c 0,0 -13.5072,36.93652 -12.6917,35.30531 0.8156,-1.63108 14.6761,-33.03156 14.6761,-33.03156 l 15.9081,-0.81854 28.1368,-19.97605 3.2659,-14.68437 -9.3844,-9.3762 26.0532,-42.77154 -17.0822,-7.39179 18.5043,-31.46893 z"
           style="color:#000000;fill:#00ffff;fill-opacity:1;fill-rule:nonzero;stroke:none;stroke-width:5;marker:none;visibility:visible;display:inline;overflow:visible;filter:url(#filter4952);enable-background:accumulate"
           inkscape:connector-curvature="0" />
        <path
           style="opacity:0.1;color:#000000;fill:#00ffff;fill-opacity:1;fill-rule:nonzero;stroke:none;stroke-width:5;marker:none;visibility:visible;display:inline;overflow:visible;filter:url(#filter4978);enable-background:accumulate"
           d="m -8203.4688,-3106.875 -55.4687,47.7812 64.7187,-35.4374 77.0626,27.7187 40.0624,-15.4063 101.75,26.2188 c -6.1651,-3.0826 -107.9062,-38.5312 -107.9062,-38.5312 l -40.0625,12.3124 -80.1563,-24.6562 z m 695,3.0938 c 0,0 -58.8597,23.9764 -132.9687,43.5937 l 128.5937,-30.5313 95.9063,26.1563 52.3125,-28.3125 -47.9375,13.0625 -95.9063,-23.9687 z"
           transform="matrix(0.26458334,0,0,0.26458334,-328.02832,-233.40892)"
           id="path4976"
           inkscape:connector-curvature="0" />
        <path
           style="opacity:0.5;color:#000000;fill:#00ffff;fill-opacity:1;fill-rule:nonzero;stroke:none;stroke-width:5;marker:none;visibility:visible;display:inline;overflow:visible;filter:url(#filter4985);enable-background:accumulate"
           d="m -7924.4688,-3023.4062 c -47.9501,11.0267 -191.0312,33.625 -191.0312,33.625 l 37,15.4062 -115.5938,50.8438 16.9376,81.6874 -95.5626,-3.0624 c 0,0 -64.7213,-29.3025 -73.9687,-30.8438 -9.2477,-1.541 -131,77.0625 -131,77.0625 l 131,-64.7187 83.2187,40.0624 112.5313,1.5626 -20.0313,-89.4063 134.0626,-55.4687 -18.4688,-15.4376 130.9062,-41.3124 z m 233.0313,9.5624 c 25.6528,10.8643 96.8437,49.5626 96.8437,49.5626 l 18.5313,85 99.1875,22.9062 54.5,59.9375 149.2812,-45.7813 51.25,18.5313 -47.9687,-33.7813 -147.125,37.0626 -42.5,-50.1563 -103.5313,-26.1563 -18.5312,-82.8124 -109.9375,-34.3126 z"
           transform="matrix(0.26458334,0,0,0.26458334,-328.02832,-233.40892)"
           id="path4983"
           inkscape:connector-curvature="0" />
      </g>
      <path
         id="path4901"
         transform="matrix(0.26458334,0,0,0.26458334,-113.74661,-236.29243)"
         d="m -7770.875,-2828.75 7.0938,49.5938 93.1562,98.0937 -63.1875,108.9687 -47.9687,38.6876 21.8124,32.7187 1.625,2.7187 3.7813,-0.4062 111.4063,-1.5312 56.2812,84.7812 -50.0938,-87.0938 -120.2187,0 -1.1563,-0.125 -17.4374,-31.5937 46.3124,-35.4063 64.8438,-112.8124 -97,-100.25 -9.25,-46.3438 z"
         style="color:#000000;fill:#ffffff;fill-opacity:1;fill-rule:nonzero;stroke:none;stroke-width:5;marker:none;visibility:visible;display:inline;overflow:visible;enable-background:accumulate"
         inkscape:connector-curvature="0" />
      <path
         id="path4903"
         transform="matrix(0.26458334,0,0,0.26458334,-113.74661,-236.29243)"
         d="m -7918.4688,-2891.4062 -42.5,67.5624 62.125,27.8126 -97,160.75 34.3438,37.5937 -6.5312,42.5 -103.9376,77.8125 -58.9687,5.2188 -23.9063,57.8124 23.9063,-55.5 58.8437,-7.4374 -0.031,0.031 -37.5938,4.875 37.0626,-1.625 106.25,-75.1875 9.25,-49.5937 -34.3126,-35.9688 97.5313,-162.375 -62.125,-28.875 37.5937,-65.4062 z"
         style="color:#000000;fill:#ffffff;fill-opacity:1;fill-rule:nonzero;stroke:none;stroke-width:5;marker:none;visibility:visible;display:inline;overflow:visible;enable-background:accumulate"
         inkscape:connector-curvature="0" />
    </g>
  </g>
</svg>
