<?xml version="1.0" encoding="UTF-8" standalone="no"?>
<!-- Created with Inkscape (http://www.inkscape.org/) -->

<svg
   xmlns:dc="http://purl.org/dc/elements/1.1/"
   xmlns:cc="http://creativecommons.org/ns#"
   xmlns:rdf="http://www.w3.org/1999/02/22-rdf-syntax-ns#"
   xmlns:svg="http://www.w3.org/2000/svg"
   xmlns="http://www.w3.org/2000/svg"
   xmlns:sodipodi="http://sodipodi.sourceforge.net/DTD/sodipodi-0.dtd"
   xmlns:inkscape="http://www.inkscape.org/namespaces/inkscape"
   width="4047.3296"
   height="1459.7891"
   viewBox="0 0 1070.8559 386.23586"
   version="1.1"
   id="svg23489"
   inkscape:version="0.48.5 r10040"
   sodipodi:docname="big_bolt.svg">
  <defs
     id="defs23483">
    <filter
       inkscape:collect="always"
       id="filter4386"
       x="-0.085177235"
       width="1.1703545"
       y="-0.20298629"
       height="1.4059726"
       color-interpolation-filters="sRGB">
      <feGaussianBlur
         inkscape:collect="always"
         stdDeviation="2.5765473"
         id="feGaussianBlur4388" />
    </filter>
    <filter
       inkscape:collect="always"
       id="filter4396"
       x="-0.085177235"
       width="1.1703545"
       y="-0.20298629"
       height="1.4059726"
       color-interpolation-filters="sRGB">
      <feGaussianBlur
         inkscape:collect="always"
         stdDeviation="2.5765473"
         id="feGaussianBlur4398" />
    </filter>
    <filter
       inkscape:collect="always"
       id="filter4410"
       x="-0.085177235"
       width="1.1703545"
       y="-0.20298629"
       height="1.4059726"
       color-interpolation-filters="sRGB">
      <feGaussianBlur
         inkscape:collect="always"
         stdDeviation="2.5765473"
         id="feGaussianBlur4412" />
    </filter>
    <filter
       inkscape:collect="always"
       id="filter4420"
       x="-0.085177235"
       width="1.1703545"
       y="-0.20298629"
       height="1.4059726"
       color-interpolation-filters="sRGB">
      <feGaussianBlur
         inkscape:collect="always"
         stdDeviation="2.5765473"
         id="feGaussianBlur4422" />
    </filter>
  </defs>
  <sodipodi:namedview
     id="base"
     pagecolor="#525252"
     bordercolor="#666666"
     borderopacity="1.0"
     inkscape:pageopacity="0"
     inkscape:pageshadow="2"
     inkscape:zoom="0.43323766"
     inkscape:cx="3036.8128"
     inkscape:cy="-201.19069"
     inkscape:document-units="px"
     inkscape:current-layer="layer1"
     showgrid="false"
     inkscape:pagecheckerboard="false"
     showborder="true"
     units="px"
     inkscape:window-width="1920"
     inkscape:window-height="1017"
     inkscape:window-x="-8"
     inkscape:window-y="-8"
     inkscape:window-maximized="1"
     fit-margin-top="0"
     fit-margin-left="0"
     fit-margin-right="0"
     fit-margin-bottom="0"
     showguides="true"
     inkscape:guide-bbox="true"
     inkscape:snap-global="true"
     inkscape:snap-bbox="false">
    <inkscape:grid
       type="xygrid"
       id="grid24034"
       spacingx="2.6458333"
       spacingy="2.6458333"
       empspacing="10"
       visible="true"
       enabled="true"
       snapvisiblegridlinesonly="true"
       originx="460.30271px"
       originy="2463.4275px" />
  </sodipodi:namedview>
  <metadata
     id="metadata23486">
    <rdf:RDF>
      <cc:Work
         rdf:about="">
        <dc:format>image/svg+xml</dc:format>
        <dc:type
           rdf:resource="http://purl.org/dc/dcmitype/StillImage" />
        <dc:title></dc:title>
        <cc:license
           rdf:resource="" />
        <dc:creator>
          <cc:Agent>
            <dc:title>Robert Brooks</dc:title>
          </cc:Agent>
        </dc:creator>
      </cc:Work>
    </rdf:RDF>
  </metadata>
  <g
     inkscape:label="Layer 1"
     inkscape:groupmode="layer"
     id="layer1"
     transform="translate(121.78843,-562.54604)">
    <g
       id="g4561"
       transform="translate(-213.57983,0)" />
    <g
       id="g4960"
       transform="translate(232.00565,-1914.8732)"
       inkscape:export-filename="C:\Users\rober\Desktop\assets\ASSETS_2019\electrical_effects\big_bolt\strike_animation\bolt_strike_animation_03.png"
       inkscape:export-xdpi="90"
       inkscape:export-ydpi="90">
      <path
         style="opacity:0;color:#000000;fill:#313131;fill-opacity:1;fill-rule:nonzero;stroke:none;stroke-width:10;marker:none;visibility:visible;display:inline;overflow:visible;enable-background:accumulate"
         d="m -86.080139,2771.5691 133.856994,0 0,92.086 -133.856994,0 z"
         id="rect4320"
         inkscape:connector-curvature="0"
         sodipodi:nodetypes="ccccc" />
      <g
         transform="translate(-377.5702,-177.41691)"
         id="g4770">
        <rect
           transform="matrix(0.26458334,0,0,0.26458334,-113.74661,-236.29243)"
           y="12102.703"
           x="1533.7014"
           height="202.33694"
           width="288.59973"
           id="rect4752"
           style="opacity:0;color:#000000;fill:#333333;fill-opacity:1;fill-rule:nonzero;stroke:none;stroke-width:10;marker:none;visibility:visible;display:inline;overflow:visible;enable-background:accumulate" />
        <path
           inkscape:connector-curvature="0"
           style="color:#000000;fill:#00ffff;fill-opacity:1;fill-rule:nonzero;stroke:none;stroke-width:10;marker:none;visibility:visible;display:inline;overflow:visible;enable-background:accumulate"
           d="m 352.47556,2972.5528 c -1.04298,-0.091 -12.50983,7.003 -12.50983,7.003 l -4.0349,-1.1821 4.50618,4.2661 8.78086,-6.6392 c 0,0 0.47223,6.6458 -0.23977,8.0698 -0.71201,1.424 2.61276,5.9283 2.61276,5.9283 0,0 8.31107,2.1381 9.26041,2.6127 0.60789,0.304 0.24215,4.6776 -0.0992,7.797 1.98968,-0.3201 3.48992,-0.3227 4.51446,-0.2315 l -0.62012,-10.1782 -8.78086,-1.6619 -3.80339,-3.5554 c 0,0 0.005,-10.9181 0.47956,-12.1047 0.0297,-0.074 0.003,-0.118 -0.0661,-0.1239 z"
           id="path4498" />
      </g>
      <g
         transform="translate(209.93985,-255.37259)"
         id="g4322">
        <g
           transform="translate(32.833692,812.55401)"
           id="g4324">
          <path
             inkscape:connector-curvature="0"
             id="path4404"
             d="m -262.32094,2263.1941 c -18.4156,0 -33.66127,13.2241 -36.2975,30.4637 l 72.59819,0 c -2.63618,-17.2397 -17.88504,-30.4637 -36.30069,-30.4637 z"
             style="color:#000000;fill:#00ffff;fill-opacity:1;fill-rule:nonzero;stroke:none;stroke-width:2;marker:none;visibility:visible;display:inline;overflow:visible;filter:url(#filter4410);enable-background:accumulate" />
          <path
             style="color:#000000;fill:#00ffff;fill-opacity:1;fill-rule:nonzero;stroke:none;stroke-width:2;marker:none;visibility:visible;display:inline;overflow:visible;enable-background:accumulate"
             d="M 1281.125 1219.9062 C 1279.331 1226.1852 1279.3274 1248.6066 1283.8125 1246.8125 C 1288.2976 1245.0187 1333.1562 1245.0312 1333.1562 1245.0312 L 1296.375 1263.8438 L 1316.0938 1280.9062 L 1357.375 1296.1562 L 1349.2812 1321.2812 C 1349.2812 1321.2812 1348.8915 1322.5517 1348.2188 1324.5 C 1324.7503 1306.7594 1295.2749 1296.2188 1263.2812 1296.2188 C 1193.679 1296.2188 1136.0575 1346.1862 1126.0938 1411.3438 L 1400.5 1411.3438 C 1395.5296 1378.8392 1378.6707 1350.1298 1354.4062 1329.5 L 1363.625 1294.3438 C 1363.625 1294.3438 1323.2756 1274.625 1319.6875 1274.625 C 1316.0994 1274.625 1311.625 1266.5625 1311.625 1266.5625 L 1351.0938 1242.3438 L 1342.125 1233.375 C 1342.125 1233.375 1313.4226 1237.8344 1308.9375 1236.9375 C 1304.4524 1236.0406 1284.6875 1234.25 1284.6875 1234.25 L 1281.125 1219.9062 z "
             transform="matrix(0.26458334,0,0,0.26458334,-596.56765,1920.2378)"
             id="path4326" />
          <path
             inkscape:connector-curvature="0"
             id="path4328"
             d="m -261.95375,2268.9563 c -16.55356,0 -27.17235,8.7081 -29.54202,24.7015 l 58.13757,0 c -2.36963,-15.9935 -12.04195,-24.7015 -28.59555,-24.7015 z"
             style="opacity:1;color:#000000;fill:#e3ffff;fill-opacity:1;fill-rule:nonzero;stroke:none;stroke-width:2;marker:none;visibility:visible;display:inline;overflow:visible;enable-background:accumulate"
             sodipodi:nodetypes="sccs" />
        </g>
        <path
           sodipodi:nodetypes="cccccccccccccccccccccccccccccccc"
           inkscape:connector-curvature="0"
           id="path4330"
           transform="matrix(0.26458334,0,0,0.26458334,-114.69596,19.08016)"
           d="m -435.625,11541.082 -19.15625,55.387 44.84375,4.469 z m -80.51449,89.336 -4.14176,17.176 13.46875,-40.375 z m -0.20426,-96.23 30.15625,61.374 17.9375,-3.593 -47.53125,-57.407 z m 162.59375,2 -33.75,53.093 2.6875,4.5 9.875,11.657 21.5,-68.188 z m 38.52567,34.66 -57.93192,30.09 17.9375,17.062 c 24.85427,-25.131 14.59368,-22.577 39.99442,-47.152 z m -32.80692,58.808 0.88778,27.808 81.62371,-16.162 z m -182.09375,1.804 c 0,0 -48.4404,5.363 -50.23443,16.127 l 41.26568,13.475 -4.5,-2.687 z"
           style="color:#000000;fill:#e3ffff;fill-opacity:1;fill-rule:nonzero;stroke:none;stroke-width:10;marker:none;visibility:visible;display:inline;overflow:visible;enable-background:accumulate;opacity:1" />
      </g>
      <g
         transform="translate(281.29613,-119.09907)"
         id="g4892">
        <rect
           style="opacity:0;color:#000000;fill:#333333;fill-opacity:1;fill-rule:nonzero;stroke:none;stroke-width:10;marker:none;visibility:visible;display:inline;overflow:visible;enable-background:accumulate"
           id="rect4882"
           width="248.00548"
           height="211.85123"
           x="-837.25635"
           y="11885.144"
           transform="matrix(0.26458334,0,0,0.26458334,-113.74661,-236.29243)" />
      </g>
    </g>
    <g
       id="g4948"
       transform="translate(219.12173,-1914.8732)"
       inkscape:export-filename="C:\Users\rober\Desktop\assets\ASSETS_2019\electrical_effects\big_bolt\strike_animation\bolt_strike_animation_04.png"
       inkscape:export-xdpi="90"
       inkscape:export-ydpi="90">
      <path
         style="opacity:0;color:#000000;fill:#313131;fill-opacity:1;fill-rule:nonzero;stroke:none;stroke-width:10;marker:none;visibility:visible;display:inline;overflow:visible;enable-background:accumulate"
         d="m 60.660778,2771.5691 133.856992,0 0,92.086 -133.856992,0 z"
         id="rect4332"
         inkscape:connector-curvature="0"
         sodipodi:nodetypes="ccccc" />
      <path
         inkscape:connector-curvature="0"
         id="path4496"
         d="m 156.44563,2838.1694 c 2.01385,-1.6782 12.08315,-8.3912 12.08315,-8.3912 l -5.70592,7.7197 -5.03465,3.3565 z"
         style="color:#000000;fill:#00ffff;fill-opacity:1;fill-rule:nonzero;stroke:none;stroke-width:10;marker:none;visibility:visible;display:inline;overflow:visible;enable-background:accumulate" />
      <g
         transform="translate(-230.82928,-177.41691)"
         id="g4778">
        <rect
           transform="matrix(0.26458334,0,0,0.26458334,-113.74661,-236.29243)"
           y="12102.703"
           x="1533.7014"
           height="202.33694"
           width="288.59973"
           id="rect4756"
           style="opacity:0;color:#000000;fill:#333333;fill-opacity:1;fill-rule:nonzero;stroke:none;stroke-width:10;marker:none;visibility:visible;display:inline;overflow:visible;enable-background:accumulate" />
        <path
           inkscape:connector-curvature="0"
           style="color:#000000;fill:#00ffff;fill-opacity:1;fill-rule:nonzero;stroke:none;stroke-width:10;marker:none;visibility:visible;display:inline;overflow:visible;enable-background:accumulate"
           d="m 352.47265,2972.5568 c -0.98689,-0.086 -11.01417,6.0804 -12.12123,6.7633 l -3.67936,-3.4147 -2.52181,0.1654 -11.07116,4.3656 0.83509,3.8611 4.02663,3.0181 -3.01791,-0.1654 -3.69589,-3.0178 -5.70508,-4.3657 c 0,0 -3.68763,3.3526 -3.68763,4.1918 0,0.839 -3.53054,9.5666 -3.53054,9.5666 l 5.53972,6.5484 -2.51354,-6.0441 c 0,0 3.0197,-10.7437 4.02662,-11.0795 1.00693,-0.3354 7.72253,6.7138 7.72253,6.7138 0,0 11.4086,0.3358 12.07988,0 0.67129,-0.3354 -0.33899,-4.0266 -0.33899,-4.0266 0,0 -4.19625,1.3417 -5.03536,1.1739 -0.8391,-0.1677 -4.69881,-3.5205 -4.53099,-4.1918 0.16782,-0.6715 9.40523,-4.6963 10.24434,-4.6963 0.21235,0 0.60318,0.2595 1.07487,0.6448 l -0.64492,-0.19 4.50619,4.2661 8.78086,-6.6392 c 0,0 0.47222,6.6458 -0.23978,8.0698 -0.71201,1.424 2.61276,5.9283 2.61276,5.9283 0,0 8.31107,2.1381 9.26041,2.6127 0.60788,0.304 0.24212,4.6776 -0.0992,7.797 1.98967,-0.3201 3.48991,-0.3227 4.51445,-0.2315 l -0.62012,-10.1782 -8.78086,-1.6619 -3.80338,-3.5554 c 0,0 0.005,-10.9181 0.47955,-12.1047 0.0297,-0.074 0.003,-0.118 -0.0661,-0.1239 z"
           id="path4504" />
      </g>
      <g
         id="g4334"
         transform="translate(356.68077,-255.37259)">
        <g
           id="g4336"
           transform="translate(32.833692,812.55401)">
          <path
             style="color:#000000;fill:#00ffff;fill-opacity:1;fill-rule:nonzero;stroke:none;stroke-width:2;marker:none;visibility:visible;display:inline;overflow:visible;filter:url(#filter4420);enable-background:accumulate"
             d="m -262.32094,2263.1941 c -18.4156,0 -33.66127,13.2241 -36.2975,30.4637 l 72.59819,0 c -2.63618,-17.2397 -17.88504,-30.4637 -36.30069,-30.4637 z"
             id="path4414"
             inkscape:connector-curvature="0" />
          <path
             inkscape:connector-curvature="0"
             id="path4338"
             d="m -262.32094,2263.1941 c -18.4156,0 -33.66127,13.2241 -36.2975,30.4637 l 72.59819,0 c -2.63618,-17.2397 -17.88504,-30.4637 -36.30069,-30.4637 z"
             style="color:#000000;fill:#00ffff;fill-opacity:1;fill-rule:nonzero;stroke:none;stroke-width:2;marker:none;visibility:visible;display:inline;overflow:visible;enable-background:accumulate" />
          <path
             style="opacity:1;color:#000000;fill:#e3ffff;fill-opacity:1;fill-rule:nonzero;stroke:none;stroke-width:2;marker:none;visibility:visible;display:inline;overflow:visible;enable-background:accumulate"
             d="m 1046.6875,11454.719 c -30.4865,46.922 -65.3245,80.731 -99.125,124.031 -5.42289,-1.407 -11.12463,-2.455 -17.125,-3.156 -6.35854,-41.597 -6.97214,-57.579 -17.96875,-81.156 -3.7293,8.701 -13.12224,53.888 -18.59375,81.093 -9.27841,1.049 -17.95156,2.94 -26,5.625 -12.70962,-16.097 -26.2043,-31.531 -39.71875,-46.968 l 25.875,52.687 c -11.8384,5.942 -21.9724,13.977 -30.1875,24.031 l -72.625,-57.625 60.0625,77.594 c -1.55117,3.247 -2.97323,6.612 -4.25,10.125 -26.31391,-0.684 -94.1057,-2.295 -143.8125,-1.938 33.50101,12.257 121.94317,24.04 137.59375,26.063 -0.15329,0.921 -0.29908,1.847 -0.4375,2.781 l 219.7188,0 c -0.6232,-4.205 -1.3915,-8.281 -2.2813,-12.218 16.3483,-6.085 35.8894,-13.702 54.625,-22.313 l -63.0313,-3.094 c -1.0595,-2.312 -2.1857,-4.544 -3.375,-6.719 l 139.3126,-125.781 c -55.4672,30.892 -109.6131,63.986 -163.8438,96.969 -1.54979,-1.172 -3.14443,-2.271 -4.78125,-3.344 l 69.96875,-136.687 z"
             transform="matrix(0.26458334,0,0,0.26458334,-503.26107,-793.47385)"
             id="path4340"
             inkscape:connector-curvature="0" />
        </g>
      </g>
    </g>
    <g
       id="g4939"
       transform="translate(206.2378,-1914.8732)"
       inkscape:export-filename="C:\Users\rober\Desktop\assets\ASSETS_2019\electrical_effects\big_bolt\strike_animation\bolt_strike_animation_05.png"
       inkscape:export-xdpi="90"
       inkscape:export-ydpi="90">
      <path
         style="opacity:0;color:#000000;fill:#313131;fill-opacity:1;fill-rule:nonzero;stroke:none;stroke-width:10;marker:none;visibility:visible;display:inline;overflow:visible;enable-background:accumulate"
         d="m 207.4017,2771.5691 133.857,0 0,92.086 -133.857,0 z"
         id="rect4426"
         inkscape:connector-curvature="0"
         sodipodi:nodetypes="ccccc" />
      <g
         transform="translate(-84.088347,-177.41691)"
         id="g4774">
        <rect
           style="opacity:0;color:#000000;fill:#333333;fill-opacity:1;fill-rule:nonzero;stroke:none;stroke-width:10;marker:none;visibility:visible;display:inline;overflow:visible;enable-background:accumulate"
           id="rect4754"
           width="288.59973"
           height="202.33694"
           x="1533.7014"
           y="12102.703"
           transform="matrix(0.26458334,0,0,0.26458334,-113.74661,-236.29243)" />
        <path
           inkscape:connector-curvature="0"
           style="color:#000000;fill:#00ffff;fill-opacity:1;fill-rule:nonzero;stroke:none;stroke-width:10;marker:none;visibility:visible;display:inline;overflow:visible;enable-background:accumulate"
           d="m 300.83297,2969.7336 c -0.72109,0.033 -1.24849,0.2976 -1.24849,0.2976 0,0 5.70688,5.0356 6.71381,6.7138 1.00689,1.678 -6.03584,15.7676 -6.03584,15.7676 l -0.67797,5.3745 7.38352,4.6964 -3.68763,8.392 7.38354,5.7052 9.06198,-2.3482 -3.68766,-9.4011 -4.02661,-7.0361 5.36609,14.4198 -5.03536,1.3475 -5.03537,-4.0264 3.69592,-6.3831 -4.0349,-4.6963 -5.36607,-0.6697 0.0331,-4.804 6.68073,-15.3377 c 0,0 -4.70151,-7.0429 -6.04409,-7.7142 -0.50347,-0.2516 -1.00599,-0.3172 -1.43867,-0.2976 z m 11.17865,28.1617 1.83555,2.1746 -2.51355,-6.0441 c 0,0 3.01969,-10.7437 4.02665,-11.0795 1.00692,-0.3354 7.7225,6.7138 7.7225,6.7138 0,0 11.40859,0.3358 12.07989,0 0.67128,-0.3354 -0.33901,-4.0266 -0.33901,-4.0266 0,0 -4.19624,1.3419 -5.03534,1.1739 -0.8391,-0.1675 -4.69881,-3.5205 -4.53099,-4.1918 0.16783,-0.6715 9.40523,-4.6963 10.24435,-4.6963 0.21233,0 0.60317,0.2595 1.07485,0.6448 l -0.6449,-0.19 4.50617,4.2661 8.78086,-6.6392 c 0,0 0.47223,6.6458 -0.23979,8.0698 -0.71199,1.424 2.61276,5.9283 2.61276,5.9283 0,0 8.31109,2.1381 9.26042,2.6127 0.60788,0.304 0.24212,4.6776 -0.0992,7.797 1.98969,-0.3201 3.48993,-0.3227 4.51448,-0.2315 l -0.62013,-10.1782 -8.78086,-1.6619 -3.80339,-3.5554 c 0,0 0.005,-10.9181 0.47956,-12.1047 0.0297,-0.074 0.003,-0.118 -0.0661,-0.1239 -0.98689,-0.086 -11.01415,6.0804 -12.12122,6.7633 l -3.67938,-3.4147 -2.52179,0.1654 -11.07117,4.3656 0.8351,3.8611 4.02661,3.0181 -3.01789,-0.1654 -3.69591,-3.0178 -5.70505,-4.3657 c 0,0 -3.68766,3.3526 -3.68766,4.1918 0,0.839 -3.53052,9.5666 -3.53052,9.5666 l 3.70417,4.3738 z"
           id="path4509" />
      </g>
      <path
         style="color:#000000;fill:#00ffff;fill-opacity:1;fill-rule:nonzero;stroke:none;stroke-width:2;marker:none;visibility:visible;display:inline;overflow:visible;filter:url(#filter4386);enable-background:accumulate"
         d="m 273.93444,2820.3755 c -18.4156,0 -33.66127,13.2241 -36.2975,30.4637 l 72.59819,0 c -2.63618,-17.2397 -17.88504,-30.4637 -36.30069,-30.4637 z"
         id="path4432"
         inkscape:connector-curvature="0" />
      <path
         inkscape:connector-curvature="0"
         id="path4434"
         d="m 273.93444,2820.3755 c -18.4156,0 -33.66127,13.2241 -36.2975,30.4637 l 72.59819,0 c -2.63618,-17.2397 -17.88504,-30.4637 -36.30069,-30.4637 z"
         style="color:#000000;fill:#00ffff;fill-opacity:1;fill-rule:nonzero;stroke:none;stroke-width:2;marker:none;visibility:visible;display:inline;overflow:visible;enable-background:accumulate" />
      <path
         id="path4436"
         d="m 274.89324,2776.4601 -9.39271,50.6183 c -1.03642,0.2383 -2.04197,0.5238 -3.00963,0.8514 l -10.23607,-12.3693 -0.14883,-0.099 6.8461,13.9401 c -2.16826,1.0885 -4.11425,2.4463 -5.82909,4.0597 l -34.18914,-30.0384 28.72383,37.5873 c -0.63572,1.3266 -1.18407,2.7389 -1.64537,4.2333 l -16.06518,1.6454 15.14739,2.009 c -0.12588,0.6358 -0.24111,1.2824 -0.33898,1.9431 l 58.14219,0 c -0.21156,-1.4277 -0.48265,-2.7985 -0.81031,-4.1092 l 35.37151,-8.1526 c -12.55885,-0.5694 -25.08367,0.8427 -37.59565,1.8769 -0.85545,-1.7886 -1.86185,-3.4139 -3.01789,-4.8781 l 17.8263,-17.4046 0.14054,-0.1323 -22.13403,13.4441 c -0.59809,-0.452 -1.22161,-0.8774 -1.86865,-1.2732 l 4.3987,-13.9404 -0.0827,-0.281 -7.89617,12.4188 c -1.17282,-0.4771 -2.40683,-0.879 -3.70416,-1.2073 L 274.8932,2776.46 z m -29.60026,71.4873 c -0.0395,0.1759 -0.0785,0.3593 -0.11575,0.5373 l -0.28112,-0.1653 0.39687,-0.372 z"
         style="color:#000000;fill:#e3ffff;fill-opacity:1;fill-rule:nonzero;stroke:none;stroke-width:2;marker:none;visibility:visible;display:inline;overflow:visible;enable-background:accumulate;opacity:1"
         inkscape:connector-curvature="0" />
    </g>
    <g
       id="g4900"
       transform="translate(180.46996,-1914.8732)"
       inkscape:export-filename="C:\Users\rober\Desktop\assets\ASSETS_2019\electrical_effects\big_bolt\strike_animation\bolt_strike_animation_07.png"
       inkscape:export-xdpi="90"
       inkscape:export-ydpi="90">
      <g
         transform="translate(580.92856,0)"
         id="g4456"
         inkscape:export-filename="C:\Users\rober\Desktop\assets\ASSETS_2019\electrical_effects\3.png"
         inkscape:export-xdpi="90"
         inkscape:export-ydpi="90">
        <path
           style="opacity:0;color:#000000;fill:#313131;fill-opacity:1;fill-rule:nonzero;stroke:none;stroke-width:10;marker:none;visibility:visible;display:inline;overflow:visible;enable-background:accumulate"
           d="m -80.045029,2771.5691 133.856995,0 0,92.086 -133.856995,0 z"
           id="rect4458"
           inkscape:connector-curvature="0"
           sodipodi:nodetypes="ccccc" />
        <g
           transform="translate(215.97496,-255.37259)"
           id="g4460">
          <g
             transform="translate(32.833692,812.55401)"
             id="g4462">
            <path
               inkscape:connector-curvature="0"
               id="path4464"
               d="m -262.32094,2263.1941 c -18.4156,0 -33.66127,13.2241 -36.2975,30.4637 l 72.59819,0 c -2.63618,-17.2397 -17.88504,-30.4637 -36.30069,-30.4637 z"
               style="color:#000000;fill:#00ffff;fill-opacity:1;fill-rule:nonzero;stroke:none;stroke-width:2;marker:none;visibility:visible;display:inline;overflow:visible;filter:url(#filter4410);enable-background:accumulate" />
            <path
               style="color:#000000;fill:#00ffff;fill-opacity:1;fill-rule:nonzero;stroke:none;stroke-width:2;marker:none;visibility:visible;display:inline;overflow:visible;enable-background:accumulate"
               d="m -262.32094,2263.1941 c -18.4156,0 -33.66127,13.2241 -36.2975,30.4637 l 72.59819,0 c -2.63618,-17.2397 -17.88504,-30.4637 -36.30069,-30.4637 z"
               id="path4466"
               inkscape:connector-curvature="0" />
            <path
               inkscape:connector-curvature="0"
               id="path4468"
               d="m -261.95375,2268.9563 c -16.55356,0 -27.17235,8.7081 -29.54202,24.7015 l 58.13757,0 c -2.36963,-15.9935 -12.04195,-24.7015 -28.59555,-24.7015 z"
               style="opacity:1;color:#000000;fill:#e3ffff;fill-opacity:1;fill-rule:nonzero;stroke:none;stroke-width:2;marker:none;visibility:visible;display:inline;overflow:visible;enable-background:accumulate"
               sodipodi:nodetypes="sccs" />
          </g>
          <path
             sodipodi:nodetypes="cccccccccccccccccccccccccccccccc"
             inkscape:connector-curvature="0"
             id="path4470"
             transform="matrix(0.26458334,0,0,0.26458334,-114.69596,19.08016)"
             d="m -435.625,11541.082 -19.15625,55.387 44.84375,4.469 z m -80.51449,89.336 -4.14176,17.176 13.46875,-40.375 z m -0.20426,-96.23 30.15625,61.374 17.9375,-3.593 -47.53125,-57.407 z m 162.59375,2 -33.75,53.093 2.6875,4.5 9.875,11.657 21.5,-68.188 z m 38.52567,34.66 -57.93192,30.09 17.9375,17.062 c 24.85427,-25.131 14.59368,-22.577 39.99442,-47.152 z m -32.80692,58.808 0.88778,27.808 81.62371,-16.162 z m -182.09375,1.804 c 0,0 -48.4404,5.363 -50.23443,16.127 l 41.26568,13.475 -4.5,-2.687 z"
             style="color:#000000;fill:#e3ffff;fill-opacity:1;fill-rule:nonzero;stroke:none;stroke-width:10;marker:none;visibility:visible;display:inline;overflow:visible;enable-background:accumulate" />
        </g>
      </g>
      <g
         transform="translate(154.43733,-221.51434)"
         id="g4848">
        <rect
           y="3008.7542"
           x="421.44409"
           height="61.70713"
           width="57.909771"
           id="rect4830"
           style="opacity:0;color:#000000;fill:#333333;fill-opacity:1;fill-rule:nonzero;stroke:none;stroke-width:10;marker:none;visibility:visible;display:inline;overflow:visible;enable-background:accumulate" />
        <path
           inkscape:connector-curvature="0"
           id="path4558"
           d="m 428.31609,3048.9528 c -0.67128,-2.0137 2.01384,-15.104 2.01384,-15.104 l 5.03466,-2.685 1.67822,-7.3842 8.7267,3.021 9.39797,5.0345 c 0,0 3.35643,-7.7198 2.68515,-9.7335 -0.67127,-2.014 1.34258,-7.0485 3.02078,-7.72 1.67822,-0.6713 9.06235,6.0417 9.06235,6.0417 l 2.01388,6.3773 -6.04158,2.685 2.68515,6.7127 0.67127,-5.0345 6.04158,-4.3632 -3.35642,-10.405 c 0,0 -10.74058,-5.706 -12.41878,-5.706 -1.67823,0 -5.3703,4.699 -5.3703,4.699 l 0,11.7475 -19.46725,-7.384 -2.68515,9.7335 -6.71285,3.692 -2.01385,14.097 z"
           style="color:#000000;fill:#00ffff;fill-opacity:1;fill-rule:nonzero;stroke:none;stroke-width:10;marker:none;visibility:visible;display:inline;overflow:visible;enable-background:accumulate" />
      </g>
      <g
         transform="translate(209.39347,-174.32496)"
         id="g4766">
        <rect
           style="opacity:0;color:#000000;fill:#333333;fill-opacity:1;fill-rule:nonzero;stroke:none;stroke-width:10;marker:none;visibility:visible;display:inline;overflow:visible;enable-background:accumulate"
           id="rect4750"
           width="288.59973"
           height="202.33694"
           x="1533.7014"
           y="12102.703"
           transform="matrix(0.26458334,0,0,0.26458334,-113.74661,-236.29243)" />
        <path
           inkscape:connector-curvature="0"
           style="opacity:0.07079647;color:#000000;fill:#00ffff;fill-opacity:1;fill-rule:nonzero;stroke:none;stroke-width:10;marker:none;visibility:visible;display:inline;overflow:visible;enable-background:accumulate"
           d="m 300.82817,2969.7379 c -0.72109,0.033 -1.24849,0.2976 -1.24849,0.2976 0,0 5.70688,5.0356 6.7138,6.7138 1.0069,1.678 -6.03583,15.7676 -6.03583,15.7676 l -0.67797,5.3745 7.38352,4.6964 -3.68763,8.392 7.38354,5.7052 9.06198,-2.3482 -3.68766,-9.4011 -4.02661,-7.0361 5.36609,14.4198 -5.03536,1.3475 -5.03537,-4.0264 3.69591,-6.3831 -4.03489,-4.6963 -5.36607,-0.6697 0.0331,-4.804 6.68073,-15.3377 c 0,0 -4.70151,-7.0429 -6.04409,-7.7142 -0.50347,-0.2516 -1.006,-0.3172 -1.43867,-0.2976 z m 11.17865,28.1617 1.83554,2.1746 -2.51354,-6.0441 c 0,0 3.01969,-10.7437 4.02664,-11.0795 1.00693,-0.3354 7.7225,6.7138 7.7225,6.7138 0,0 11.4086,0.3358 12.0799,0 0.67127,-0.3354 -0.33901,-4.0266 -0.33901,-4.0266 0,0 -4.19624,1.3419 -5.03534,1.1739 -0.8391,-0.1675 -4.69881,-3.5205 -4.53099,-4.1918 0.16783,-0.6715 9.40522,-4.6963 10.24435,-4.6963 0.21233,0 0.60317,0.2595 1.07484,0.6448 l -0.64489,-0.19 4.50617,4.2661 8.78086,-6.6392 c 0,0 0.47223,6.6458 -0.23979,8.0698 -0.712,1.424 2.61276,5.9283 2.61276,5.9283 0,0 8.31109,2.1381 9.26041,2.6127 0.60788,0.304 0.24212,4.6776 -0.0992,7.797 1.98969,-0.3201 3.48993,-0.3227 4.51448,-0.2315 l -0.62014,-10.1782 -8.78085,-1.6619 -3.80339,-3.5554 c 0,0 0.005,-10.9181 0.47956,-12.1047 0.0297,-0.074 0.003,-0.118 -0.0661,-0.1239 -0.98689,-0.086 -11.01415,6.0804 -12.12122,6.7633 l -3.67938,-3.4147 -2.52179,0.1654 -11.07118,4.3656 0.83511,3.8611 4.02661,3.0181 -3.01789,-0.1654 -3.69591,-3.0178 -5.70505,-4.3657 c 0,0 -3.68766,3.3526 -3.68766,4.1918 0,0.839 -3.53052,9.5666 -3.53052,9.5666 l 3.70417,4.3738 z"
           id="path4516" />
      </g>
    </g>
    <g
       id="g4926"
       transform="translate(193.35389,-1914.8732)"
       inkscape:export-filename="C:\Users\rober\Desktop\assets\ASSETS_2019\electrical_effects\big_bolt\strike_animation\bolt_strike_animation_06.png"
       inkscape:export-xdpi="90"
       inkscape:export-ydpi="90">
      <path
         style="opacity:0;color:#000000;fill:#313131;fill-opacity:1;fill-rule:nonzero;stroke:none;stroke-width:10;marker:none;visibility:visible;display:inline;overflow:visible;enable-background:accumulate"
         d="m 354.14261,2771.5691 133.85699,0 0,92.086 -133.85699,0 z"
         id="rect4442"
         inkscape:connector-curvature="0"
         sodipodi:nodetypes="ccccc" />
      <g
         transform="translate(62.652558,-177.41691)"
         id="g4762">
        <rect
           transform="matrix(0.26458334,0,0,0.26458334,-113.74661,-236.29243)"
           y="12102.703"
           x="1533.7014"
           height="202.33694"
           width="288.59973"
           id="rect4760"
           style="opacity:0;color:#000000;fill:#333333;fill-opacity:1;fill-rule:nonzero;stroke:none;stroke-width:10;marker:none;visibility:visible;display:inline;overflow:visible;enable-background:accumulate" />
        <path
           id="path4514"
           d="m 300.83095,2969.7373 c -0.72109,0.033 -1.24849,0.2976 -1.24849,0.2976 0,0 5.70688,5.0356 6.7138,6.7138 1.0069,1.678 -6.03583,15.7676 -6.03583,15.7676 l -0.67797,5.3745 7.38352,4.6964 -3.68763,8.392 7.38354,5.7052 9.06198,-2.3482 -3.68766,-9.4011 -4.02661,-7.0361 5.36609,14.4198 -5.03536,1.3475 -5.03537,-4.0264 3.69591,-6.3831 -4.03489,-4.6963 -5.36607,-0.6697 0.0331,-4.804 6.68073,-15.3377 c 0,0 -4.70151,-7.0429 -6.04409,-7.7142 -0.50347,-0.2516 -1.006,-0.3172 -1.43867,-0.2976 z m 11.17865,28.1617 1.83554,2.1746 -2.51354,-6.0441 c 0,0 3.01969,-10.7437 4.02664,-11.0795 1.00693,-0.3354 7.7225,6.7138 7.7225,6.7138 0,0 11.4086,0.3358 12.0799,0 0.67127,-0.3354 -0.33901,-4.0266 -0.33901,-4.0266 0,0 -4.19624,1.3419 -5.03534,1.1739 -0.8391,-0.1675 -4.69881,-3.5205 -4.53099,-4.1918 0.16783,-0.6715 9.40522,-4.6963 10.24435,-4.6963 0.21233,0 0.60317,0.2595 1.07484,0.6448 l -0.64489,-0.19 4.50617,4.2661 8.78086,-6.6392 c 0,0 0.47223,6.6458 -0.23979,8.0698 -0.712,1.424 2.61276,5.9283 2.61276,5.9283 0,0 8.31109,2.1381 9.26041,2.6127 0.60788,0.304 0.24212,4.6776 -0.0992,7.797 1.98969,-0.3201 3.48993,-0.3227 4.51448,-0.2315 l -0.62014,-10.1782 -8.78085,-1.6619 -3.80339,-3.5554 c 0,0 0.005,-10.9181 0.47956,-12.1047 0.0297,-0.074 0.003,-0.118 -0.0661,-0.1239 -0.98689,-0.086 -11.01415,6.0804 -12.12122,6.7633 l -3.67938,-3.4147 -2.52179,0.1654 -11.07118,4.3656 0.83511,3.8611 4.02661,3.0181 -3.01789,-0.1654 -3.69591,-3.0178 -5.70505,-4.3657 c 0,0 -3.68766,3.3526 -3.68766,4.1918 0,0.839 -3.53052,9.5666 -3.53052,9.5666 l 3.70417,4.3738 z"
           style="opacity:0.44690265;color:#000000;fill:#00ffff;fill-opacity:1;fill-rule:nonzero;stroke:none;stroke-width:10;marker:none;visibility:visible;display:inline;overflow:visible;enable-background:accumulate"
           inkscape:connector-curvature="0" />
      </g>
      <g
         id="g4446"
         transform="translate(682.99629,557.18142)">
        <path
           style="color:#000000;fill:#00ffff;fill-opacity:1;fill-rule:nonzero;stroke:none;stroke-width:2;marker:none;visibility:visible;display:inline;overflow:visible;filter:url(#filter4396);enable-background:accumulate"
           d="m -262.32094,2263.1941 c -18.4156,0 -33.66127,13.2241 -36.2975,30.4637 l 72.59819,0 c -2.63618,-17.2397 -17.88504,-30.4637 -36.30069,-30.4637 z"
           id="path4448"
           inkscape:connector-curvature="0" />
        <path
           inkscape:connector-curvature="0"
           id="path4450"
           d="m -262.32094,2263.1941 c -18.4156,0 -33.66127,13.2241 -36.2975,30.4637 l 72.59819,0 c -2.63618,-17.2397 -17.88504,-30.4637 -36.30069,-30.4637 z"
           style="color:#000000;fill:#00ffff;fill-opacity:1;fill-rule:nonzero;stroke:none;stroke-width:2;marker:none;visibility:visible;display:inline;overflow:visible;enable-background:accumulate" />
        <path
           inkscape:connector-curvature="0"
           id="path4452"
           transform="matrix(0.26458334,0,0,0.26458334,-796.74291,-793.47385)"
           d="m 1888.9375,11469.594 73.4375,117.718 c -8.1938,4.215 -15.5483,9.463 -22,15.688 l -54.8125,-35.375 36.2813,60.594 c -2.0651,4.029 -3.9389,8.259 -5.5626,12.719 l -6.1562,-4.094 1.7812,9.594 2.5626,-0.126 c -0.5597,1.791 -1.0708,3.616 -1.5626,5.469 l -1,-5.343 -122.875,6.531 121.7813,7.843 c -0.4555,2.322 -0.8618,4.685 -1.2187,7.094 l 219.7187,0 c -1.4124,-9.533 -3.5022,-18.389 -6.2813,-26.531 l 65.1563,-12.625 c -45.7898,-2.077 -37.3267,-2.627 -70.3125,-0.03 -3.0613,-6.411 -6.6367,-12.284 -10.7188,-17.594 l 147.4063,-116.906 c -59.1114,34.652 -106.569,65.484 -163.875,100.531 -1.9883,-1.502 -4.0249,-2.943 -6.1563,-4.281 l 39.0626,-101.657 -23.625,47.376 -29.8438,46.937 c -9.3034,-3.783 -19.6613,-6.31 -31.0312,-7.594 -5.3005,-34.277 -10.2865,-79.684 -19.2188,-90.062 -7.7573,2.585 -15.1892,58.944 -18.75,90.312 -8.4084,1.067 -16.3096,2.816 -23.6875,5.25 l -14.375,-19.562 -74.125,-91.875 z"
           style="opacity:1;color:#000000;fill:#e3ffff;fill-opacity:1;fill-rule:nonzero;stroke:none;stroke-width:2;marker:none;visibility:visible;display:inline;overflow:visible;enable-background:accumulate" />
      </g>
      <g
         transform="translate(7.6964079,-224.6063)"
         id="g4852">
        <rect
           style="opacity:0;color:#000000;fill:#333333;fill-opacity:1;fill-rule:nonzero;stroke:none;stroke-width:10;marker:none;visibility:visible;display:inline;overflow:visible;enable-background:accumulate"
           id="rect4832"
           width="57.909771"
           height="61.70713"
           x="421.44409"
           y="3008.7542" />
        <path
           style="color:#000000;fill:#00ffff;fill-opacity:1;fill-rule:nonzero;stroke:none;stroke-width:10;marker:none;visibility:visible;display:inline;overflow:visible;enable-background:accumulate"
           d="m 422.93485,3047.185 2.34948,-14.0967 6.37722,1.3422 c 1.34258,0.6715 10.40493,-4.699 10.40493,-4.699 0,0 3.02077,-13.09 4.36335,-12.083 1.34257,1.007 12.41877,4.3633 12.41877,6.3773 0,2.0137 -11.0762,-2.3495 -11.0762,-2.3495 0,0 -2.3495,11.4117 -3.69207,11.7475 -1.34258,0.3355 -12.41878,6.0415 -12.41878,6.0415 l -3.35642,-3.3565 -0.67128,9.0625 3.02078,6.0415 z"
           id="path4552"
           inkscape:connector-curvature="0"
           sodipodi:nodetypes="ccccssccccccc" />
      </g>
    </g>
    <g
       id="g4916"
       transform="translate(167.58604,-1914.8732)"
       inkscape:export-filename="C:\Users\rober\Desktop\assets\ASSETS_2019\electrical_effects\big_bolt\strike_animation\bolt_strike_animation_08.png"
       inkscape:export-xdpi="90"
       inkscape:export-ydpi="90">
      <path
         style="opacity:0;color:#000000;fill:#313131;fill-opacity:1;fill-rule:nonzero;stroke:none;stroke-width:10;marker:none;visibility:visible;display:inline;overflow:visible;enable-background:accumulate"
         d="m 647.62445,2771.5691 133.857,0 0,92.086 -133.857,0 z"
         id="rect4474"
         inkscape:connector-curvature="0"
         sodipodi:nodetypes="ccccc" />
      <path
         inkscape:connector-curvature="0"
         id="path4480"
         d="m 714.15719,2820.3755 c -18.4156,0 -33.66127,13.2241 -36.2975,30.4637 l 72.59819,0 c -2.63618,-17.2397 -17.88504,-30.4637 -36.30069,-30.4637 z"
         style="color:#000000;fill:#00ffff;fill-opacity:1;fill-rule:nonzero;stroke:none;stroke-width:2;marker:none;visibility:visible;display:inline;overflow:visible;filter:url(#filter4420);enable-background:accumulate" />
      <path
         style="color:#000000;fill:#00ffff;fill-opacity:1;fill-rule:nonzero;stroke:none;stroke-width:2;marker:none;visibility:visible;display:inline;overflow:visible;enable-background:accumulate"
         d="m 714.15719,2820.3755 c -18.4156,0 -33.66127,13.2241 -36.2975,30.4637 l 72.59819,0 c -2.63618,-17.2397 -17.88504,-30.4637 -36.30069,-30.4637 z"
         id="path4482"
         inkscape:connector-curvature="0" />
      <path
         inkscape:connector-curvature="0"
         id="path4484"
         d="m 714.52438,2826.1377 c -16.55356,0 -27.17235,8.7081 -29.54202,24.7015 l 58.13757,0 c -2.36963,-15.9935 -12.04195,-24.7015 -28.59555,-24.7015 z"
         style="opacity:1;color:#000000;fill:#e3ffff;fill-opacity:1;fill-rule:nonzero;stroke:none;stroke-width:2;marker:none;visibility:visible;display:inline;overflow:visible;enable-background:accumulate"
         sodipodi:nodetypes="sccs" />
      <path
         style="color:#000000;fill:#e3ffff;fill-opacity:1;fill-rule:nonzero;stroke:none;stroke-width:10;marker:none;visibility:visible;display:inline;overflow:visible;enable-background:accumulate;opacity:1"
         d="m 714.6387,2804.9441 c -1.42401,3.3226 -6.01776,26.996 -6.01776,26.996 l 11.86491,1.1824 c -2.81003,-16.2814 -2.40833,-20.8053 -5.84715,-28.1784 z m -42.66295,15.5676 19.31498,24.9552 1.66492,-8.3092 z m 20.35678,-5.0501 7.97884,16.2385 4.74596,-0.9507 c -3.97978,-5.3176 -8.35436,-10.2954 -12.7248,-15.2878 z m 29.81787,14.102 1.66041,7.3612 5.93545,-2.6117 20.40332,-39.8761 c -8.60041,13.2371 -18.50922,22.5284 -27.99918,35.1266 z m 8.06715,3.5589 7.11932,7.837 38.92151,-35.1275 c -15.59217,8.6839 -30.79201,18.0253 -46.04083,27.2905 z m 26.7502,8.581 -20.10254,-0.9827 1.77757,8.3069 c 4.84021,-1.7601 11.77865,-4.3154 18.32497,-7.3242 z m -66.8575,2.1052 c 0,0 -24.92062,-0.717 -41.41541,-0.5984 9.73074,3.5599 37.26241,7.0067 37.26241,7.0067 l 5.6921,-4.0336 z"
         id="path4486"
         inkscape:connector-curvature="0"
         sodipodi:nodetypes="cccccccccccccccccccccccccccccc" />
      <g
         transform="translate(301.17825,-224.6063)"
         id="g4844">
        <rect
           style="opacity:0;color:#000000;fill:#333333;fill-opacity:1;fill-rule:nonzero;stroke:none;stroke-width:10;marker:none;visibility:visible;display:inline;overflow:visible;enable-background:accumulate"
           id="rect4828"
           width="57.909771"
           height="61.70713"
           x="421.44409"
           y="3008.7542" />
        <path
           inkscape:connector-curvature="0"
           style="color:#000000;fill:#00ffff;fill-opacity:1;fill-rule:nonzero;stroke:none;stroke-width:10;marker:none;visibility:visible;display:inline;overflow:visible;enable-background:accumulate"
           d="m 459.49803,3010.5954 c -1.67826,0 -5.37438,4.7045 -5.37438,4.7045 l 0,11.7494 -19.46338,-7.3838 -2.68719,9.7317 -6.7138,3.6877 -2.00917,14.0973 5.03534,1.6785 c -0.67128,-2.0137 2.00919,-15.1061 2.00919,-15.1061 l 5.03534,-2.6789 1.67846,-7.3835 8.72297,3.0179 9.40099,5.0355 c 0,0 3.35844,-7.7181 2.68716,-9.7319 -0.67127,-2.014 1.33969,-7.0509 3.01789,-7.7224 1.67823,-0.6712 9.06198,6.0439 9.06198,6.0439 l 2.01745,6.3749 -6.04406,2.6871 2.68719,6.714 0.66971,-5.0355 6.04409,-4.3656 -3.35693,-10.4013 c 0,0 -10.74065,-5.7134 -12.41885,-5.7134 z m 7.71424,29.873 c -0.33565,1.6783 3.69591,9.7401 3.69591,9.7401 0,0 -2.68253,2.6839 -4.69635,2.3482 -2.01385,-0.3355 -8.06154,-8.7313 -8.06154,-8.7313 0,0 -3.01971,4.6998 -4.02664,5.0353 -1.00692,0.3358 -4.69945,4.6996 -3.35687,5.0353 1.34252,0.3355 5.70505,2.0175 5.70505,2.0175 l 1.67846,5.7052 -6.70555,-0.3392 -0.33898,3.357 c 0,0 -7.04765,1.3428 -5.70508,1.6785 1.34258,0.3355 6.37479,0 6.37479,0 l 2.34818,-2.6871 6.38307,0 -1.00869,-10.4016 -4.36563,-0.6696 4.36563,-4.0267 6.37479,6.7056 8.39224,-3.3488 -4.02662,-9.062 -3.02617,-2.3564 z"
           id="path4560" />
      </g>
    </g>
    <g
       id="g4990"
       transform="translate(257.77348,-1914.8732)"
       inkscape:export-filename="C:\Users\rober\Desktop\assets\ASSETS_2019\electrical_effects\big_bolt\strike_animation\bolt_strike_animation_01.png"
       inkscape:export-xdpi="90"
       inkscape:export-ydpi="90">
      <path
         style="opacity:0;color:#000000;fill:#313131;fill-opacity:1;fill-rule:nonzero;stroke:none;stroke-width:10;marker:none;visibility:visible;display:inline;overflow:visible;enable-background:accumulate"
         d="m -379.56195,2771.5691 133.85699,0 0,92.086 -133.85699,0 z"
         id="rect4306"
         inkscape:connector-curvature="0"
         sodipodi:nodetypes="ccccc" />
      <path
         inkscape:connector-curvature="0"
         id="path4376"
         d="m -313.02922,2820.3755 c -18.41559,0 -33.66127,13.2241 -36.2975,30.4637 l 72.59819,0 c -2.63618,-17.2397 -17.88504,-30.4637 -36.30069,-30.4637 z"
         style="color:#000000;fill:#00ffff;fill-opacity:1;fill-rule:nonzero;stroke:none;stroke-width:2;marker:none;visibility:visible;display:inline;overflow:visible;filter:url(#filter4386);enable-background:accumulate" />
      <path
         style="color:#000000;fill:#00ffff;fill-opacity:1;fill-rule:nonzero;stroke:none;stroke-width:2;marker:none;visibility:visible;display:inline;overflow:visible;enable-background:accumulate"
         d="m -313.02922,2820.3755 c -18.41559,0 -33.66127,13.2241 -36.2975,30.4637 l 72.59819,0 c -2.63618,-17.2397 -17.88504,-30.4637 -36.30069,-30.4637 z"
         id="path4044"
         inkscape:connector-curvature="0" />
      <path
         inkscape:connector-curvature="0"
         id="path4046"
         d="m -312.66203,2826.1377 c -16.55356,0 -27.17235,8.7081 -29.54201,24.7015 l 58.13756,0 c -2.36962,-15.9935 -12.04194,-24.7015 -28.59555,-24.7015 z"
         style="opacity:1;color:#000000;fill:#e3ffff;fill-opacity:1;fill-rule:nonzero;stroke:none;stroke-width:2;marker:none;visibility:visible;display:inline;overflow:visible;enable-background:accumulate"
         sodipodi:nodetypes="sccs" />
      <path
         style="color:#000000;fill:#e3ffff;fill-opacity:1;fill-rule:nonzero;stroke:none;stroke-width:10;marker:none;visibility:visible;display:inline;overflow:visible;enable-background:accumulate;opacity:1"
         d="m -312.07304,2776.4641 -10.28979,55.476 19.9343,1.1824 z m -55.95372,26.9594 32.13108,42.0434 3.56361,-10.6826 z m 33.17288,12.0381 7.97884,16.2385 4.74596,-0.9507 -12.57598,-15.1889 z m 43.01959,0.5291 -8.92968,14.0475 0.71106,1.1907 2.61276,3.0842 5.68855,-18.0414 z m 19.68666,2.0505 -24.82123,15.0813 4.74597,4.5143 19.9347,-19.4633 z m -18.17357,22.6796 1.6589,6.8829 39.15908,-9.0229 c -13.63634,-0.6185 -27.23516,1.1076 -40.81798,2.14 z m -48.17897,4.2746 -18.51257,1.8936 16.13959,2.1413 -1.19063,-0.7109 z"
         id="path4255"
         inkscape:connector-curvature="0"
         sodipodi:nodetypes="ccccccccccccccccccccccccccccccccc" />
      <g
         transform="translate(-12.185676,-119.09907)"
         id="g4884">
        <rect
           style="opacity:0;color:#000000;fill:#333333;fill-opacity:1;fill-rule:nonzero;stroke:none;stroke-width:10;marker:none;visibility:visible;display:inline;overflow:visible;enable-background:accumulate"
           id="rect4878"
           width="248.00548"
           height="211.85123"
           x="-837.25635"
           y="11885.144"
           transform="matrix(0.26458334,0,0,0.26458334,-113.74661,-236.29243)" />
        <path
           style="color:#000000;fill:#00ffff;fill-opacity:1;fill-rule:nonzero;stroke:none;stroke-width:10;marker:none;visibility:visible;display:inline;overflow:visible;enable-background:accumulate"
           d="m -325.74156,2948.7838 -4.7467,-10.6801 8.7814,-10.2055 -3.56003,-10.2053 c 0,0 6.64538,-5.2215 6.40805,-4.2722 -0.23734,0.9493 9.01873,8.5442 9.01873,8.5442 l 12.8161,-7.1202 -12.34143,9.7308 -10.20541,-6.8826 -2.61068,3.0853 4.50936,9.2559 -8.7814,8.5442 4.50937,7.3573 z"
           id="path4488"
           inkscape:connector-curvature="0" />
      </g>
      <g
         transform="translate(-726.00815,-224.6063)"
         id="g4840">
        <rect
           y="3008.7542"
           x="421.44409"
           height="61.70713"
           width="57.909771"
           id="rect4826"
           style="opacity:0;color:#000000;fill:#333333;fill-opacity:1;fill-rule:nonzero;stroke:none;stroke-width:10;marker:none;visibility:visible;display:inline;overflow:visible;enable-background:accumulate" />
        <path
           inkscape:connector-curvature="0"
           style="opacity:0.2477876;color:#000000;fill:#00ffff;fill-opacity:1;fill-rule:nonzero;stroke:none;stroke-width:10;marker:none;visibility:visible;display:inline;overflow:visible;enable-background:accumulate"
           d="m 459.49864,3010.5955 c -1.67825,0 -5.37438,4.7045 -5.37438,4.7045 l 0,11.7494 -19.46337,-7.3838 -2.68719,9.7317 -6.7138,3.6877 -2.00917,14.0973 5.03534,1.6785 c -0.67128,-2.0137 2.00919,-15.1061 2.00919,-15.1061 l 5.03534,-2.6789 1.67845,-7.3835 8.72297,3.0179 9.40099,5.0355 c 0,0 3.35844,-7.7181 2.68716,-9.7319 -0.67127,-2.014 1.3397,-7.0509 3.01789,-7.7224 1.67823,-0.6712 9.06198,6.0439 9.06198,6.0439 l 2.01745,6.3749 -6.04406,2.6871 2.68719,6.714 0.66971,-5.0355 6.04409,-4.3656 -3.35693,-10.4013 c 0,0 -10.74065,-5.7134 -12.41885,-5.7134 z m 7.71424,29.873 c -0.33565,1.6783 3.69591,9.7401 3.69591,9.7401 0,0 -2.68253,2.6839 -4.69635,2.3482 -2.01385,-0.3355 -8.06154,-8.7313 -8.06154,-8.7313 0,0 -3.01971,4.6998 -4.02664,5.0353 -1.00692,0.3358 -4.69945,4.6996 -3.35687,5.0353 1.34252,0.3355 5.70505,2.0175 5.70505,2.0175 l 1.67846,5.7052 -6.70554,-0.3392 -0.33899,3.357 c 0,0 -7.04765,1.3428 -5.70508,1.6785 1.34258,0.3355 6.3748,0 6.3748,0 l 2.34817,-2.6871 6.38308,0 -1.0087,-10.4016 -4.36563,-0.6696 4.36563,-4.0267 6.37479,6.7056 8.39224,-3.3488 -4.02662,-9.062 -3.02617,-2.3564 z"
           id="path4580" />
      </g>
    </g>
    <g
       id="g4975"
       transform="translate(244.88956,-1914.8732)"
       inkscape:export-filename="C:\Users\rober\Desktop\assets\ASSETS_2019\electrical_effects\big_bolt\strike_animation\bolt_strike_animation_02.png"
       inkscape:export-xdpi="90"
       inkscape:export-ydpi="90">
      <g
         transform="translate(-5.1535627,0)"
         inkscape:export-ydpi="90"
         inkscape:export-xdpi="90"
         inkscape:export-filename="C:\Users\rober\Desktop\assets\ASSETS_2019\electrical_effects\2.png"
         id="g4352">
        <path
           style="opacity:0;color:#000000;fill:#313131;fill-opacity:1;fill-rule:nonzero;stroke:none;stroke-width:10;marker:none;visibility:visible;display:inline;overflow:visible;enable-background:accumulate"
           d="m -227.66748,2771.5691 133.856994,0 0,92.086 -133.856994,0 z"
           id="rect4308"
           inkscape:connector-curvature="0"
           sodipodi:nodetypes="ccccc" />
        <g
           transform="translate(68.352514,-255.37259)"
           id="g4310">
          <g
             transform="translate(32.833692,812.55401)"
             id="g4312">
            <path
               inkscape:connector-curvature="0"
               id="path4390"
               d="m -262.32094,2263.1941 c -18.4156,0 -33.66127,13.2241 -36.2975,30.4637 l 72.59819,0 c -2.63618,-17.2397 -17.88504,-30.4637 -36.30069,-30.4637 z"
               style="color:#000000;fill:#00ffff;fill-opacity:1;fill-rule:nonzero;stroke:none;stroke-width:2;marker:none;visibility:visible;display:inline;overflow:visible;filter:url(#filter4396);enable-background:accumulate" />
            <path
               style="color:#000000;fill:#00ffff;fill-opacity:1;fill-rule:nonzero;stroke:none;stroke-width:2;marker:none;visibility:visible;display:inline;overflow:visible;enable-background:accumulate"
               d="m -262.32094,2263.1941 c -18.4156,0 -33.66127,13.2241 -36.2975,30.4637 l 72.59819,0 c -2.63618,-17.2397 -17.88504,-30.4637 -36.30069,-30.4637 z"
               id="path4314"
               inkscape:connector-curvature="0" />
            <path
               inkscape:connector-curvature="0"
               id="path4316"
               d="m -261.95375,2268.9563 c -16.55356,0 -27.17235,8.7081 -29.54202,24.7015 l 58.13757,0 c -2.36963,-15.9935 -12.04195,-24.7015 -28.59555,-24.7015 z"
               style="opacity:1;color:#000000;fill:#e3ffff;fill-opacity:1;fill-rule:nonzero;stroke:none;stroke-width:2;marker:none;visibility:visible;display:inline;overflow:visible;enable-background:accumulate"
               sodipodi:nodetypes="sccs" />
          </g>
          <path
             sodipodi:nodetypes="cccccccccccccccccccccccccccccccc"
             inkscape:connector-curvature="0"
             id="path4318"
             transform="matrix(0.26458334,0,0,0.26458334,-114.69596,19.08016)"
             d="m -433.83097,11485.467 c -10.76418,3.588 -20.95028,111.002 -20.95028,111.002 l 44.84375,4.469 c -7.46173,-31.116 -12.43376,-102.156 -23.89347,-115.471 z m -134.33537,82.16 47.88509,79.967 13.46875,-40.375 z m 3.3838,-98.024 78.59504,125.959 17.9375,-3.593 -22.41484,-30.497 z m 211.03254,66.585 -33.75,53.093 2.6875,4.5 9.875,11.657 44.82238,-116.627 z m -19.40625,64.75 17.9375,17.062 156.07507,-123.795 c -62.59705,36.696 -112.0039,69.057 -174.01257,106.733 z m 25.125,28.718 -0.90625,15.25 83.41774,-16.162 c -51.53892,-2.338 -31.17484,-2.99 -82.51149,0.912 z m -182.09375,16.156 -134.5538,7.157 125.58505,8.093 -4.5,-24.215 z"
             style="color:#000000;fill:#e3ffff;fill-opacity:1;fill-rule:nonzero;stroke:none;stroke-width:10;marker:none;visibility:visible;display:inline;overflow:visible;enable-background:accumulate;opacity:1" />
        </g>
      </g>
      <rect
         style="opacity:0;color:#000000;fill:#333333;fill-opacity:1;fill-rule:nonzero;stroke:none;stroke-width:10;marker:none;visibility:visible;display:inline;overflow:visible;enable-background:accumulate"
         id="rect4880"
         width="65.618118"
         height="56.052303"
         x="-200.71545"
         y="2792.3115" />
      <path
         inkscape:transform-center-y="-77.211192"
         inkscape:transform-center-x="-62.109928"
         inkscape:connector-curvature="0"
         id="path4490"
         d="m -189.50569,2832.4359 -9.72996,-7.0776 3.923,-10.2241 6.11171,-5.2743 -8.94826,-11.3835 7.27367,-8.3599 7.36903,3.7972 3.51223,3.5678 c 0,0 10.57787,-7.6816 10.71569,-9.017 0.13775,-1.3356 5.7672,-1.9357 5.15772,0.7008 -0.60948,2.6365 -4.77498,10.3048 -5.09689,11.79 -0.32185,1.4853 7.59826,-0.06 8.51905,-0.8081 0.92079,-0.7485 8.1732,-2.3622 8.1732,-2.3622 0,0 3.31742,7.0907 2.696,8.2075 -0.62116,1.1171 -1.09155,7.3109 -1.09155,7.3109 l -2.08275,3.8342 1.13668,-11.0179 -2.45362,-5.6518 -17.31349,4.2873 -2.71744,-1.4615 4.15357,-9.188 -9.12714,8.3375 -5.67707,-5.4783 -5.38841,-1.7371 -2.68157,3.0975 9.32852,12.6037 -8.55212,6.0348 -2.24292,7.0234 6.59781,4.7297 z"
         style="color:#000000;fill:#00ffff;fill-opacity:1;fill-rule:nonzero;stroke:none;stroke-width:10;marker:none;visibility:visible;display:inline;overflow:visible;enable-background:accumulate" />
      <g
         transform="translate(-579.26724,-221.51434)"
         id="g4836">
        <rect
           style="opacity:0;color:#000000;fill:#333333;fill-opacity:1;fill-rule:nonzero;stroke:none;stroke-width:10;marker:none;visibility:visible;display:inline;overflow:visible;enable-background:accumulate"
           id="rect4824"
           width="57.909771"
           height="61.70713"
           x="421.44409"
           y="3008.7542" />
        <path
           id="path4597"
           d="m 459.49677,3010.5938 c -1.67825,0 -5.37438,4.7045 -5.37438,4.7045 l 0,11.7494 -19.46338,-7.3838 -2.68719,9.7317 -6.7138,3.6877 -2.00917,14.0973 5.03534,1.6785 c -0.67128,-2.0137 2.00919,-15.1061 2.00919,-15.1061 l 5.03534,-2.6789 1.67846,-7.3835 8.72297,3.0179 9.40099,5.0355 c 0,0 3.35844,-7.7181 2.68716,-9.7319 -0.67127,-2.014 1.3397,-7.0509 3.01789,-7.7224 1.67823,-0.6712 9.06198,6.0439 9.06198,6.0439 l 2.01745,6.3749 -6.04406,2.6871 2.68719,6.714 0.66971,-5.0355 6.04409,-4.3656 -3.35693,-10.4013 c 0,0 -10.74065,-5.7134 -12.41885,-5.7134 z m 7.71424,29.873 c -0.33565,1.6783 3.69591,9.7401 3.69591,9.7401 0,0 -2.68253,2.6839 -4.69635,2.3482 -2.01385,-0.3355 -8.06154,-8.7313 -8.06154,-8.7313 0,0 -3.01971,4.6998 -4.02664,5.0353 -1.00692,0.3358 -4.69945,4.6996 -3.35687,5.0353 1.34252,0.3355 5.70505,2.0175 5.70505,2.0175 l 1.67846,5.7052 -6.70554,-0.3392 -0.33899,3.357 c 0,0 -7.04765,1.3428 -5.70508,1.6785 1.34258,0.3355 6.3748,0 6.3748,0 l 2.34817,-2.6871 6.38308,0 -1.0087,-10.4016 -4.36563,-0.6696 4.36563,-4.0267 6.37479,6.7056 8.39224,-3.3488 -4.02662,-9.062 -3.02617,-2.3564 z"
           style="opacity:0.06637166;color:#000000;fill:#00ffff;fill-opacity:1;fill-rule:nonzero;stroke:none;stroke-width:10;marker:none;visibility:visible;display:inline;overflow:visible;enable-background:accumulate"
           inkscape:connector-curvature="0" />
      </g>
    </g>
    <g
       id="g5079"
       transform="translate(-12.214235,7.3285413)"
       inkscape:export-filename="C:\Users\rober\Desktop\assets\ASSETS_2019\electrical_effects\big_bolt\animation\big_bolt_01.png"
       inkscape:export-xdpi="90"
       inkscape:export-ydpi="90">
      <g
         id="g3964"
         transform="translate(156.44085,-1237.0484)"
         inkscape:export-filename="C:\Users\rober\Desktop\assets\ASSETS_2019\electrical_effects\1.png"
         inkscape:export-xdpi="90"
         inkscape:export-ydpi="90">
        <path
           style="opacity:0;color:#000000;fill:#313131;fill-opacity:1;fill-rule:nonzero;stroke:none;stroke-width:2;marker:none;visibility:visible;display:inline;overflow:visible;enable-background:accumulate"
           d="m -258.75945,1792.2664 77.43384,0 0,285.75 -77.43384,0 z"
           id="rect3966"
           inkscape:connector-curvature="0"
           sodipodi:nodetypes="ccccc" />
        <path
           style="opacity:0.2;color:#000000;fill:#00ffff;fill-opacity:1;fill-rule:nonzero;stroke:none;stroke-width:2;marker:none;visibility:visible;display:inline;overflow:visible;enable-background:accumulate"
           d="m -238.30594,1792.2664 0.54804,9.0958 11.87479,69.0425 16.79304,34.9425 -14.47875,51.5963 -30.249,40.2099 15.50569,73.9783 0,6.8847 33.52416,0 0,-7.5754 -19.87155,-65.416 29.5226,-52.144 11.82408,-51.9934 -4.59469,-11.7795 -7.14315,-18.3132 -10.91058,-61.8534 1.17329,-16.6751 z"
           id="path4287"
           inkscape:connector-curvature="0"
           sodipodi:nodetypes="cccccccccccccccccc" />
        <path
           sodipodi:nodetypes="cccccccccccccccccc"
           inkscape:connector-curvature="0"
           id="path3968"
           d="m -233.54344,1792.2664 0.54804,9.0958 11.87479,69.0425 16.79304,34.9425 -14.47875,51.5963 -30.249,40.2099 15.50569,73.9783 0,6.8847 23.99916,0 0,-7.5754 -19.87155,-65.416 29.5226,-52.144 11.82408,-51.9934 -4.59469,-11.7795 -7.14315,-18.3132 -10.91058,-61.8534 1.17329,-16.6751 z"
           style="color:#000000;fill:#00ffff;fill-opacity:1;fill-rule:nonzero;stroke:none;stroke-width:2;marker:none;visibility:visible;display:inline;overflow:visible;enable-background:accumulate" />
        <path
           style="color:#000000;fill:#ffffff;fill-opacity:1;fill-rule:nonzero;stroke:none;stroke-width:2;marker:none;visibility:visible;display:inline;overflow:visible;enable-background:accumulate"
           d="m -229.34791,1792.2664 0.54804,9.0958 11.87479,69.0425 16.79304,34.9425 -14.47875,51.5963 -30.249,40.2099 16.05992,73.9783 0,6.8847 15.133,0 0,-7.5754 -19.90851,-65.416 29.5226,-52.144 11.82408,-51.9934 -4.59469,-11.7795 -7.14315,-18.3132 -10.91058,-61.8534 1.14175,-16.6751 z"
           id="path3970"
           inkscape:connector-curvature="0"
           sodipodi:nodetypes="cccccccccccccccccc" />
      </g>
      <path
         sodipodi:nodetypes="ccccccccccccc"
         transform="matrix(0.26458334,0,0,0.26458334,-113.74661,-236.29243)"
         inkscape:connector-curvature="0"
         id="path5051"
         d="m 246.10262,3615.3344 c -5.07428,43.1314 5.07428,126.8571 5.07428,126.8571 l 19.11871,72.2184 -46.41163,60.456 22.21864,57.6111 -40.59424,60.8914 5.07428,22.8342 58.35423,-88.7999 -20.29713,-45.6685 50.74281,-68.5028 -22.83426,-68.5028 -10.14856,-152.2284 z"
         style="color:#000000;fill:#00ffff;fill-opacity:1;fill-rule:nonzero;stroke:none;stroke-width:10;marker:none;visibility:visible;display:inline;overflow:visible;enable-background:accumulate" />
    </g>
    <g
       id="g5087"
       transform="translate(-40.965515,7.3285413)"
       inkscape:export-filename="C:\Users\rober\Desktop\assets\ASSETS_2019\electrical_effects\big_bolt\animation\big_bolt_02.png"
       inkscape:export-xdpi="90"
       inkscape:export-ydpi="90">
      <g
         transform="translate(143.35643,-1237.4854)"
         id="g3972"
         inkscape:export-filename="C:\Users\rober\Desktop\assets\ASSETS_2019\electrical_effects\2.png"
         inkscape:export-xdpi="90"
         inkscape:export-ydpi="90">
        <path
           style="opacity:0;color:#000000;fill:#313131;fill-opacity:1;fill-rule:nonzero;stroke:none;stroke-width:2;marker:none;visibility:visible;display:inline;overflow:visible;enable-background:accumulate"
           d="m -139.48991,1792.7034 77.433846,0 0,285.75 -77.433846,0 z"
           id="rect3974"
           inkscape:connector-curvature="0"
           sodipodi:nodetypes="ccccc" />
        <path
           sodipodi:nodetypes="ccscccccccccccccccc"
           inkscape:connector-curvature="0"
           id="path4289"
           d="m -119.03636,1792.7034 -10.84405,15.7414 c 0,0 13.52696,34.4408 16.46452,54.7694 1.53765,10.6407 6.55335,31.5768 6.55335,31.5768 l -19.28548,58.1921 9.07882,44.6073 -2.73006,36.1614 10.99897,31.7015 -10.2423,13.0001 33.52416,0 9.774126,-12.9496 -11.048054,-38.1592 -1.118557,-28.4786 -13.737995,-45.548 21.437537,-51.9934 -4.309248,-32.2914 -13.563139,-59.6547 12.56533,-16.6751 z"
           style="opacity:0.2;color:#000000;fill:#00ffff;fill-opacity:1;fill-rule:nonzero;stroke:none;stroke-width:2;marker:none;visibility:visible;display:inline;overflow:visible;enable-background:accumulate" />
        <path
           style="color:#000000;fill:#00ffff;fill-opacity:1;fill-rule:nonzero;stroke:none;stroke-width:2;marker:none;visibility:visible;display:inline;overflow:visible;enable-background:accumulate"
           d="m -114.27386,1792.7034 -10.84405,15.7414 c 0,0 13.52696,34.4408 16.46452,54.7694 1.53765,10.6407 6.55335,31.5768 6.55335,31.5768 l -19.28548,58.1921 9.07882,44.6073 -2.73006,36.1614 10.99897,31.7015 -10.2423,13.0001 23.99916,0 9.774126,-12.9496 -11.048054,-38.1592 -1.118557,-28.4786 -13.737995,-45.548 21.437537,-51.9934 -4.309248,-32.2914 -13.563139,-59.6547 12.56533,-16.6751 z"
           id="path3976"
           inkscape:connector-curvature="0"
           sodipodi:nodetypes="ccscccccccccccccccc" />
        <path
           sodipodi:nodetypes="ccscccccccccccccccc"
           inkscape:connector-curvature="0"
           id="path3978"
           d="m -110.07833,1792.7034 -10.36938,15.7414 c 0,0 13.05229,34.4408 15.98985,54.7694 1.53765,10.6407 6.553352,31.5768 6.553352,31.5768 l -19.285482,58.1921 9.07882,44.6073 -2.73006,36.1614 11.010678,32.1007 -9.699738,12.6009 15.133002,0 9.72904,-13.2646 -11.039975,-37.8442 -1.118557,-28.4786 -13.73799,-45.548 21.437532,-51.9934 -4.309248,-32.2914 -13.563144,-59.6547 12.533832,-16.6751 z"
           style="color:#000000;fill:#ffffff;fill-opacity:1;fill-rule:nonzero;stroke:none;stroke-width:2;marker:none;visibility:visible;display:inline;overflow:visible;enable-background:accumulate" />
      </g>
      <path
         transform="matrix(0.26458334,0,0,0.26458334,-113.74661,-236.29243)"
         inkscape:connector-curvature="0"
         id="path5053"
         d="m 536.41473,3136.7218 c -3.58806,71.7611 -16.14626,195.5491 -16.14626,218.8715 0,23.3224 19.73432,87.9075 19.73432,87.9075 l -32.29252,69.9671 16.14626,62.791 10.76417,-21.5283 -10.76417,-39.4687 32.29252,-73.5552 -19.73432,-86.1134 16.14627,-148.9044 c 0,0 1.79403,-21.5284 -3.58806,-28.7045 -5.38209,-7.1761 -12.55821,-41.2626 -12.55821,-41.2626 z"
         style="color:#000000;fill:#00ffff;fill-opacity:1;fill-rule:nonzero;stroke:none;stroke-width:10;marker:none;visibility:visible;display:inline;overflow:visible;enable-background:accumulate" />
    </g>
    <g
       id="g5095"
       transform="translate(-64.327244,7.3285413)"
       inkscape:export-filename="C:\Users\rober\Desktop\assets\ASSETS_2019\electrical_effects\big_bolt\animation\big_bolt_03.png"
       inkscape:export-xdpi="90"
       inkscape:export-ydpi="90">
      <g
         transform="translate(136.51862,-1237.4854)"
         id="g3980"
         inkscape:export-filename="C:\Users\rober\Desktop\assets\ASSETS_2019\electrical_effects\3.png"
         inkscape:export-xdpi="90"
         inkscape:export-ydpi="90">
        <path
           style="opacity:0;color:#000000;fill:#313131;fill-opacity:1;fill-rule:nonzero;stroke:none;stroke-width:2;marker:none;visibility:visible;display:inline;overflow:visible;enable-background:accumulate"
           d="m -26.46697,1792.7034 77.43384,0 0,285.75 -77.43384,0 z"
           id="rect3982"
           inkscape:connector-curvature="0"
           sodipodi:nodetypes="ccccc" />
        <path
           style="opacity:0.2;color:#000000;fill:#00ffff;fill-opacity:1;fill-rule:nonzero;stroke:none;stroke-width:2;marker:none;visibility:visible;display:inline;overflow:visible;enable-background:accumulate"
           d="m -6.0134303,1792.7034 0.5480352,9.096 -2.356158,61.4148 -24.0349719,31.5768 9.991903,63.0293 29.8968019,31.3561 8.8963831,36.5568 -22.3939581,48.4738 -0.5542567,4.2359 33.5241618,0.01 0.03699,-5.8165 19.419299,-49.5857 -15.124987,-43.3285 -27.4534292,-26.4047 -9.5877384,-51.9934 26.2790706,-32.2914 5.257533,-59.6547 1.173258,-16.6751 z"
           id="path4291"
           inkscape:connector-curvature="0"
           sodipodi:nodetypes="ccccccccccccccccccc" />
        <path
           sodipodi:nodetypes="ccccccccccccccccccc"
           inkscape:connector-curvature="0"
           id="path3984"
           d="m -1.2509302,1792.7034 0.54803525,9.096 -2.35615805,61.4148 -24.034972,31.5768 9.991903,63.0293 29.896802,31.3561 8.896383,36.5568 -22.39395795,48.4738 -0.55425675,4.2359 23.9991617,0.01 0.03699,-5.8165 19.419299,-49.5857 -15.124987,-43.3285 -27.45342938,-26.4047 -9.58773832,-51.9934 26.2790707,-32.2914 5.257533,-59.6547 1.173258,-16.6751 z"
           style="color:#000000;fill:#00ffff;fill-opacity:1;fill-rule:nonzero;stroke:none;stroke-width:2;marker:none;visibility:visible;display:inline;overflow:visible;enable-background:accumulate" />
        <path
           style="color:#000000;fill:#ffffff;fill-opacity:1;fill-rule:nonzero;stroke:none;stroke-width:2;marker:none;visibility:visible;display:inline;overflow:visible;enable-background:accumulate"
           d="m 2.9446016,1792.7034 0.5480353,9.096 -2.3561581,61.4148 -24.0349718,31.5768 9.991903,63.0293 29.896802,31.3561 8.896383,36.5568 -22.3939581,48.4738 0,4.2464 15.1330021,0 0,-5.8165 19.419299,-49.5857 -15.124987,-43.3285 -27.453429,-26.4047 -9.587738,-51.9934 26.27907,-32.2914 5.257533,-59.6547 1.141741,-16.6751 z"
           id="path3986"
           inkscape:connector-curvature="0"
           sodipodi:nodetypes="ccccccccccccccccccc" />
      </g>
      <path
         transform="matrix(0.26458334,0,0,0.26458334,-113.74661,-236.29243)"
         inkscape:connector-curvature="0"
         id="path5055"
         d="m 977.74592,3307.1545 c -1.79403,30.4985 35.88058,102.2597 35.88058,102.2597 l -37.67461,93.2895 -8.97015,53.8209 53.82086,55.6149 -17.9403,52.0268 16.1463,14.3523 21.5283,-71.7612 -59.20292,-59.203 8.97014,-46.6447 37.67458,-100.4656 -30.49846,-69.9672 1.79403,-59.2029 z"
         style="color:#000000;fill:#00ffff;fill-opacity:1;fill-rule:nonzero;stroke:none;stroke-width:10;marker:none;visibility:visible;display:inline;overflow:visible;enable-background:accumulate" />
      <path
         transform="matrix(0.26458334,0,0,0.26458334,-113.74661,-236.29243)"
         inkscape:connector-curvature="0"
         id="path5057"
         d="m 925.71907,3648.0201 c -1.79403,48.4388 23.32238,138.1402 23.32238,138.1402 l -14.35223,113.0239 16.14626,71.7611 12.5582,59.203 12.55821,-25.1164 -25.11641,-116.6119 12.5582,-107.6418 -14.35223,-105.8477 z"
         style="color:#000000;fill:#00ffff;fill-opacity:1;fill-rule:nonzero;stroke:none;stroke-width:10;marker:none;visibility:visible;display:inline;overflow:visible;enable-background:accumulate" />
    </g>
    <g
       id="g5104"
       transform="translate(-93.078536,7.3285413)"
       inkscape:export-filename="C:\Users\rober\Desktop\assets\ASSETS_2019\electrical_effects\big_bolt\animation\big_bolt_04.png"
       inkscape:export-xdpi="90"
       inkscape:export-ydpi="90">
      <g
         inkscape:export-ydpi="90"
         inkscape:export-xdpi="90"
         inkscape:export-filename="C:\Users\rober\Desktop\assets\ASSETS_2019\electrical_effects\4.png"
         id="g4004"
         transform="translate(134.7707,-1237.4854)">
        <path
           style="opacity:0;color:#000000;fill:#313131;fill-opacity:1;fill-rule:nonzero;stroke:none;stroke-width:2;marker:none;visibility:visible;display:inline;overflow:visible;enable-background:accumulate"
           d="m 81.466082,1792.7034 77.433838,0 0,285.75 -77.433838,0 z"
           id="rect4006"
           inkscape:connector-curvature="0"
           sodipodi:nodetypes="ccccc" />
        <path
           style="opacity:0.2;color:#000000;fill:#00ffff;fill-opacity:1;fill-rule:nonzero;stroke:none;stroke-width:2;marker:none;visibility:visible;display:inline;overflow:visible;enable-background:accumulate"
           d="m 101.9134,1792.7034 11.70346,15.0483 -13.50536,55.4625 16.60378,31.5768 -10.109,63.0293 -5.49824,31.3561 6.27453,36.5568 -18.091365,36.1632 12.622195,16.557 33.52416,0 -13.13945,-18.1271 15.11671,-37.2751 -12.50314,-43.3285 7.94161,-26.4047 10.51315,-51.9934 -14.35968,-32.2914 17.34066,-59.6547 -10.90986,-16.6751 z"
           id="path4293"
           inkscape:connector-curvature="0"
           sodipodi:nodetypes="ccccccccccccccccccc" />
        <path
           sodipodi:nodetypes="ccccccccccccccccccc"
           inkscape:connector-curvature="0"
           id="path4008"
           d="m 106.6759,1792.7034 11.70346,15.0483 -13.50536,55.4625 16.60378,31.5768 -10.109,63.0293 -5.49824,31.3561 6.27453,36.5568 -18.091365,36.1632 12.622195,16.557 23.99916,0 -13.13945,-18.1271 15.11671,-37.2751 -12.50314,-43.3285 7.94161,-26.4047 10.51315,-51.9934 -14.35968,-32.2914 17.34066,-59.6547 -10.90986,-16.6751 z"
           style="color:#000000;fill:#00ffff;fill-opacity:1;fill-rule:nonzero;stroke:none;stroke-width:2;marker:none;visibility:visible;display:inline;overflow:visible;enable-background:accumulate" />
        <path
           style="color:#000000;fill:#ffffff;fill-opacity:1;fill-rule:nonzero;stroke:none;stroke-width:2;marker:none;visibility:visible;display:inline;overflow:visible;enable-background:accumulate"
           d="m 110.87764,1792.7034 11.69713,15.0526 -13.50524,55.4582 16.60378,31.5768 -10.109,63.0293 -5.49824,31.3561 6.27453,36.5568 -18.091365,36.1632 13.176445,16.557 15.13301,0 -13.17644,-18.1271 15.11671,-37.2751 -12.50314,-43.3285 7.94161,-26.4047 10.51315,-51.9934 -14.35968,-32.2914 17.34066,-59.6547 -10.94138,-16.6751 z"
           id="path4010"
           inkscape:connector-curvature="0"
           sodipodi:nodetypes="ccccccccccccccccccc" />
      </g>
      <path
         transform="matrix(0.26458334,0,0,0.26458334,-113.74661,-236.29243)"
         inkscape:connector-curvature="0"
         id="path5059"
         d="m 1357.3701,3280.4319 c -2.5371,50.7428 5.0743,147.1542 -5.0742,149.6913 -10.1486,2.5371 -48.2057,88.7999 -48.2057,88.7999 0,0 27.9085,88.7999 27.9085,109.0971 0,20.2971 12.6857,109.097 12.6857,109.097 l 10.1486,-63.4285 -12.6857,-121.7828 -12.6857,-35.5199 27.9085,-68.5028 12.6857,-15.2229 5.0743,-106.5599 z"
         style="color:#000000;fill:#00ffff;fill-opacity:1;fill-rule:nonzero;stroke:none;stroke-width:10;marker:none;visibility:visible;display:inline;overflow:visible;enable-background:accumulate" />
      <path
         transform="matrix(0.26458334,0,0,0.26458334,-113.74661,-236.29243)"
         inkscape:connector-curvature="0"
         id="path5061"
         d="m 1436.0215,3546.8317 c 2.5371,38.0571 15.2228,109.097 15.2228,109.097 l -32.9828,106.5599 -5.0743,43.1314 7.6114,10.1485 c 0,0 22.8343,-76.1142 27.9086,-86.2627 5.0743,-10.1486 17.76,-83.7257 17.76,-83.7257 l -27.9086,-157.3027 z"
         style="color:#000000;fill:#00ffff;fill-opacity:1;fill-rule:nonzero;stroke:none;stroke-width:10;marker:none;visibility:visible;display:inline;overflow:visible;enable-background:accumulate" />
    </g>
    <g
       id="g5113"
       transform="translate(-121.82983,7.3285413)"
       inkscape:export-filename="C:\Users\rober\Desktop\assets\ASSETS_2019\electrical_effects\big_bolt\animation\big_bolt_05.png"
       inkscape:export-xdpi="90"
       inkscape:export-ydpi="90">
      <g
         inkscape:export-ydpi="90"
         inkscape:export-xdpi="90"
         inkscape:export-filename="C:\Users\rober\Desktop\assets\ASSETS_2019\electrical_effects\1.png"
         transform="translate(581.18136,-1237.0484)"
         id="g5011">
        <path
           style="opacity:0;color:#000000;fill:#313131;fill-opacity:1;fill-rule:nonzero;stroke:none;stroke-width:2;marker:none;visibility:visible;display:inline;overflow:visible;enable-background:accumulate"
           d="m -258.75945,1792.2664 77.43384,0 0,285.75 -77.43384,0 z"
           id="rect5013"
           inkscape:connector-curvature="0"
           sodipodi:nodetypes="ccccc" />
        <path
           sodipodi:nodetypes="cccccccccccccccccc"
           inkscape:connector-curvature="0"
           id="path5015"
           d="m -238.30594,1792.2664 0.54804,9.0958 11.87479,69.0425 16.79304,34.9425 -14.47875,51.5963 -30.249,40.2099 15.50569,73.9783 0,6.8847 33.52416,0 0,-7.5754 -19.87155,-65.416 29.5226,-52.144 11.82408,-51.9934 -4.59469,-11.7795 -7.14315,-18.3132 -10.91058,-61.8534 1.17329,-16.6751 z"
           style="opacity:0.2;color:#000000;fill:#00ffff;fill-opacity:1;fill-rule:nonzero;stroke:none;stroke-width:2;marker:none;visibility:visible;display:inline;overflow:visible;enable-background:accumulate" />
        <path
           style="color:#000000;fill:#00ffff;fill-opacity:1;fill-rule:nonzero;stroke:none;stroke-width:2;marker:none;visibility:visible;display:inline;overflow:visible;enable-background:accumulate"
           d="m -233.54344,1792.2664 0.54804,9.0958 11.87479,69.0425 16.79304,34.9425 -14.47875,51.5963 -30.249,40.2099 15.50569,73.9783 0,6.8847 23.99916,0 0,-7.5754 -19.87155,-65.416 29.5226,-52.144 11.82408,-51.9934 -4.59469,-11.7795 -7.14315,-18.3132 -10.91058,-61.8534 1.17329,-16.6751 z"
           id="path5017"
           inkscape:connector-curvature="0"
           sodipodi:nodetypes="cccccccccccccccccc" />
        <path
           sodipodi:nodetypes="cccccccccccccccccc"
           inkscape:connector-curvature="0"
           id="path5019"
           d="m -229.34791,1792.2664 0.54804,9.0958 11.87479,69.0425 16.79304,34.9425 -14.47875,51.5963 -30.249,40.2099 16.05992,73.9783 0,6.8847 15.133,0 0,-7.5754 -19.90851,-65.416 29.5226,-52.144 11.82408,-51.9934 -4.59469,-11.7795 -7.14315,-18.3132 -10.91058,-61.8534 1.14175,-16.6751 z"
           style="color:#000000;fill:#ffffff;fill-opacity:1;fill-rule:nonzero;stroke:none;stroke-width:2;marker:none;visibility:visible;display:inline;overflow:visible;enable-background:accumulate" />
      </g>
      <path
         transform="matrix(0.26458334,0,0,0.26458334,-113.74661,-236.29243)"
         inkscape:connector-curvature="0"
         id="path5063"
         d="m 1808.9811,3305.8033 c -2.5371,45.6685 -15.2228,116.7085 -22.8342,137.0056 -7.6115,20.2971 7.6114,83.7256 7.6114,101.4856 0,17.76 -5.0743,91.3371 -5.0743,91.3371 l 17.76,-22.8343 c 0,0 0,-78.6513 0,-93.8742 0,-15.2228 -10.1486,-53.2799 -5.0743,-73.5771 5.0743,-20.2971 22.8343,-104.0227 22.8343,-104.0227 z"
         style="color:#000000;fill:#00ffff;fill-opacity:1;fill-rule:nonzero;stroke:none;stroke-width:10;marker:none;visibility:visible;display:inline;overflow:visible;enable-background:accumulate" />
      <path
         transform="matrix(0.26458334,0,0,0.26458334,-113.74661,-236.29243)"
         inkscape:connector-curvature="0"
         id="path5065"
         d="m 1808.9811,3693.9858 c -5.0743,55.8171 12.6857,111.6342 15.2229,121.7827 2.5371,10.1486 20.2971,111.6342 20.2971,111.6342 l -22.8343,98.9485 -10.1485,-30.4457 20.2971,-81.1885 c 0,0 -32.9828,-131.9313 -35.52,-147.1541 -2.5371,-15.2229 -2.5371,-60.8914 -2.5371,-60.8914 z"
         style="color:#000000;fill:#00ffff;fill-opacity:1;fill-rule:nonzero;stroke:none;stroke-width:10;marker:none;visibility:visible;display:inline;overflow:visible;enable-background:accumulate" />
    </g>
    <g
       id="g5122"
       transform="translate(-150.58111,7.3285413)"
       inkscape:export-filename="C:\Users\rober\Desktop\assets\ASSETS_2019\electrical_effects\big_bolt\animation\big_bolt_06.png"
       inkscape:export-xdpi="90"
       inkscape:export-ydpi="90">
      <g
         inkscape:export-ydpi="90"
         inkscape:export-xdpi="90"
         inkscape:export-filename="C:\Users\rober\Desktop\assets\ASSETS_2019\electrical_effects\2.png"
         id="g5021"
         transform="translate(568.09694,-1237.4854)">
        <path
           style="opacity:0;color:#000000;fill:#313131;fill-opacity:1;fill-rule:nonzero;stroke:none;stroke-width:2;marker:none;visibility:visible;display:inline;overflow:visible;enable-background:accumulate"
           d="m -139.48991,1792.7034 77.433846,0 0,285.75 -77.433846,0 z"
           id="rect5023"
           inkscape:connector-curvature="0"
           sodipodi:nodetypes="ccccc" />
        <path
           style="opacity:0.2;color:#000000;fill:#00ffff;fill-opacity:1;fill-rule:nonzero;stroke:none;stroke-width:2;marker:none;visibility:visible;display:inline;overflow:visible;enable-background:accumulate"
           d="m -119.03636,1792.7034 -10.84405,15.7414 c 0,0 13.52696,34.4408 16.46452,54.7694 1.53765,10.6407 6.55335,31.5768 6.55335,31.5768 l -19.28548,58.1921 9.07882,44.6073 -2.73006,36.1614 10.99897,31.7015 -10.2423,13.0001 33.52416,0 9.774126,-12.9496 -11.048054,-38.1592 -1.118557,-28.4786 -13.737995,-45.548 21.437537,-51.9934 -4.309248,-32.2914 -13.563139,-59.6547 12.56533,-16.6751 z"
           id="path5025"
           inkscape:connector-curvature="0"
           sodipodi:nodetypes="ccscccccccccccccccc" />
        <path
           sodipodi:nodetypes="ccscccccccccccccccc"
           inkscape:connector-curvature="0"
           id="path5027"
           d="m -114.27386,1792.7034 -10.84405,15.7414 c 0,0 13.52696,34.4408 16.46452,54.7694 1.53765,10.6407 6.55335,31.5768 6.55335,31.5768 l -19.28548,58.1921 9.07882,44.6073 -2.73006,36.1614 10.99897,31.7015 -10.2423,13.0001 23.99916,0 9.774126,-12.9496 -11.048054,-38.1592 -1.118557,-28.4786 -13.737995,-45.548 21.437537,-51.9934 -4.309248,-32.2914 -13.563139,-59.6547 12.56533,-16.6751 z"
           style="color:#000000;fill:#00ffff;fill-opacity:1;fill-rule:nonzero;stroke:none;stroke-width:2;marker:none;visibility:visible;display:inline;overflow:visible;enable-background:accumulate" />
        <path
           style="color:#000000;fill:#ffffff;fill-opacity:1;fill-rule:nonzero;stroke:none;stroke-width:2;marker:none;visibility:visible;display:inline;overflow:visible;enable-background:accumulate"
           d="m -110.07833,1792.7034 -10.36938,15.7414 c 0,0 13.05229,34.4408 15.98985,54.7694 1.53765,10.6407 6.553352,31.5768 6.553352,31.5768 l -19.285482,58.1921 9.07882,44.6073 -2.73006,36.1614 11.010678,32.1007 -9.699738,12.6009 15.133002,0 9.72904,-13.2646 -11.039975,-37.8442 -1.118557,-28.4786 -13.73799,-45.548 21.437532,-51.9934 -4.309248,-32.2914 -13.563144,-59.6547 12.533832,-16.6751 z"
           id="path5029"
           inkscape:connector-curvature="0"
           sodipodi:nodetypes="ccscccccccccccccccc" />
      </g>
      <path
         transform="matrix(0.26458334,0,0,0.26458334,-113.74661,-236.29243)"
         inkscape:connector-curvature="0"
         id="path5067"
         d="m 2126.1237,3112.9806 c -5.0743,50.7429 -30.4457,164.9142 -30.4457,185.2113 0,20.2971 20.2971,78.6513 22.8343,116.7085 2.5371,38.0571 7.6114,101.4856 7.6114,101.4856 l 5.0743,65.9656 7.6114,-32.9828 c 0,0 -2.5372,-134.4684 -2.5372,-144.617 0,-10.1486 -25.3714,-104.0228 -22.8342,-114.1713 2.5371,-10.1486 27.9085,-157.3027 27.9085,-157.3027 z"
         style="color:#000000;fill:#00ffff;fill-opacity:1;fill-rule:nonzero;stroke:none;stroke-width:10;marker:none;visibility:visible;display:inline;overflow:visible;enable-background:accumulate" />
      <path
         transform="matrix(0.26458334,0,0,0.26458334,-113.74661,-236.29243)"
         inkscape:connector-curvature="0"
         id="path5069"
         d="m 2222.535,3470.7174 c 2.5372,40.5943 7.6114,86.2628 7.6114,111.6342 0,25.3714 -15.2228,76.1142 -12.6857,106.5599 2.5372,30.4457 2.5372,71.04 2.5372,71.04 l -10.1486,-30.4457 c 0,0 -7.6114,-78.6514 -5.0743,-88.7999 2.5372,-10.1486 12.6857,-71.04 12.6857,-71.04 l -7.6114,-63.4285 10.1486,-48.2057 z"
         style="color:#000000;fill:#00ffff;fill-opacity:1;fill-rule:nonzero;stroke:none;stroke-width:10;marker:none;visibility:visible;display:inline;overflow:visible;enable-background:accumulate" />
    </g>
    <g
       id="g5131"
       transform="translate(-173.94284,7.3285413)"
       inkscape:export-filename="C:\Users\rober\Desktop\assets\ASSETS_2019\electrical_effects\big_bolt\animation\big_bolt_07.png"
       inkscape:export-xdpi="90"
       inkscape:export-ydpi="90">
      <g
         inkscape:export-ydpi="90"
         inkscape:export-xdpi="90"
         inkscape:export-filename="C:\Users\rober\Desktop\assets\ASSETS_2019\electrical_effects\3.png"
         id="g5031"
         transform="translate(561.25913,-1237.4854)">
        <path
           style="opacity:0;color:#000000;fill:#313131;fill-opacity:1;fill-rule:nonzero;stroke:none;stroke-width:2;marker:none;visibility:visible;display:inline;overflow:visible;enable-background:accumulate"
           d="m -26.46697,1792.7034 77.43384,0 0,285.75 -77.43384,0 z"
           id="rect5033"
           inkscape:connector-curvature="0"
           sodipodi:nodetypes="ccccc" />
        <path
           sodipodi:nodetypes="ccccccccccccccccccc"
           inkscape:connector-curvature="0"
           id="path5035"
           d="m -6.0134303,1792.7034 0.5480352,9.096 -2.356158,61.4148 -24.0349719,31.5768 9.991903,63.0293 29.8968019,31.3561 8.8963831,36.5568 -22.3939581,48.4738 -0.5542567,4.2359 33.5241618,0.01 0.03699,-5.8165 19.419299,-49.5857 -15.124987,-43.3285 -27.4534292,-26.4047 -9.5877384,-51.9934 26.2790706,-32.2914 5.257533,-59.6547 1.173258,-16.6751 z"
           style="opacity:0.2;color:#000000;fill:#00ffff;fill-opacity:1;fill-rule:nonzero;stroke:none;stroke-width:2;marker:none;visibility:visible;display:inline;overflow:visible;enable-background:accumulate" />
        <path
           style="color:#000000;fill:#00ffff;fill-opacity:1;fill-rule:nonzero;stroke:none;stroke-width:2;marker:none;visibility:visible;display:inline;overflow:visible;enable-background:accumulate"
           d="m -1.2509302,1792.7034 0.54803525,9.096 -2.35615805,61.4148 -24.034972,31.5768 9.991903,63.0293 29.896802,31.3561 8.896383,36.5568 -22.39395795,48.4738 -0.55425675,4.2359 23.9991617,0.01 0.03699,-5.8165 19.419299,-49.5857 -15.124987,-43.3285 -27.45342938,-26.4047 -9.58773832,-51.9934 26.2790707,-32.2914 5.257533,-59.6547 1.173258,-16.6751 z"
           id="path5037"
           inkscape:connector-curvature="0"
           sodipodi:nodetypes="ccccccccccccccccccc" />
        <path
           sodipodi:nodetypes="ccccccccccccccccccc"
           inkscape:connector-curvature="0"
           id="path5039"
           d="m 2.9446016,1792.7034 0.5480353,9.096 -2.3561581,61.4148 -24.0349718,31.5768 9.991903,63.0293 29.896802,31.3561 8.896383,36.5568 -22.3939581,48.4738 0,4.2464 15.1330021,0 0,-5.8165 19.419299,-49.5857 -15.124987,-43.3285 -27.453429,-26.4047 -9.587738,-51.9934 26.27907,-32.2914 5.257533,-59.6547 1.141741,-16.6751 z"
           style="color:#000000;fill:#ffffff;fill-opacity:1;fill-rule:nonzero;stroke:none;stroke-width:2;marker:none;visibility:visible;display:inline;overflow:visible;enable-background:accumulate" />
      </g>
      <path
         transform="matrix(0.26458334,0,0,0.26458334,-113.74661,-236.29243)"
         inkscape:connector-curvature="0"
         id="path5071"
         d="m 2587.8832,3296.9233 c 1.2686,20.2971 16.4915,102.7542 17.76,128.1256 1.2686,25.3714 12.6857,100.2171 12.6857,100.2171 l -27.9085,40.5942 21.5657,31.7143 -8.88,64.697 c 0,0 7.6114,15.2229 8.88,6.3429 1.2686,-8.88 15.2228,-76.1142 15.2228,-76.1142 l -13.9542,-29.1771 20.2971,-36.7886 -26.64,-252.4454 -15.2228,17.7599 z"
         style="color:#000000;fill:#00ffff;fill-opacity:1;fill-rule:nonzero;stroke:none;stroke-width:10;marker:none;visibility:visible;display:inline;overflow:visible;enable-background:accumulate" />
      <path
         transform="matrix(0.26458334,0,0,0.26458334,-113.74661,-236.29243)"
         inkscape:connector-curvature="0"
         id="path5073"
         d="m 2501.6205,3628.0202 c 2.5371,25.3714 20.2971,77.3827 25.3714,91.337 5.0743,13.9543 31.7142,140.8113 31.7142,140.8113 0,0 -38.0571,73.5771 -39.3256,78.6514 -1.2686,5.0742 26.6399,62.1599 26.6399,73.577 0,11.4172 6.3429,45.6686 6.3429,45.6686 l 8.88,-12.6857 -6.3429,-55.8171 -21.5657,-59.6228 c 0,0 45.6686,-69.7714 44.4,-76.1142 -1.2686,-6.3429 -50.7428,-206.777 -50.7428,-206.777 z"
         style="color:#000000;fill:#00ffff;fill-opacity:1;fill-rule:nonzero;stroke:none;stroke-width:10;marker:none;visibility:visible;display:inline;overflow:visible;enable-background:accumulate" />
    </g>
    <g
       id="g5140"
       transform="translate(-202.69413,7.3285413)"
       inkscape:export-filename="C:\Users\rober\Desktop\assets\ASSETS_2019\electrical_effects\big_bolt\animation\big_bolt_08.png"
       inkscape:export-xdpi="90"
       inkscape:export-ydpi="90">
      <g
         transform="translate(559.51121,-1237.4854)"
         id="g5041"
         inkscape:export-filename="C:\Users\rober\Desktop\assets\ASSETS_2019\electrical_effects\4.png"
         inkscape:export-xdpi="90"
         inkscape:export-ydpi="90">
        <path
           style="opacity:0;color:#000000;fill:#313131;fill-opacity:1;fill-rule:nonzero;stroke:none;stroke-width:2;marker:none;visibility:visible;display:inline;overflow:visible;enable-background:accumulate"
           d="m 81.466082,1792.7034 77.433838,0 0,285.75 -77.433838,0 z"
           id="rect5043"
           inkscape:connector-curvature="0"
           sodipodi:nodetypes="ccccc" />
        <path
           sodipodi:nodetypes="ccccccccccccccccccc"
           inkscape:connector-curvature="0"
           id="path5045"
           d="m 101.9134,1792.7034 11.70346,15.0483 -13.50536,55.4625 16.60378,31.5768 -10.109,63.0293 -5.49824,31.3561 6.27453,36.5568 -18.091365,36.1632 12.622195,16.557 33.52416,0 -13.13945,-18.1271 15.11671,-37.2751 -12.50314,-43.3285 7.94161,-26.4047 10.51315,-51.9934 -14.35968,-32.2914 17.34066,-59.6547 -10.90986,-16.6751 z"
           style="opacity:0.2;color:#000000;fill:#00ffff;fill-opacity:1;fill-rule:nonzero;stroke:none;stroke-width:2;marker:none;visibility:visible;display:inline;overflow:visible;enable-background:accumulate" />
        <path
           style="color:#000000;fill:#00ffff;fill-opacity:1;fill-rule:nonzero;stroke:none;stroke-width:2;marker:none;visibility:visible;display:inline;overflow:visible;enable-background:accumulate"
           d="m 106.6759,1792.7034 11.70346,15.0483 -13.50536,55.4625 16.60378,31.5768 -10.109,63.0293 -5.49824,31.3561 6.27453,36.5568 -18.091365,36.1632 12.622195,16.557 23.99916,0 -13.13945,-18.1271 15.11671,-37.2751 -12.50314,-43.3285 7.94161,-26.4047 10.51315,-51.9934 -14.35968,-32.2914 17.34066,-59.6547 -10.90986,-16.6751 z"
           id="path5047"
           inkscape:connector-curvature="0"
           sodipodi:nodetypes="ccccccccccccccccccc" />
        <path
           sodipodi:nodetypes="ccccccccccccccccccc"
           inkscape:connector-curvature="0"
           id="path5049"
           d="m 110.87764,1792.7034 11.69713,15.0526 -13.50524,55.4582 16.60378,31.5768 -10.109,63.0293 -5.49824,31.3561 6.27453,36.5568 -18.091365,36.1632 13.176445,16.557 15.13301,0 -13.17644,-18.1271 15.11671,-37.2751 -12.50314,-43.3285 7.94161,-26.4047 10.51315,-51.9934 -14.35968,-32.2914 17.34066,-59.6547 -10.94138,-16.6751 z"
           style="color:#000000;fill:#ffffff;fill-opacity:1;fill-rule:nonzero;stroke:none;stroke-width:2;marker:none;visibility:visible;display:inline;overflow:visible;enable-background:accumulate" />
      </g>
      <path
         transform="matrix(0.26458334,0,0,0.26458334,-113.74661,-236.29243)"
         inkscape:connector-curvature="0"
         id="path5075"
         d="m 2956.5601,3265.8919 c 5.3821,35.8805 -21.5283,132.7581 -21.5283,132.7581 0,0 14.3522,91.4955 16.1462,104.0537 1.7941,12.5582 -7.1761,64.5851 -7.1761,64.5851 l 19.7344,68.1731 8.9701,-30.4985 -14.3522,-39.4687 c 0,0 14.3522,-62.791 10.7641,-69.9671 -3.588,-7.1761 -19.7343,-102.2597 -19.7343,-102.2597 l 25.1164,-86.1134 z"
         style="color:#000000;fill:#00ffff;fill-opacity:1;fill-rule:nonzero;stroke:none;stroke-width:10;marker:none;visibility:visible;display:inline;overflow:visible;enable-background:accumulate" />
      <path
         transform="matrix(0.26458334,0,0,0.26458334,-113.74661,-236.29243)"
         inkscape:connector-curvature="0"
         id="path5077"
         d="m 3042.6735,3172.6023 c 7.1762,17.9403 3.5881,75.3493 3.5881,75.3493 l -19.7343,84.3193 c 0,0 8.9701,26.9105 10.7641,19.7344 1.7941,-7.1762 23.3224,-95.0836 25.1165,-102.2597 1.794,-7.1761 -10.7642,-120.2 -10.7642,-120.2 l -7.1761,32.2926 z"
         style="color:#000000;fill:#00ffff;fill-opacity:1;fill-rule:nonzero;stroke:none;stroke-width:10;marker:none;visibility:visible;display:inline;overflow:visible;enable-background:accumulate" />
    </g>
  </g>
</svg>
